  0
SECTION
  2
HEADER
  9
$ACADVER
  1
AC1032
  9
$ACADMAINTVER
 90
       55
  9
$DWGCODEPAGE
  3
ANSI_1252
  9
$LASTSAVEDBY
  1
Dev Soni
  9
$REQUIREDVERSIONS
160
                 0
  9
$INSBASE
 10
0.0
 20
0.0
 30
0.0
  9
$EXTMIN
 10
-69.99999999999997
 20
-69.99999999999997
 30
0.0
  9
$EXTMAX
 10
69.99999999999997
 20
69.99999999999997
 30
0.0
  9
$LIMMIN
 10
0.0
 20
0.0
  9
$LIMMAX
 10
420.0
 20
297.0
  9
$ORTHOMODE
 70
     0
  9
$REGENMODE
 70
     1
  9
$FILLMODE
 70
     1
  9
$QTEXTMODE
 70
     0
  9
$MIRRTEXT
 70
     1
  9
$LTSCALE
 40
1.0
  9
$ATTMODE
 70
     1
  9
$TEXTSIZE
 40
3.5
  9
$TRACEWID
 40
1.0
  9
$TEXTSTYLE
  7
Standard
  9
$CLAYER
  8
0
  9
$CELTYPE
  6
ByLayer
  9
$CECOLOR
 62
   256
  9
$CELTSCALE
 40
1.0
  9
$DISPSILH
 70
     0
  9
$DIMSCALE
 40
1.0
  9
$DIMASZ
 40
3.302
  9
$DIMEXO
 40
0.0
  9
$DIMDLI
 40
3.75
  9
$DIMRND
 40
0.0
  9
$DIMDLE
 40
0.0
  9
$DIMEXE
 40
3.174999999999999
  9
$DIMTP
 40
0.0
  9
$DIMTM
 40
0.0
  9
$DIMTXT
 40
3.5
  9
$DIMCEN
 40
2.5
  9
$DIMTSZ
 40
0.0
  9
$DIMTOL
 70
     0
  9
$DIMLIM
 70
     0
  9
$DIMTIH
 70
     1
  9
$DIMTOH
 70
     1
  9
$DIMSE1
 70
     0
  9
$DIMSE2
 70
     0
  9
$DIMTAD
 70
     1
  9
$DIMZIN
 70
     1
  9
$DIMBLK
  1

  9
$DIMASO
 70
     1
  9
$DIMSHO
 70
     1
  9
$DIMPOST
  1

  9
$DIMAPOST
  1

  9
$DIMALT
 70
     0
  9
$DIMALTD
 70
     3
  9
$DIMALTF
 40
0.0393700787
  9
$DIMLFAC
 40
1.0
  9
$DIMTOFL
 70
     1
  9
$DIMTVP
 40
0.0
  9
$DIMTIX
 70
     0
  9
$DIMSOXD
 70
     0
  9
$DIMSAH
 70
     0
  9
$DIMBLK1
  1

  9
$DIMBLK2
  1

  9
$DIMSTYLE
  2
ISO-25
  9
$DIMCLRD
 70
     0
  9
$DIMCLRE
 70
     0
  9
$DIMCLRT
 70
     0
  9
$DIMTFAC
 40
1.0
  9
$DIMGAP
 40
1.524
  9
$DIMJUST
 70
     0
  9
$DIMSD1
 70
     0
  9
$DIMSD2
 70
     0
  9
$DIMTOLJ
 70
     0
  9
$DIMTZIN
 70
     1
  9
$DIMALTZ
 70
     0
  9
$DIMALTTZ
 70
     0
  9
$DIMUPT
 70
     0
  9
$DIMDEC
 70
     2
  9
$DIMTDEC
 70
     2
  9
$DIMALTU
 70
     2
  9
$DIMALTTD
 70
     3
  9
$DIMTXSTY
  7
Standard
  9
$DIMAUNIT
 70
     0
  9
$DIMADEC
 70
     2
  9
$DIMALTRND
 40
0.0
  9
$DIMAZIN
 70
     0
  9
$DIMDSEP
 70
    44
  9
$DIMATFIT
 70
     3
  9
$DIMFRAC
 70
     0
  9
$DIMLDRBLK
  1

  9
$DIMLUNIT
 70
     2
  9
$DIMLWD
 70
    -2
  9
$DIMLWE
 70
    -2
  9
$DIMTMOVE
 70
     0
  9
$DIMFXL
 40
1.0
  9
$DIMFXLON
 70
     0
  9
$DIMJOGANG
 40
0.7853981633974483
  9
$DIMTFILL
 70
     0
  9
$DIMTFILLCLR
 70
     0
  9
$DIMARCSYM
 70
     0
  9
$DIMLTYPE
  6

  9
$DIMLTEX1
  6

  9
$DIMLTEX2
  6

  9
$DIMTXTDIRECTION
 70
     0
  9
$LUNITS
 70
     2
  9
$LUPREC
 70
     2
  9
$SKETCHINC
 40
1.0
  9
$FILLETRAD
 40
10.0
  9
$AUNITS
 70
     0
  9
$AUPREC
 70
     2
  9
$MENU
  1
.
  9
$ELEVATION
 40
0.0
  9
$PELEVATION
 40
0.0
  9
$THICKNESS
 40
0.0
  9
$LIMCHECK
 70
     0
  9
$CHAMFERA
 40
0.0
  9
$CHAMFERB
 40
0.0
  9
$CHAMFERC
 40
0.0
  9
$CHAMFERD
 40
0.0
  9
$SKPOLY
 70
     0
  9
$TDCREATE
 40
2459359.475138889
  9
$TDUCREATE
 40
2459359.245973796
  9
$TDUPDATE
 40
2459359.484236111
  9
$TDUUPDATE
 40
2459359.255069444
  9
$TDINDWG
 40
0.0007639005
  9
$TDUSRTIMER
 40
0.0007639005
  9
$USRTIMER
 70
     1
  9
$ANGBASE
 50
0.0
  9
$ANGDIR
 70
     0
  9
$PDMODE
 70
     0
  9
$PDSIZE
 40
-1.0
  9
$PLINEWID
 40
0.0
  9
$SPLFRAME
 70
     0
  9
$SPLINETYPE
 70
     6
  9
$SPLINESEGS
 70
     8
  9
$HANDSEED
  5
13A
  9
$SURFTAB1
 70
     6
  9
$SURFTAB2
 70
     6
  9
$SURFTYPE
 70
     6
  9
$SURFU
 70
     6
  9
$SURFV
 70
     6
  9
$UCSBASE
  2

  9
$UCSNAME
  2

  9
$UCSORG
 10
0.0
 20
0.0
 30
0.0
  9
$UCSXDIR
 10
1.0
 20
0.0
 30
0.0
  9
$UCSYDIR
 10
0.0
 20
1.0
 30
0.0
  9
$UCSORTHOREF
  2

  9
$UCSORTHOVIEW
 70
     0
  9
$UCSORGTOP
 10
0.0
 20
0.0
 30
0.0
  9
$UCSORGBOTTOM
 10
0.0
 20
0.0
 30
0.0
  9
$UCSORGLEFT
 10
0.0
 20
0.0
 30
0.0
  9
$UCSORGRIGHT
 10
0.0
 20
0.0
 30
0.0
  9
$UCSORGFRONT
 10
0.0
 20
0.0
 30
0.0
  9
$UCSORGBACK
 10
0.0
 20
0.0
 30
0.0
  9
$PUCSBASE
  2

  9
$PUCSNAME
  2

  9
$PUCSORG
 10
0.0
 20
0.0
 30
0.0
  9
$PUCSXDIR
 10
1.0
 20
0.0
 30
0.0
  9
$PUCSYDIR
 10
0.0
 20
1.0
 30
0.0
  9
$PUCSORTHOREF
  2

  9
$PUCSORTHOVIEW
 70
     0
  9
$PUCSORGTOP
 10
0.0
 20
0.0
 30
0.0
  9
$PUCSORGBOTTOM
 10
0.0
 20
0.0
 30
0.0
  9
$PUCSORGLEFT
 10
0.0
 20
0.0
 30
0.0
  9
$PUCSORGRIGHT
 10
0.0
 20
0.0
 30
0.0
  9
$PUCSORGFRONT
 10
0.0
 20
0.0
 30
0.0
  9
$PUCSORGBACK
 10
0.0
 20
0.0
 30
0.0
  9
$USERI1
 70
     0
  9
$USERI2
 70
     0
  9
$USERI3
 70
     0
  9
$USERI4
 70
     0
  9
$USERI5
 70
     0
  9
$USERR1
 40
0.0
  9
$USERR2
 40
0.0
  9
$USERR3
 40
0.0
  9
$USERR4
 40
0.0
  9
$USERR5
 40
0.0
  9
$WORLDVIEW
 70
     1
  9
$SHADEDGE
 70
     3
  9
$SHADEDIF
 70
    70
  9
$TILEMODE
 70
     1
  9
$MAXACTVP
 70
    64
  9
$PINSBASE
 10
0.0
 20
0.0
 30
0.0
  9
$PLIMCHECK
 70
     0
  9
$PEXTMIN
 10
-8.0
 20
-70.0
 30
0.0
  9
$PEXTMAX
 10
0.0
 20
70.0
 30
0.0
  9
$PLIMMIN
 10
-22.358974359
 20
-75.38461538459999
  9
$PLIMMAX
 10
190.8717948718
 20
75.38461538459999
  9
$UNITMODE
 70
     0
  9
$VISRETAIN
 70
     1
  9
$PLINEGEN
 70
     0
  9
$PSLTSCALE
 70
     1
  9
$TREEDEPTH
 70
  3020
  9
$CMLSTYLE
  2
Standard
  9
$CMLJUST
 70
     0
  9
$CMLSCALE
 40
20.0
  9
$PROXYGRAPHICS
 70
     1
  9
$MEASUREMENT
 70
     1
  9
$CELWEIGHT
370
    -1
  9
$ENDCAPS
280
     0
  9
$JOINSTYLE
280
     0
  9
$LWDISPLAY
290
     1
  9
$INSUNITS
 70
     4
  9
$HYPERLINKBASE
  1

  9
$STYLESHEET
  1

  9
$XEDIT
290
     1
  9
$CEPSNTYPE
380
     0
  9
$PSTYLEMODE
290
     1
  9
$FINGERPRINTGUID
  2
{ABF0740C-06FB-4AE3-9E31-93DDC483816B}
  9
$VERSIONGUID
  2
{1861A7E2-BFB0-544D-9BF7-EC08B63968E4}
  9
$EXTNAMES
290
     1
  9
$PSVPSCALE
 40
0.0
  9
$OLESTARTUP
290
     0
  9
$SORTENTS
280
   127
  9
$INDEXCTL
280
     0
  9
$HIDETEXT
280
     0
  9
$XCLIPFRAME
280
     2
  9
$HALOGAP
280
     0
  9
$OBSCOLOR
 70
   257
  9
$OBSLTYPE
280
     0
  9
$INTERSECTIONDISPLAY
280
     0
  9
$INTERSECTIONCOLOR
 70
   257
  9
$DIMASSOC
280
     1
  9
$PROJECTNAME
  1

  9
$CAMERADISPLAY
290
     0
  9
$LENSLENGTH
 40
50.0
  9
$CAMERAHEIGHT
 40
0.0
  9
$STEPSPERSEC
 40
2.0
  9
$STEPSIZE
 40
6.0
  9
$3DDWFPREC
 40
2.0
  9
$PSOLWIDTH
 40
0.25
  9
$PSOLHEIGHT
 40
4.0
  9
$LOFTANG1
 40
1.570796326794896
  9
$LOFTANG2
 40
1.570796326794896
  9
$LOFTMAG1
 40
0.0
  9
$LOFTMAG2
 40
0.0
  9
$LOFTPARAM
 70
     7
  9
$LOFTNORMALS
280
     1
  9
$LATITUDE
 40
37.795
  9
$LONGITUDE
 40
-122.394
  9
$NORTHDIRECTION
 40
0.0
  9
$TIMEZONE
 70
 -8000
  9
$LIGHTGLYPHDISPLAY
280
     1
  9
$TILEMODELIGHTSYNCH
280
     1
  9
$CMATERIAL
347
E5
  9
$SOLIDHIST
280
     0
  9
$SHOWHIST
280
     1
  9
$DWFFRAME
280
     2
  9
$DGNFRAME
280
     0
  9
$REALWORLDSCALE
290
     1
  9
$INTERFERECOLOR
 62
     1
  9
$INTERFEREOBJVS
345
107
  9
$INTERFEREVPVS
346
104
  9
$CSHADOW
280
     0
  9
$SHADOWPLANELOCATION
 40
0.0
  0
ENDSEC
  0
SECTION
  2
CLASSES
  0
CLASS
  1
ACDBDICTIONARYWDFLT
  2
AcDbDictionaryWithDefault
  3
ObjectDBX Classes
 90
        0
 91
        1
280
     0
281
     0
  0
CLASS
  1
VISUALSTYLE
  2
AcDbVisualStyle
  3
ObjectDBX Classes
 90
     4095
 91
       24
280
     0
281
     0
  0
CLASS
  1
MATERIAL
  2
AcDbMaterial
  3
ObjectDBX Classes
 90
     1153
 91
        3
280
     0
281
     0
  0
CLASS
  1
SCALE
  2
AcDbScale
  3
ObjectDBX Classes
 90
     1153
 91
       33
280
     0
281
     0
  0
CLASS
  1
TABLESTYLE
  2
AcDbTableStyle
  3
ObjectDBX Classes
 90
     4095
 91
        1
280
     0
281
     0
  0
CLASS
  1
MLEADERSTYLE
  2
AcDbMLeaderStyle
  3
ACDB_MLEADERSTYLE_CLASS
 90
     4095
 91
        1
280
     0
281
     0
  0
CLASS
  1
SUN
  2
AcDbSun
  3
SCENEOE
 90
     1153
 91
        0
280
     0
281
     0
  0
CLASS
  1
ACDBSECTIONVIEWSTYLE
  2
AcDbSectionViewStyle
  3
ObjectDBX Classes
 90
     1025
 91
        1
280
     0
281
     0
  0
CLASS
  1
ACDBDETAILVIEWSTYLE
  2
AcDbDetailViewStyle
  3
ObjectDBX Classes
 90
     1025
 91
        1
280
     0
281
     0
  0
CLASS
  1
RAPIDRTRENDERSETTINGS
  2
AcDbRapidRTRenderSettings
  3
ObjectDBX Classes
 90
     1024
 91
        7
280
     0
281
     0
  0
CLASS
  1
DICTIONARYVAR
  2
AcDbDictionaryVar
  3
ObjectDBX Classes
 90
        0
 91
        9
280
     0
281
     0
  0
CLASS
  1
CELLSTYLEMAP
  2
AcDbCellStyleMap
  3
ObjectDBX Classes
 90
     1152
 91
        1
280
     0
281
     0
  0
ENDSEC
  0
SECTION
  2
TABLES
  0
TABLE
  2
VPORT
  5
8
330
0
100
AcDbSymbolTable
 70
     1
  0
VPORT
  5
29
330
8
100
AcDbSymbolTableRecord
100
AcDbViewportTableRecord
  2
*Active
 70
     0
 10
0.0
 20
0.0
 11
1.0
 21
1.0
 12
65.85195625280994
 22
19.74744630285366
 13
0.0
 23
0.0
 14
10.0
 24
10.0
 15
10.0
 25
10.0
 16
0.0
 26
0.0
 36
1.0
 17
0.0
 27
0.0
 37
0.0
 40
226.7902812369771
 41
2.410353535353535
 42
50.0
 43
0.0
 44
0.0
 50
0.0
 51
0.0
 71
     0
 72
   100
 73
     1
 74
     3
 75
     0
 76
     0
 77
     0
 78
     0
281
     0
 65
     1
110
0.0
120
0.0
130
0.0
111
1.0
121
0.0
131
0.0
112
0.0
122
1.0
132
0.0
 79
     0
146
0.0
348
103
 60
     3
 61
     5
292
     1
282
     1
141
0.0
142
0.0
 63
   250
421
  3355443
1001
ACAD_NAV_VCDISPLAY
1070
     3
  0
ENDTAB
  0
TABLE
  2
LTYPE
  5
5
330
0
100
AcDbSymbolTable
 70
     6
  0
LTYPE
  5
14
330
5
100
AcDbSymbolTableRecord
100
AcDbLinetypeTableRecord
  2
ByBlock
 70
     0
  3

 72
    65
 73
     0
 40
0.0
  0
LTYPE
  5
15
330
5
100
AcDbSymbolTableRecord
100
AcDbLinetypeTableRecord
  2
ByLayer
 70
     0
  3

 72
    65
 73
     0
 40
0.0
  0
LTYPE
  5
16
330
5
100
AcDbSymbolTableRecord
100
AcDbLinetypeTableRecord
  2
Continuous
 70
     0
  3
Solid line
 72
    65
 73
     0
 40
0.0
  0
LTYPE
  5
6E
330
5
100
AcDbSymbolTableRecord
100
AcDbLinetypeTableRecord
  2
HIDDEN
 70
     0
  3
Hidden __ __ __ __ __ __ __ __ __ __ __ __ __ __
 72
    65
 73
     2
 40
1.905
 49
1.27
 74
     0
 49
-0.635
 74
     0
  0
LTYPE
  5
6F
330
5
100
AcDbSymbolTableRecord
100
AcDbLinetypeTableRecord
  2
PHANTOM
 70
     0
  3
Phantom ______  __  __  ______  __  __  ______
 72
    65
 73
     6
 40
12.7
 49
6.349999999999999
 74
     0
 49
-1.27
 74
     0
 49
1.27
 74
     0
 49
-1.27
 74
     0
 49
1.27
 74
     0
 49
-1.27
 74
     0
  0
LTYPE
  5
70
330
5
100
AcDbSymbolTableRecord
100
AcDbLinetypeTableRecord
  2
CENTER
 70
     0
  3
Center ____ _ ____ _ ____ _ ____ _ ____ _ ____
 72
    65
 73
     4
 40
10.16
 49
6.349999999999999
 74
     0
 49
-1.27
 74
     0
 49
1.27
 74
     0
 49
-1.27
 74
     0
  0
LTYPE
  5
71
330
5
100
AcDbSymbolTableRecord
100
AcDbLinetypeTableRecord
  2
CENTERX2
 70
     0
  3
Center (2x) ________  __  ________  __  _____
 72
    65
 73
     4
 40
20.32
 49
12.7
 74
     0
 49
-2.54
 74
     0
 49
2.54
 74
     0
 49
-2.54
 74
     0
  0
LTYPE
  5
72
330
5
100
AcDbSymbolTableRecord
100
AcDbLinetypeTableRecord
  2
DOT2
 70
     0
  3
Dot (.5x) ........................................
 72
    65
 73
     2
 40
0.635
 49
0.0
 74
     0
 49
-0.635
 74
     0
  0
ENDTAB
  0
TABLE
  2
LAYER
  5
2
330
0
100
AcDbSymbolTable
 70
     1
  0
LAYER
  5
10
102
{ACAD_XDICTIONARY
360
12A
102
}
330
2
100
AcDbSymbolTableRecord
100
AcDbLayerTableRecord
  2
0
 70
     0
 62
     7
  6
Continuous
370
    -3
390
F
347
F5
348
0
  0
ENDTAB
  0
TABLE
  2
STYLE
  5
3
330
0
100
AcDbSymbolTable
 70
     1
  0
STYLE
  5
11
330
3
100
AcDbSymbolTableRecord
100
AcDbTextStyleTableRecord
  2
Standard
 70
     0
 40
0.0
 41
1.0
 50
0.0
 71
     0
 42
3.5
  3
txt
  4

  0
ENDTAB
  0
TABLE
  2
VIEW
  5
6
330
0
100
AcDbSymbolTable
 70
     0
  0
ENDTAB
  0
TABLE
  2
UCS
  5
7
330
0
100
AcDbSymbolTable
 70
     0
  0
ENDTAB
  0
TABLE
  2
APPID
  5
9
330
0
100
AcDbSymbolTable
 70
     2
  0
APPID
  5
12
330
9
100
AcDbSymbolTableRecord
100
AcDbRegAppTableRecord
  2
ACAD
 70
     0
  0
APPID
  5
136
330
9
100
AcDbSymbolTableRecord
100
AcDbRegAppTableRecord
  2
ACAD_NAV_VCDISPLAY
 70
     0
  0
ENDTAB
  0
TABLE
  2
DIMSTYLE
  5
A
330
0
100
AcDbSymbolTable
 70
     1
100
AcDbDimStyleTable
 71
     0
  0
DIMSTYLE
105
27
330
A
100
AcDbSymbolTableRecord
100
AcDbDimStyleTableRecord
  2
ISO-25
 70
     0
 41
2.5
 42
0.625
 43
3.75
 44
1.25
 73
     0
 74
     0
 77
     1
 78
     8
140
2.5
141
2.5
143
0.0393700787
147
0.625
171
     3
172
     1
271
     2
272
     2
274
     3
278
    44
283
     0
284
     8
340
11
  0
ENDTAB
  0
TABLE
  2
BLOCK_RECORD
  5
1
330
0
100
AcDbSymbolTable
 70
     1
  0
BLOCK_RECORD
  5
1F
330
1
100
AcDbSymbolTableRecord
100
AcDbBlockTableRecord
  2
*Model_Space
340
22
 70
     0
280
     1
281
     0
  0
BLOCK_RECORD
  5
1B
330
1
100
AcDbSymbolTableRecord
100
AcDbBlockTableRecord
  2
*Paper_Space
340
1E
 70
     0
280
     1
281
     0
  0
BLOCK_RECORD
  5
23
330
1
100
AcDbSymbolTableRecord
100
AcDbBlockTableRecord
  2
*Paper_Space0
340
26
 70
     0
280
     1
281
     0
  0
ENDTAB
  0
ENDSEC
  0
SECTION
  2
BLOCKS
  0
BLOCK
  5
20
330
1F
100
AcDbEntity
  8
0
100
AcDbBlockBegin
  2
*Model_Space
 70
     0
 10
0.0
 20
0.0
 30
0.0
  3
*Model_Space
  1

  0
ENDBLK
  5
21
330
1F
100
AcDbEntity
  8
0
100
AcDbBlockEnd
  0
BLOCK
  5
1C
330
1B
100
AcDbEntity
 67
     1
  8
0
100
AcDbBlockBegin
  2
*Paper_Space
 70
     0
 10
0.0
 20
0.0
 30
0.0
  3
*Paper_Space
  1

  0
ENDBLK
  5
1D
330
1B
100
AcDbEntity
 67
     1
  8
0
100
AcDbBlockEnd
  0
BLOCK
  5
24
330
23
100
AcDbEntity
 67
     1
  8
0
100
AcDbBlockBegin
  2
*Paper_Space0
 70
     0
 10
0.0
 20
0.0
 30
0.0
  3
*Paper_Space0
  1

  0
LWPOLYLINE
  5
A0
330
23
100
AcDbEntity
 67
     1
  8
0
  6
Continuous
 62
     7
370
    25
100
AcDbPolyline
 90
       47
 70
   128
 43
0.0
 10
-33.05966514530001
 20
39.1773907249
 10
-33.1214465311
 20
40.0695635747
 10
-33.3056398183
 20
40.97869864599999
 10
-33.60881383440001
 20
41.88786047269999
 10
-34.0253210212
 20
42.7801130901
 10
-34.54740263770001
 20
43.6388355201
 10
-35.1653332913
 20
44.4480313887
 10
-35.8676021032
 20
45.19262690789999
 10
-36.641127134
 20
45.858751672
 10
-37.471499076
 20
46.4339970369
 10
-38.34324967110001
 20
46.90764727
 10
-39.240139855
 20
47.2708791636
 10
-40.1454622607
 20
47.51692639479999
 10
-41.04235244469999
 20
47.6412055691
 10
-41.91410303979999
 20
47.6414016008
 10
-42.74447498179999
 20
47.5175108381
 10
-43.5180000126
 20
47.27184113149999
 10
-44.22026882439999
 20
46.90896884279999
 10
-44.83819947799999
 20
46.4356535962
 10
-45.3602810946
 20
45.8607123592
 10
-45.77678828129999
 20
45.19485519919999
 10
-46.07996229739999
 20
44.4504857752
 10
-46.26415558459999
 20
43.6414702812
 10
-46.3259369705
 20
42.78287914519999
 10
-46.26415558459999
 20
41.8907062955
 10
-46.07996229739999
 20
40.98157122409999
 10
-45.77678828129999
 20
40.0724093975
 10
-45.3602810946
 20
39.1801567801
 10
-44.83819947799999
 20
38.32143435
 10
-44.22026882439999
 20
37.5122384814
 10
-43.5180000126
 20
36.7676429623
 10
-42.74447498179999
 20
36.1015181982
 10
-41.91410303979999
 20
35.5262728332
 10
-41.04235244469999
 20
35.0526226001
 10
-40.1454622607
 20
34.6893907065
 10
-39.240139855
 20
34.4433434754
 10
-38.34324967110001
 20
34.319064301
 10
-37.471499076
 20
34.3188682694
 10
-36.641127134
 20
34.4427590321
 10
-35.8676021032
 20
34.6884287387
 10
-35.1653332913
 20
35.0513010274
 10
-34.54740263770001
 20
35.5246162739
 10
-34.0253210212
 20
36.0995575109
 10
-33.60881383440001
 20
36.765414671
 10
-33.3056398183
 20
37.5097840949
 10
-33.1214465311
 20
38.3187995889
 10
-33.05966514530001
 20
39.1773907249
  0
LWPOLYLINE
  5
A1
330
23
100
AcDbEntity
 67
     1
  8
0
  6
Continuous
 62
     7
370
    25
100
AcDbPolyline
 90
       47
 70
   128
 43
0.0
 10
38.8588107476
 20
19.6314900038
 10
38.7970293617
 20
20.5236628535
 10
38.6128360745
 20
21.4327979248
 10
38.3096620584
 20
22.3419597515
 10
37.8931548717
 20
23.2342123689
 10
37.3710732552
 20
24.0929347989
 10
36.7531426015
 20
24.9021306675
 10
36.0508737897
 20
25.6467261867
 10
35.2773487589
 20
26.3128509508
 10
34.4469768169
 20
26.8880963158
 10
33.5752262218
 20
27.3617465489
 10
32.6783360378
 20
27.7249784425
 10
31.7730136321
 20
27.9710256736
 10
30.8761234482
 20
28.095304848
 10
30.0043728531
 20
28.0955008796
 10
29.1740009111
 20
27.9716101169
 10
28.4004758803
 20
27.7259404103
 10
27.6982070685
 20
27.3630681216
 10
27.0802764148
 20
26.889752875
 10
26.5581947983
 20
26.314811638
 10
26.1416876116
 20
25.648954478
 10
25.8385135954
 20
24.904585054
 10
25.6543203083
 20
24.0955695601
 10
25.5925389224
 20
23.236978424
 10
25.6543203083
 20
22.3448055743
 10
25.8385135954
 20
21.435670503
 10
26.1416876116
 20
20.5265086763
 10
26.5581947983
 20
19.6342560589
 10
27.0802764148
 20
18.7755336289
 10
27.6982070685
 20
17.9663377603
 10
28.4004758803
 20
17.2217422411
 10
29.1740009111
 20
16.555617477
 10
30.0043728531
 20
15.9803721121
 10
30.8761234482
 20
15.506721879
 10
31.7730136321
 20
15.1434899854
 10
32.6783360378
 20
14.8974427542
 10
33.5752262218
 20
14.7731635799
 10
34.4469768169
 20
14.7729675482
 10
35.2773487589
 20
14.8968583109
 10
36.0508737897
 20
15.1425280175
 10
36.7531426015
 20
15.5054003062
 10
37.3710732552
 20
15.9787155528
 10
37.8931548717
 20
16.5536567898
 10
38.3096620584
 20
17.2195139498
 10
38.6128360745
 20
17.9638833738
 10
38.7970293617
 20
18.7728988678
 10
38.8588107476
 20
19.6314900038
  0
LWPOLYLINE
  5
A2
330
23
100
AcDbEntity
 67
     1
  8
0
  6
Continuous
 62
     7
370
    25
100
AcDbPolyline
 90
       47
 70
   128
 43
0.0
 10
-47.95446919529999
 20
8.3742226798
 10
-48.01625058109999
 20
9.2663955295
 10
-48.2004438683
 20
10.1755306008
 10
-48.50361788449999
 20
11.0846924275
 10
-48.9201250712
 20
11.9769450449
 10
-49.4422066877
 20
12.8356674749
 10
-50.0601373414
 20
13.6448633435
 10
-50.76240615319999
 20
14.3894588627
 10
-51.53593118399999
 20
15.0555836268
 10
-52.366303126
 20
15.6308289917
 10
-53.23805372109999
 20
16.1044792248
 10
-54.134943905
 20
16.4677111184
 10
-55.0402663107
 20
16.7137583496
 10
-55.9371564947
 20
16.8380375239
 10
-56.80890708979999
 20
16.8382335556
 10
-57.6392790318
 20
16.7143427929
 10
-58.41280406260001
 20
16.4686730863
 10
-59.1150728744
 20
16.1058007976
 10
-59.7330035281
 20
15.632485551
 10
-60.2550851446
 20
15.057544314
 10
-60.67159233129999
 20
14.391687154
 10
-60.9747663474
 20
13.64731773
 10
-61.1589596346
 20
12.8383022361
 10
-61.2207410205
 20
11.9797111
 10
-61.1589596346
 20
11.0875382503
 10
-60.9747663474
 20
10.178403179
 10
-60.67159233129999
 20
9.269241352299999
 10
-60.2550851446
 20
8.376988734899999
 10
-59.7330035281
 20
7.5182663049
 10
-59.1150728744
 20
6.7090704363
 10
-58.41280406260001
 20
5.9644749171
 10
-57.6392790318
 20
5.298350153
 10
-56.80890708979999
 20
4.723104788099999
 10
-55.9371564947
 20
4.249454554899999
 10
-55.0402663107
 20
3.886222661399999
 10
-54.134943905
 20
3.640175430199999
 10
-53.23805372109999
 20
3.515896255899999
 10
-52.366303126
 20
3.5157002242
 10
-51.53593118399999
 20
3.6395909869
 10
-50.76240615319999
 20
3.8852606935
 10
-50.0601373414
 20
4.2481329822
 10
-49.4422066877
 20
4.721448228799999
 10
-48.9201250712
 20
5.296389465799999
 10
-48.50361788449999
 20
5.9622466258
 10
-48.2004438683
 20
6.7066160498
 10
-48.01625058109999
 20
7.515631543699999
 10
-47.95446919529999
 20
8.3742226798
  0
LWPOLYLINE
  5
A3
330
23
100
AcDbEntity
 67
     1
  8
0
  6
Continuous
 62
     7
370
    25
100
AcDbPolyline
 90
       47
 70
   128
 43
0.0
 10
-33.05966514530001
 20
-30.5251225329
 10
-33.1214465311
 20
-29.63294968320001
 10
-33.3056398183
 20
-28.7238146119
 10
-33.60881383440001
 20
-27.8146527852
 10
-34.0253210212
 20
-26.9224001678
 10
-34.54740263770001
 20
-26.06367773780001
 10
-35.1653332913
 20
-25.2544818692
 10
-35.8676021032
 20
-24.50988635
 10
-36.641127134
 20
-23.8437615859
 10
-37.471499076
 20
-23.2685162209
 10
-38.34324967110001
 20
-22.7948659878
 10
-39.240139855
 20
-22.4316340942
 10
-40.1454622607
 20
-22.1855868631
 10
-41.04235244469999
 20
-22.0613076887
 10
-41.91410303979999
 20
-22.0611116571
 10
-42.74447498179999
 20
-22.1850024198
 10
-43.5180000126
 20
-22.4306721264
 10
-44.22026882439999
 20
-22.7935444151
 10
-44.83819947799999
 20
-23.2668596617
 10
-45.3602810946
 20
-23.8418008987
 10
-45.77678828129999
 20
-24.5076580587
 10
-46.07996229739999
 20
-25.2520274827
 10
-46.26415558459999
 20
-26.0610429766
 10
-46.3259369705
 20
-26.9196341127
 10
-46.26415558459999
 20
-27.8118069624
 10
-46.07996229739999
 20
-28.7209420337
 10
-45.77678828129999
 20
-29.6301038604
 10
-45.3602810946
 20
-30.5223564778
 10
-44.83819947799999
 20
-31.38107890780001
 10
-44.22026882439999
 20
-32.1902747764
 10
-43.5180000126
 20
-32.9348702956
 10
-42.74447498179999
 20
-33.6009950597
 10
-41.91410303979999
 20
-34.1762404246
 10
-41.04235244469999
 20
-34.6498906577
 10
-40.1454622607
 20
-35.0131225513
 10
-39.240139855
 20
-35.25916978250001
 10
-38.34324967110001
 20
-35.3834489568
 10
-37.471499076
 20
-35.3836449885
 10
-36.641127134
 20
-35.2597542258
 10
-35.8676021032
 20
-35.01408451920001
 10
-35.1653332913
 20
-34.6512122305
 10
-34.54740263770001
 20
-34.1778969839
 10
-34.0253210212
 20
-33.6029557469
 10
-33.60881383440001
 20
-32.9370985869
 10
-33.3056398183
 20
-32.1927291629
 10
-33.1214465311
 20
-31.3837136689
 10
-33.05966514530001
 20
-30.5251225329
  0
LWPOLYLINE
  5
A4
330
23
100
AcDbEntity
 67
     1
  8
0
  6
Continuous
 62
     7
370
    25
100
AcDbPolyline
 90
       47
 70
   128
 43
0.0
 10
2.8995728011
 20
-54.7339360549
 10
2.837791415299999
 20
-53.8417632052
 10
2.6535981281
 20
-52.93262813390001
 10
2.350424111999999
 20
-52.02346630720001
 10
1.933916925299999
 20
-51.13121368979999
 10
1.411835308699999
 20
-50.2724912598
 10
0.7939046551000001
 20
-49.4632953912
 10
0.0916358433
 20
-48.718699872
 10
-0.6818891875000001
 20
-48.05257510789999
 10
-1.5122611296
 20
-47.47732974299999
 10
-2.3840117246
 20
-47.00367950989999
 10
-3.2809019086
 20
-46.6404476163
 10
-4.1862243143
 20
-46.3944003851
 10
-5.083114498299999
 20
-46.27012121079999
 10
-5.9548650933
 20
-46.26992517909999
 10
-6.785237035299999
 20
-46.3938159418
 10
-7.558762066099999
 20
-46.6394856484
 10
-8.261030877999999
 20
-47.0023579371
 10
-8.878961531599999
 20
-47.47567318369999
 10
-9.401043148099999
 20
-48.05061442069999
 10
-9.817550334899999
 20
-48.7164715807
 10
-10.120724351
 20
-49.4608410047
 10
-10.3049176382
 20
-50.2698564986
 10
-10.366699024
 20
-51.1284476347
 10
-10.3049176382
 20
-52.0206204844
 10
-10.120724351
 20
-52.92975555569999
 10
-9.817550334899999
 20
-53.8389173824
 10
-9.401043148099999
 20
-54.7311699998
 10
-8.878961531599999
 20
-55.5898924298
 10
-8.261030877999999
 20
-56.3990882984
 10
-7.558762066099999
 20
-57.14368381759999
 10
-6.785237035299999
 20
-57.8098085817
 10
-5.9548650933
 20
-58.3850539466
 10
-5.083114498299999
 20
-58.85870417979999
 10
-4.1862243143
 20
-59.2219360733
 10
-3.2809019086
 20
-59.4679833045
 10
-2.3840117246
 20
-59.5922624788
 10
-1.5122611296
 20
-59.5924585105
 10
-0.6818891875000001
 20
-59.46856774779999
 10
0.0916358433
 20
-59.2228980412
 10
0.7939046551000001
 20
-58.8600257525
 10
1.411835308699999
 20
-58.3867105059
 10
1.933916925299999
 20
-57.8117692689
 10
2.350424111999999
 20
-57.1459121089
 10
2.6535981281
 20
-56.4015426849
 10
2.837791415299999
 20
-55.592527191
 10
2.8995728011
 20
-54.7339360549
  0
LWPOLYLINE
  5
A5
330
23
100
AcDbEntity
 67
     1
  8
0
  6
Continuous
 62
     7
370
    25
100
AcDbPolyline
 90
      143
 70
   128
 43
0.0
 10
58.17570540600001
 20
-20.4696846823
 10
58.11511025579999
 20
-17.7991397299
 10
57.9334434231
 20
-15.1008855679
 10
57.6310605292
 20
-12.3802041553
 10
57.20855350279999
 20
-9.642421353899999
 10
56.66674942130001
 20
-6.8928965021
 10
56.00670889159999
 20
-4.1370119239
 10
55.2297239741
 20
-1.3801623927
 10
54.33731565319999
 20
1.372255428999999
 10
53.3312308601
 20
4.1148535541
 10
52.213439053
 20
6.842263217899999
 10
50.986128362
 20
9.549145387999999
 10
49.6517013052
 20
12.2302012155
 10
48.2127700863
 20
14.8801824075
 10
46.6721514809
 20
17.4939015015
 10
45.03286132199999
 20
20.0662420197
 10
43.29810859720001
 20
22.5921684846
 10
41.47128916649999
 20
25.0667362766
 10
39.5559791146
 20
27.485101313
 10
37.55592775090001
 20
29.8425295307
 10
35.4750502699
 20
32.1344061533
 10
33.317420087
 20
34.3562447247
 10
31.0872608645
 20
36.5036958915
 10
28.788938244
 20
38.5725559171
 10
26.4269512997
 20
40.558774911
 10
24.0059237322
 20
42.4584647562
 10
21.5305948165
 20
44.2679067207
 10
19.0058101253
 20
45.9835587367
 10
16.4365120431
 20
47.60206233489999
 10
13.8277300916
 20
49.12024921859999
 10
11.184571084
 20
50.5351474655
 10
8.5122091281
 20
51.84398734600001
 10
5.815875497999999
 20
53.0442067445
 10
3.100848393399999
 20
54.1334561751
 10
0.3724426074
 20
55.10960338100001
 10
-2.3640008777
 20
55.9707375081
 10
-5.103125345199999
 20
56.7151728461
 10
-7.839568830299999
 20
57.3414521276
 10
-10.5679746163
 20
57.8483493817
 10
-13.2830017209
 20
58.2348723331
 10
-15.979335351
 20
58.5002643451
 10
-18.6516973069
 20
58.6440059002
 10
-21.2948563145
 20
58.66581561770001
 10
-23.903638266
 20
58.5656508041
 10
-26.4729363481
 20
58.3437075365
 10
-28.9977210394
 20
58.0004202795
 10
-31.4730499551
 20
57.5364610338
 10
-33.8940775226
 20
56.9527380216
 10
-36.2560644668
 20
56.2503939081
 10
-38.55438708739999
 20
55.43080356479999
 10
-40.78454630989999
 20
54.4955713783
 10
-42.9421764928
 20
53.4465281095
 10
-45.0230539738
 20
52.28572730999999
 10
-47.0231053375
 20
51.0154413017
 10
-48.9384153894
 20
49.6381567292
 10
-50.7652348201
 20
48.1565696918
 10
-52.49998754489999
 20
46.5735804655
 10
-54.13927770369999
 20
44.89228782629999
 10
-55.6798963092
 20
43.11598298319999
 10
-57.11882752810001
 20
41.24814313659999
 10
-58.45325458479999
 20
39.2924246707
 10
-59.6805652759
 20
37.25265599610001
 10
-60.798357083
 20
35.1328300558
 10
-61.8044418761
 20
32.9370965086
 10
-62.69685019699999
 20
30.6697536062
 10
-63.4738351145
 20
28.3352397786
 10
-64.1338756442
 20
25.9381249464
 10
-64.67567972569999
 20
23.4831015744
 10
-65.098186752
 20
20.9749754861
 10
-65.4005696459
 20
18.4186564561
 10
-65.5822364787
 20
15.819148599
 10
-65.64283162889999
 20
13.1815405734
 10
-65.5822364787
 20
10.5109956211
 10
-65.4005696459
 20
7.812741458999999
 10
-65.098186752
 20
5.092060046399999
 10
-64.67567972569999
 20
2.3542772451
 10
-64.1338756442
 20
-0.3952476067
 10
-63.4738351145
 20
-3.151132184999999
 10
-62.69685019699999
 20
-5.9079817162
 10
-61.8044418761
 20
-8.6603995379
 10
-60.798357083
 20
-11.402997663
 10
-59.6805652759
 20
-14.1304073268
 10
-58.45325458479999
 20
-16.8372894969
 10
-57.11882752810001
 20
-19.5183453243
 10
-55.6798963092
 20
-22.1683265164
 10
-54.13927770369999
 20
-24.7820456104
 10
-52.49998754489999
 20
-27.3543861285
 10
-50.7652348201
 20
-29.88031259340001
 10
-48.9384153894
 20
-32.3548803854
 10
-47.0231053375
 20
-34.7732454219
 10
-45.0230539738
 20
-37.1306736396
 10
-42.9421764928
 20
-39.4225502622
 10
-40.78454630989999
 20
-41.6443888336
 10
-38.55438708739999
 20
-43.7918400003
 10
-36.2560644668
 20
-45.860700026
 10
-33.8940775226
 20
-47.8469190199
 10
-31.4730499551
 20
-49.7466088651
 10
-28.9977210394
 20
-51.5560508295
 10
-26.4729363481
 20
-53.27170284560001
 10
-23.903638266
 20
-54.8902064438
 10
-21.2948563145
 20
-56.4083933274
 10
-18.6516973069
 20
-57.82329157439999
 10
-15.979335351
 20
-59.1321314548
 10
-13.2830017209
 20
-60.3323508533
 10
-10.5679746163
 20
-61.42160028399999
 10
-7.8395688302
 20
-62.3977474899
 10
-5.103125345199999
 20
-63.258881617
 10
-2.3640008777
 20
-64.0033169549
 10
0.3724426074
 20
-64.62959623649999
 10
3.100848393399999
 20
-65.1364934906
 10
5.815875497999999
 20
-65.52301644199999
 10
8.5122091281
 20
-65.78840845399999
 10
11.184571084
 20
-65.93215000909999
 10
13.8277300916
 20
-65.9539597266
 10
16.4365120431
 20
-65.8537949129
 10
19.0058101253
 20
-65.63185164540001
 10
21.5305948165
 20
-65.2885643883
 10
24.0059237322
 20
-64.82460514270001
 10
26.4269512997
 20
-64.2408821305
 10
28.788938244
 20
-63.538538017
 10
31.0872608645
 20
-62.7189476737
 10
33.317420087
 20
-61.78371548720001
 10
35.4750502699
 20
-60.7346722184
 10
37.55592775090001
 20
-59.5738714189
 10
39.5559791146
 20
-58.3035854106
 10
41.47128916649999
 20
-56.92630083810001
 10
43.29810859720001
 20
-55.4447138006
 10
45.03286132199999
 20
-53.86172457439999
 10
46.6721514809
 20
-52.1804319351
 10
48.2127700863
 20
-50.40412709209999
 10
49.6517013052
 20
-48.5362872455
 10
50.986128362
 20
-46.5805687795
 10
52.213439053
 20
-44.5408001049
 10
53.3312308601
 20
-42.4209741646
 10
54.33731565319999
 20
-40.2252406175
 10
55.2297239741
 20
-37.957897715
 10
56.00670889159999
 20
-35.6233838875
 10
56.66674942130001
 20
-33.2262690553
 10
57.20855350279999
 20
-30.7712456832
 10
57.6310605292
 20
-28.2631195949
 10
57.9334434231
 20
-25.7068005649
 10
58.11511025579999
 20
-23.1072927078
 10
58.17570540600001
 20
-20.4696846823
  0
LWPOLYLINE
  5
A6
330
23
100
AcDbEntity
 67
     1
  8
0
  6
Continuous
 62
     7
370
    25
100
AcDbPolyline
 90
      109
 70
   128
 43
0.0
 10
31.64316175570001
 20
-13.2587078418
 10
31.5833099363
 20
-11.2488475579
 10
31.4039569978
 20
-9.213255120899999
 10
31.1057098139
 20
-7.1588183313
 10
30.6895775584
 20
-5.0924887529
 10
30.1569682913
 20
-3.021258190799999
 10
29.5096841937
 20
-0.9521350337000001
 10
28.7499154702
 20
1.107879460599999
 10
27.8802329375
 20
3.151814855199999
 10
26.9035793262
 20
5.172755119599999
 10
25.8232593227
 20
7.163862031799999
 10
24.6429283882
 20
9.1183983163
 10
23.3665803887
 20
11.0297504408
 10
21.9985340821
 20
12.891450995
 10
20.5434185038
 20
14.6972005733
 10
19.0061573044
 20
16.4408890909
 10
17.3919520893
 20
18.1166164576
 10
15.7062648178
 20
19.7187125427
 10
13.9547993221
 20
21.2417563599
 10
12.1434820071
 20
22.6805944113
 10
10.2784417972
 20
24.0303581242
 10
8.365989397999999
 20
25.2864803255
 10
6.4125959432
 20
26.44471069530001
 10
4.424871097799999
 20
27.5011301487
 10
2.4095406936
 20
28.4521640966
 10
0.3734239706
 20
29.2945945411
 10
-1.676589496599999
 20
30.0255709644
 10
-3.7335631114
 20
30.6426199737
 10
-5.7905367263
 20
31.1436536702
 10
-7.8405501935
 20
31.5269767148
 10
-9.876666916399999
 20
31.7912920634
 10
-11.8919973207
 20
31.9357053566
 10
-13.8797221661
 20
31.9597279456
 10
-15.8331156209
 20
31.8632785455
 10
-17.74556802
 20
31.6466835106
 10
-19.61060823
 20
31.3106757299
 10
-21.421925545
 20
30.8563921473
 10
-23.1733910407
 20
30.2853699147
 10
-24.8590783121
 20
29.5995411907
 10
-26.4732835273
 20
28.80122660239999
 10
-28.0105447267
 20
27.8931273938
 10
-29.4656603049
 20
26.87831628510001
 10
-30.8337066116
 20
25.7602270759
 10
-32.1100546111
 20
24.5426430261
 10
-33.2903855456
 20
23.2296840549
 10
-34.370705549
 20
21.8257927996
 10
-35.3473591604
 20
20.335719584
 10
-36.2170416931
 20
18.764506344
 10
-36.9768104166
 20
17.1174695681
 10
-37.6240945142
 20
15.4001823072
 10
-38.1567037813
 20
13.6184553179
 10
-38.5728360367
 20
11.7783174002
 10
-38.8710832207
 20
9.885994998500001
 10
-39.0504361592
 20
7.947891132799999
 10
-39.1102879785
 20
5.970563732899999
 10
-39.0504361592
 20
3.960703449
 10
-38.8710832207
 20
1.925111011999999
 10
-38.5728360367
 20
-0.1293257776
 10
-38.1567037813
 20
-2.195655356
 10
-37.6240945142
 20
-4.266885917999999
 10
-36.9768104166
 20
-6.336009075099999
 10
-36.2170416931
 20
-8.3960235694
 10
-35.3473591604
 20
-10.439958964
 10
-34.370705549
 20
-12.4608992285
 10
-33.2903855456
 20
-14.4520061407
 10
-32.1100546111
 20
-16.4065424251
 10
-30.8337066116
 20
-18.3178945497
 10
-29.4656603049
 20
-20.1795951038
 10
-28.0105447267
 20
-21.9853446822
 10
-26.4732835273
 20
-23.7290331997
 10
-24.8590783121
 20
-25.4047605665
 10
-23.1733910407
 20
-27.0068566515
 10
-21.421925545
 20
-28.5299004688
 10
-19.61060823
 20
-29.9687385202
 10
-17.74556802
 20
-31.3185022331
 10
-15.8331156209
 20
-32.5746244344
 10
-13.8797221661
 20
-33.7328548042
 10
-11.8919973207
 20
-34.7892742575
 10
-9.876666916399999
 20
-35.7403082054
 10
-7.8405501935
 20
-36.58273865
 10
-5.7905367263
 20
-37.3137150733
 10
-3.7335631114
 20
-37.9307640825
 10
-1.676589496599999
 20
-38.4317977791
 10
0.3734239706
 20
-38.8151208236
 10
2.4095406936
 20
-39.0794361722
 10
4.424871097799999
 20
-39.2238494655
 10
6.4125959432
 20
-39.2478720545
 10
8.365989397999999
 20
-39.1514226544
 10
10.2784417972
 20
-38.9348276195
 10
12.1434820071
 20
-38.5988198387
 10
13.9547993221
 20
-38.1445362562
 10
15.7062648178
 20
-37.5735140236
 10
17.3919520893
 20
-36.8876852995
 10
19.0061573044
 20
-36.0893707112
 10
20.5434185038
 20
-35.18127150260001
 10
21.9985340821
 20
-34.1664603939
 10
23.3665803887
 20
-33.0483711847
 10
24.6429283882
 20
-31.830787135
 10
25.8232593227
 20
-30.5178281637
 10
26.9035793262
 20
-29.1139369085
 10
27.8802329375
 20
-27.6238636928
 10
28.7499154702
 20
-26.0526504529
 10
29.5096841937
 20
-24.405613677
 10
30.1569682913
 20
-22.6883264161
 10
30.6895775584
 20
-20.9065994267
 10
31.1057098139
 20
-19.0664615091
 10
31.4039569978
 20
-17.1741391074
 10
31.5833099363
 20
-15.2360352416
 10
31.64316175570001
 20
-13.2587078418
  0
LWPOLYLINE
  5
A7
330
23
100
AcDbEntity
 67
     1
  8
0
  6
Continuous
 62
     7
370
    25
100
AcDbPolyline
 90
       47
 70
   128
 43
0.0
 10
38.8588107476
 20
-50.07102325409999
 10
38.7970293617
 20
-49.1788504043
 10
38.6128360745
 20
-48.269715333
 10
38.3096620584
 20
-47.3605535063
 10
37.8931548717
 20
-46.46830088899999
 10
37.3710732552
 20
-45.6095784589
 10
36.7531426015
 20
-44.80038259029999
 10
36.0508737897
 20
-44.0557870711
 10
35.2773487589
 20
-43.3896623071
 10
34.4469768169
 20
-42.8144169421
 10
33.5752262218
 20
-42.340766709
 10
32.6783360378
 20
-41.9775348154
 10
31.7730136321
 20
-41.7314875842
 10
30.8761234482
 20
-41.60720840989999
 10
30.0043728531
 20
-41.6070123782
 10
29.1740009111
 20
-41.7309031409
 10
28.4004758803
 20
-41.97657284749999
 10
27.6982070685
 20
-42.3394451362
 10
27.0802764148
 20
-42.8127603828
 10
26.5581947983
 20
-43.3877016198
 10
26.1416876116
 20
-44.05355877979999
 10
25.8385135954
 20
-44.7979282038
 10
25.6543203083
 20
-45.6069436978
 10
25.5925389224
 20
-46.46553483379999
 10
25.6543203083
 20
-47.3577076835
 10
25.8385135954
 20
-48.26684275489999
 10
26.1416876116
 20
-49.17600458149999
 10
26.5581947983
 20
-50.06825719890001
 10
27.0802764148
 20
-50.92697962899999
 10
27.6982070685
 20
-51.7361754976
 10
28.4004758803
 20
-52.4807710167
 10
29.1740009111
 20
-53.1468957808
 10
30.0043728531
 20
-53.7221411458
 10
30.8761234482
 20
-54.1957913789
 10
31.7730136321
 20
-54.5590232725
 10
32.6783360378
 20
-54.80507050359999
 10
33.5752262218
 20
-54.929349678
 10
34.4469768169
 20
-54.9295457096
 10
35.2773487589
 20
-54.8056549469
 10
36.0508737897
 20
-54.55998524029999
 10
36.7531426015
 20
-54.19711295169999
 10
37.3710732552
 20
-53.72379770510001
 10
37.8931548717
 20
-53.14885646810001
 10
38.3096620584
 20
-52.482999308
 10
38.6128360745
 20
-51.7386298841
 10
38.7970293617
 20
-50.9296143901
 10
38.8588107476
 20
-50.07102325409999
  0
LWPOLYLINE
  5
A8
330
23
100
AcDbEntity
 67
     1
  8
0
  6
Continuous
 62
     7
370
    25
100
AcDbPolyline
 90
       47
 70
   128
 43
0.0
 10
53.7536147976
 20
-19.2678552089
 10
53.69183341180001
 20
-18.3756823591
 10
53.5076401246
 20
-17.4665472878
 10
53.20446610850001
 20
-16.5573854612
 10
52.7879589217
 20
-15.6651328438
 10
52.26587730520001
 20
-14.8064104137
 10
51.64794665149999
 20
-13.9972145451
 10
50.9456778397
 20
-13.2526190259
 10
50.1721528089
 20
-12.5864942619
 10
49.3417808669
 20
-12.0112488969
 10
48.47003027180001
 20
-11.5375986638
 10
47.57314008789999
 20
-11.1743667702
 10
46.6678176822
 20
-10.9283195391
 10
45.77092749819999
 20
-10.8040403647
 10
44.8991769031
 20
-10.8038443331
 10
44.0688049611
 20
-10.9277350958
 10
43.2952799303
 20
-11.1734048024
 10
42.5930111185
 20
-11.536277091
 10
41.9750804648
 20
-12.0095923376
 10
41.4529988483
 20
-12.5845335746
 10
41.03649166159999
 20
-13.2503907347
 10
40.7333176455
 20
-13.9947601586
 10
40.5491243583
 20
-14.8037756526
 10
40.4873429724
 20
-15.6623667886
 10
40.5491243583
 20
-16.5545396384
 10
40.7333176455
 20
-17.4636747097
 10
41.03649166159999
 20
-18.3728365364
 10
41.4529988483
 20
-19.2650891537
 10
41.9750804648
 20
-20.1238115838
 10
42.5930111185
 20
-20.9330074524
 10
43.2952799303
 20
-21.6776029716
 10
44.0688049611
 20
-22.3437277356
 10
44.8991769031
 20
-22.9189731006
 10
45.77092749819999
 20
-23.3926233337
 10
46.6678176822
 20
-23.7558552273
 10
47.57314008789999
 20
-24.0019024585
 10
48.47003027180001
 20
-24.1261816328
 10
49.3417808669
 20
-24.1263776645
 10
50.1721528089
 20
-24.0024869017
 10
50.9456778397
 20
-23.7568171951
 10
51.64794665149999
 20
-23.3939449065
 10
52.26587730520001
 20
-22.9206296599
 10
52.7879589217
 20
-22.3456884229
 10
53.20446610850001
 20
-21.6798312629
 10
53.5076401246
 20
-20.9354618389
 10
53.69183341180001
 20
-20.1264463449
 10
53.7536147976
 20
-19.2678552089
  0
LWPOLYLINE
  5
A9
330
23
100
AcDbEntity
 67
     1
  8
0
  6
Continuous
 62
     7
370
    25
100
AcDbPolyline
 90
       47
 70
   128
 43
0.0
 10
2.8995728011
 20
43.84030352579999
 10
2.837791415299999
 20
44.7324763756
 10
2.6535981281
 20
45.64161144689999
 10
2.350424111999999
 20
46.5507732735
 10
1.933916925299999
 20
47.4430258909
 10
1.411835308699999
 20
48.301748321
 10
0.7939046551000001
 20
49.1109441896
 10
0.0916358433
 20
49.8555397088
 10
-0.6818891875000001
 20
50.5216644728
 10
-1.5122611296
 20
51.0969098378
 10
-2.3840117246
 20
51.5705600709
 10
-3.2809019086
 20
51.93379196449999
 10
-4.1862243143
 20
52.1798391956
 10
-5.083114498299999
 20
52.30411837
 10
-5.9548650933
 20
52.3043144016
 10
-6.785237035299999
 20
52.1804236389
 10
-7.558762066099999
 20
51.93475393229999
 10
-8.261030877999999
 20
51.57188164369999
 10
-8.878961531599999
 20
51.0985663971
 10
-9.401043148099999
 20
50.5236251601
 10
-9.817550334899999
 20
49.857768
 10
-10.120724351
 20
49.11339857609999
 10
-10.3049176382
 20
48.3043830821
 10
-10.366699024
 20
47.44579194609999
 10
-10.3049176382
 20
46.5536190963
 10
-10.120724351
 20
45.644484025
 10
-9.817550334899999
 20
44.7353221983
 10
-9.401043148099999
 20
43.843069581
 10
-8.878961531599999
 20
42.98434715089999
 10
-8.261030877999999
 20
42.1751512823
 10
-7.558762066099999
 20
41.4305557631
 10
-6.785237035299999
 20
40.7644309991
 10
-5.9548650933
 20
40.18918563409999
 10
-5.083114498199999
 20
39.715535401
 10
-4.1862243143
 20
39.35230350739999
 10
-3.2809019086
 20
39.1062562762
 10
-2.3840117246
 20
38.9819771019
 10
-1.5122611296
 20
38.9817810702
 10
-0.6818891875000001
 20
39.105671833
 10
0.0916358433
 20
39.3513415396
 10
0.7939046551000001
 20
39.7142138282
 10
1.411835308699999
 20
40.18752907479999
 10
1.933916925299999
 20
40.7624703118
 10
2.350424111999999
 20
41.42832747179999
 10
2.6535981281
 20
42.1726968958
 10
2.837791415299999
 20
42.98171238979999
 10
2.8995728011
 20
43.84030352579999
  0
LWPOLYLINE
  5
AA
330
23
100
AcDbEntity
 67
     1
  8
0
  6
Continuous
 62
     7
370
    25
100
AcDbPolyline
 90
       58
 70
   128
 43
0.0
 10
59.5757915728
 20
-19.1031576619
 10
59.5151964226
 20
-16.4326127095
 10
59.33352958989999
 20
-13.7343585474
 10
59.03114669589999
 20
-11.0136771349
 10
58.6086396696
 20
-8.2758943335
 10
58.0668355881
 20
-5.526369481699999
 10
57.4067950584
 20
-2.7704849035
 10
56.6298101409
 20
-0.0136353723
 10
55.73740182
 20
2.738782449399999
 10
54.73131702689999
 20
5.4813805745
 10
53.61352521979999
 20
8.2087902383
 10
52.3862145288
 20
10.9156724085
 10
51.051787472
 20
13.5967282359
 10
49.61285625310001
 20
16.2467094279
 10
48.0722376476
 20
18.8604285219
 10
46.4329474888
 20
21.4327690401
 10
44.69819476399999
 20
23.958695505
 10
42.8713753333
 20
26.433263297
 10
40.9560652814
 20
28.8516283334
 10
38.9560139177
 20
31.2090565512
 10
36.8751364367
 20
33.5009331738
 10
34.7175062538
 20
35.72277174510001
 10
32.48734703130001
 20
37.8702229119
 10
30.1890244108
 20
39.9390829375
 10
27.8270374665
 20
41.9253019314
 10
25.406009899
 20
43.8249917767
 10
22.9306809833
 20
45.6344337411
 10
20.4058962921
 20
47.3500857571
 10
17.8365982099
 20
48.9685893553
 10
15.2278162584
 20
50.48677623899999
 10
12.5846572508
 20
51.9016744859
 10
9.912295294899999
 20
53.21051436640001
 10
7.2159616648
 20
54.41073376489999
 10
4.5009345602
 20
55.4999831955
 10
1.772528774199999
 20
56.47613040140001
 10
-0.9639147108999999
 20
57.3372645285
 10
-3.703039178399999
 20
58.0816998665
 10
-6.4394826635
 20
58.707979148
 10
-9.167888449500001
 20
59.2148764021
 10
-11.8829155541
 20
59.6013993535
 10
-14.5792491842
 20
59.8667913655
 10
-17.2516111401
 20
60.01053292069999
 10
-19.8947701477
 20
60.0323426382
 10
-22.5035520992
 20
59.93217782449999
 10
-25.0728501814
 20
59.7102345569
 10
-27.59763487260001
 20
59.3669472999
 10
-30.0729637883
 20
58.9029880542
 10
-32.4939913558
 20
58.3192650421
 10
-34.85597830010001
 20
57.6169209285
 10
-37.1543009206
 20
56.7973305852
 10
-39.3844601431
 20
55.8620983987
 10
-41.54209032599999
 20
54.81305513
 10
-43.62296780699999
 20
53.65225433039999
 10
-45.6230191707
 20
52.3819683221
 10
-47.5383292226
 20
51.0046837496
 10
-49.3651486533
 20
49.5230967122
 10
-51.09990137810001
 20
47.94010748589999
 10
-51.2269480502
 20
47.81665106939999
  0
LWPOLYLINE
  5
AB
330
23
100
AcDbEntity
 67
     1
  8
0
  6
Continuous
 62
     7
370
    25
100
AcDbPolyline
 90
       16
 70
   128
 43
0.0
 10
46.5599941609
 20
-52.3717411375
 10
48.0722376476
 20
-50.8139049147
 10
49.61285625310001
 20
-49.03760007169999
 10
51.051787472
 20
-47.16976022509999
 10
52.3862145288
 20
-45.21404175909999
 10
53.61352521979999
 20
-43.1742730845
 10
54.73131702689999
 20
-41.05444714419999
 10
55.73740182
 20
-38.8587135971
 10
56.6298101409
 20
-36.5913706946
 10
57.4067950584
 20
-34.2568568671
 10
58.0668355881
 20
-31.8597420348
 10
58.6086396696
 20
-29.4047186628
 10
59.03114669589999
 20
-26.8965925745
 10
59.33352958989999
 20
-24.3402735445
 10
59.5151964226
 20
-21.7407656874
 10
59.5757915728
 20
-19.1031576619
  0
LWPOLYLINE
  5
AE
330
23
100
AcDbEntity
 67
     1
  8
0
  6
Continuous
 62
     7
370
    25
100
AcDbPolyline
 90
       55
 70
   128
 43
0.0
 10
-31.199532248
 20
25.4300713588
 10
-32.3569947677
 20
24.1407020685
 10
-33.4373147712
 20
22.7368108132
 10
-34.41396838260001
 20
21.2467375976
 10
-35.2836509152
 20
19.6755243577
 10
-36.0434196388
 20
18.0284875817
 10
-36.6907037363
 20
16.3112003208
 10
-37.2233130034
 20
14.5294733315
 10
-37.6394452589
 20
12.6893354139
 10
-37.9376924429
 20
10.7970130122
 10
-38.1170453813
 20
8.8589091464
 10
-38.17689720070001
 20
6.881581746499999
 10
-38.1170453813
 20
4.8717214626
 10
-37.9376924429
 20
2.8361290256
 10
-37.6394452589
 20
0.781692236
 10
-37.2233130034
 20
-1.284637342399999
 10
-36.6907037363
 20
-3.3558679044
 10
-36.0434196388
 20
-5.4249910615
 10
-35.2836509152
 20
-7.4850055558
 10
-34.41396838260001
 20
-9.528940950399999
 10
-33.4373147712
 20
-11.5498812149
 10
-32.3569947677
 20
-13.5409881271
 10
-31.1766638332
 20
-15.4955244115
 10
-29.9003158338
 20
-17.4068765361
 10
-28.5322695271
 20
-19.2685770902
 10
-27.0771539488
 20
-21.0743266686
 10
-25.5398927494
 20
-22.8180151861
 10
-23.9256875343
 20
-24.4937425529
 10
-22.2400002628
 20
-26.0958386379
 10
-20.4885347671
 20
-27.6188824552
 10
-18.6772174521
 20
-29.0577205065
 10
-16.8121772422
 20
-30.4074842194
 10
-14.899724843
 20
-31.6636064208
 10
-12.9463313882
 20
-32.8218367906
 10
-10.9586065428
 20
-33.8782562439
 10
-8.943276138599999
 20
-34.8292901918
 10
-6.907159415599999
 20
-35.6717206364
 10
-4.857145948399999
 20
-36.4026970597
 10
-2.800172333599999
 20
-37.0197460689
 10
-0.7431987188
 20
-37.5207797655
 10
1.3068147484
 20
-37.90410281
 10
3.3429314714
 20
-38.1684181586
 10
5.3582618757
 20
-38.3128314519
 10
7.345986721
 20
-38.3368540409
 10
9.299380175899999
 20
-38.2404046408
 10
11.211832575
 20
-38.0238096059
 10
13.076872785
 20
-37.6878018251
 10
14.8881901
 20
-37.2335182426
 10
16.6396555956
 20
-36.66249601
 10
18.3253428671
 20
-35.9766672859
 10
19.9395480823
 20
-35.17835269760001
 10
21.4768092816
 20
-34.270253489
 10
22.9319248599
 20
-33.2554423803
 10
24.2999711666
 20
-32.1373531711
 10
24.66579680300001
 20
-31.8071974541
  0
LWPOLYLINE
  5
B0
330
23
100
AcDbEntity
 67
     1
  8
0
  6
Continuous
 62
     7
370
    25
100
AcDbPolyline
 90
       31
 70
   128
 43
0.0
 10
-21.8140452316
 20
-18.779299188
 10
-21.8768568698
 20
-18.1830292465
 10
-22.0625466145
 20
-17.5786774479
 10
-22.3629989327
 20
-16.9926568659
 10
-22.7650826165
 20
-16.4505794118
 10
-23.2512246793
 20
-15.9761364716
 10
-23.8001783804
 20
-15.5900634784
 10
-24.3879518088
 20
-15.3092336747
 10
-24.9888564453
 20
-15.1459206703
 10
-25.5766298737
 20
-15.1072620273
 10
-26.1255835748
 20
-15.1949473139
 10
-26.6117256377
 20
-15.4051442622
 10
-27.0138093214
 20
-15.728666257
 10
-27.3142616396
 20
-16.1513738347
 10
-27.4999513843
 20
-16.6547926458
 10
-27.5627630225
 20
-17.2169208725
 10
-27.4999513843
 20
-17.813190814
 10
-27.3142616396
 20
-18.4175426126
 10
-27.0138093214
 20
-19.0035631947
 10
-26.6117256377
 20
-19.5456406487
 10
-26.1255835748
 20
-20.0200835889
 10
-25.5766298737
 20
-20.4061565821
 10
-24.9888564453
 20
-20.6869863858
 10
-24.3879518088
 20
-20.8502993902
 10
-23.8001783804
 20
-20.8889580332
 10
-23.2512246793
 20
-20.8012727466
 10
-22.7650826165
 20
-20.5910757983
 10
-22.3629989327
 20
-20.2675538035
 10
-22.0625466145
 20
-19.8448462258
 10
-21.8768568698
 20
-19.3414274147
 10
-21.8140452316
 20
-18.779299188
  0
LWPOLYLINE
  5
B1
330
23
100
AcDbEntity
 67
     1
  8
0
  6
Continuous
 62
     7
370
    25
100
AcDbPolyline
 90
       31
 70
   128
 43
0.0
 10
-21.8140452316
 20
23.6483175777
 10
-21.8768568698
 20
24.2445875192
 10
-22.0625466145
 20
24.8489393177
 10
-22.3629989327
 20
25.4349598998
 10
-22.7650826165
 20
25.9770373539
 10
-23.2512246793
 20
26.4514802941
 10
-23.8001783804
 20
26.8375532872
 10
-24.3879518088
 20
27.118383091
 10
-24.9888564453
 20
27.2816960953
 10
-25.5766298737
 20
27.3203547383
 10
-26.1255835748
 20
27.2326694518
 10
-26.6117256377
 20
27.0224725035
 10
-27.0138093214
 20
26.69895050860001
 10
-27.3142616396
 20
26.2762429309
 10
-27.4999513843
 20
25.7728241198
 10
-27.5627630225
 20
25.2106958931
 10
-27.4999513843
 20
24.6144259516
 10
-27.3142616396
 20
24.0100741531
 10
-27.0138093214
 20
23.424053571
 10
-26.6117256377
 20
22.8819761169
 10
-26.1255835748
 20
22.4075331767
 10
-25.5766298737
 20
22.0214601836
 10
-24.9888564453
 20
21.7406303798
 10
-24.3879518088
 20
21.5773173755
 10
-23.8001783804
 20
21.5386587324
 10
-23.2512246793
 20
21.626344019
 10
-22.7650826165
 20
21.8365409673
 10
-22.3629989327
 20
22.1600629621
 10
-22.0625466145
 20
22.5827705399
 10
-21.8768568698
 20
23.0861893509
 10
-21.8140452316
 20
23.6483175777
  0
LWPOLYLINE
  5
B2
330
23
100
AcDbEntity
 67
     1
  8
0
  6
Continuous
 62
     7
370
    25
100
AcDbPolyline
 90
       31
 70
   128
 43
0.0
 10
21.9624183554
 20
11.7508127909
 10
21.8996067171
 20
12.3470827324
 10
21.7139169725
 20
12.9514345309
 10
21.4134646543
 20
13.537455113
 10
21.0113809705
 20
14.0795325671
 10
20.5252389076
 20
14.5539755073
 10
19.9762852065
 20
14.9400485004
 10
19.3885117781
 20
15.2208783042
 10
18.7876071417
 20
15.3841913085
 10
18.1998337133
 20
15.4228499515
 10
17.6508800122
 20
15.335164665
 10
17.1647379493
 20
15.1249677167
 10
16.7626542655
 20
14.8014457218
 10
16.4622019473
 20
14.3787381441
 10
16.2765122027
 20
13.8753193331
 10
16.2137005645
 20
13.3131911063
 10
16.2765122027
 20
12.7169211648
 10
16.4622019473
 20
12.1125693663
 10
16.7626542655
 20
11.5265487842
 10
17.1647379493
 20
10.9844713301
 10
17.6508800122
 20
10.5100283899
 10
18.1998337133
 20
10.1239553968
 10
18.7876071417
 20
9.843125592999999
 10
19.3885117781
 20
9.6798125887
 10
19.9762852065
 20
9.641153945700001
 10
20.5252389076
 20
9.7288392322
 10
21.0113809705
 20
9.939036180499998
 10
21.4134646543
 20
10.2625581754
 10
21.7139169725
 20
10.6852657531
 10
21.8996067171
 20
11.1886845642
 10
21.9624183554
 20
11.7508127909
  0
LWPOLYLINE
  5
B3
330
23
100
AcDbEntity
 67
     1
  8
0
  6
Continuous
 62
     7
370
    25
100
AcDbPolyline
 90
       31
 70
   128
 43
0.0
 10
21.9624183554
 20
-30.6768039748
 10
21.8996067171
 20
-30.0805340333
 10
21.7139169725
 20
-29.4761822347
 10
21.4134646543
 20
-28.89016165260001
 10
21.0113809705
 20
-28.3480841986
 10
20.5252389076
 20
-27.8736412584
 10
19.9762852065
 20
-27.4875682652
 10
19.3885117781
 20
-27.2067384615
 10
18.7876071417
 20
-27.0434254571
 10
18.1998337133
 20
-27.0047668141
 10
17.6508800122
 20
-27.0924521007
 10
17.1647379493
 20
-27.302649049
 10
16.7626542655
 20
-27.6261710438
 10
16.4622019473
 20
-28.0488786215
 10
16.2765122027
 20
-28.55229743260001
 10
16.2137005645
 20
-29.1144256593
 10
16.2765122027
 20
-29.7106956008
 10
16.4622019473
 20
-30.3150473994
 10
16.7626542655
 20
-30.9010679815
 10
17.1647379493
 20
-31.44314543550001
 10
17.6508800122
 20
-31.91758837570001
 10
18.1998337133
 20
-32.3036613689
 10
18.7876071417
 20
-32.5844911726
 10
19.3885117781
 20
-32.747804177
 10
19.9762852065
 20
-32.78646282
 10
20.5252389076
 20
-32.69877753340001
 10
21.0113809705
 20
-32.48858058510001
 10
21.4134646543
 20
-32.1650585903
 10
21.7139169725
 20
-31.74235101260001
 10
21.8996067171
 20
-31.2389322015
 10
21.9624183554
 20
-30.6768039748
  0
LWPOLYLINE
  5
B4
330
23
100
AcDbEntity
 67
     1
  8
0
  6
Continuous
 62
     7
370
    25
100
AcDbPolyline
 90
       90
 70
   128
 43
0.0
 10
21.5213260125
 20
-9.343116144599999
 10
21.4607417719
 20
-7.663899195499999
 10
21.2792908775
 20
-5.960117023799999
 10
20.9778773086
 20
-4.240257786599999
 10
20.5580026925
 20
-2.5128897362
 10
20.0217588234
 20
-0.7866185333
 10
19.3718172412
 20
0.9299556258
 10
18.6114159222
 20
2.628280854999999
 10
17.7443431476
 20
4.299896183399999
 10
16.7749186302
 20
5.9364737076
 10
15.7079719944
 20
7.5298600807
 10
14.5488187145
 20
9.072117131799998
 10
13.3032336339
 20
10.5555614139
 10
11.9774221947
 20
11.9728024823
 10
10.577989523
 20
13.3167797133
 10
9.111907521799999
 20
14.5807974798
 10
7.586480137999999
 20
15.7585585089
 10
6.009306974099999
 20
16.8441952545
 10
4.3882454273
 20
17.8322991288
 10
2.7313715449
 20
18.7179474482
 10
1.0469397891
 20
19.4967279571
 10
-0.6566580858
 20
20.1647608103
 10
-2.370934840799999
 20
20.7187179017
 10
-4.0873500354
 20
21.155839445
 10
-5.797352575499999
 20
21.4739477225
 10
-7.4924233144
 20
21.6714579349
 10
-9.164117494899999
 20
21.7473860963
 10
-10.8041068207
 20
21.7013539363
 10
-12.4042209475
 20
21.5335907848
 10
-13.9564881872
 20
21.2449324294
 10
-15.4531752226
 20
20.8368169516
 10
-16.886825634
 20
20.3112775621
 10
-18.2502970472
 20
19.6709324718
 10
-19.5367967163
 20
18.9189718475
 10
-20.7399153645
 20
18.0591419195
 10
-21.8536591154
 20
17.095726317
 10
-22.8724793536
 20
16.0335247282
 10
-23.7913003679
 20
14.877828988
 10
-24.6055446381
 20
13.6343967144
 10
-25.3111556404
 20
12.3094226244
 10
-25.9046180562
 20
10.9095076723
 10
-26.3829752856
 20
9.441626164
 10
-26.743844177
 20
7.913091011399999
 10
-26.9854268996
 20
6.3315172996
 10
-27.1065199005
 20
4.704784349299999
 10
-27.1065199005
 20
3.040996462399999
 10
-26.9854268996
 20
1.3484425462
 10
-26.743844177
 20
-0.3644451806
 10
-26.3829752856
 20
-2.089133197599999
 10
-25.9046180562
 20
-3.817029195899999
 10
-25.3111556404
 20
-5.5395248845
 10
-24.6055446381
 20
-7.248038876499999
 10
-23.7913003679
 20
-8.9340594411
 10
-22.8724793536
 20
-10.5891869088
 10
-21.8536591154
 20
-12.2051755177
 10
-20.7399153645
 20
-13.7739744939
 10
-19.5367967163
 20
-15.2877681597
 10
-18.2502970472
 20
-16.7390148714
 10
-16.886825634
 20
-18.1204845906
 10
-15.4531752226
 20
-19.425294905
 10
-13.9564881872
 20
-20.6469453149
 10
-12.4042209475
 20
-21.7793496196
 10
-10.8041068207
 20
-22.8168662379
 10
-9.164117494899999
 20
-23.754326314
 10
-7.4924233144
 20
-24.587059469
 10
-5.797352575499999
 20
-25.3109170683
 10
-4.0873500354
 20
-25.9222928897
 10
-2.370934840799999
 20
-26.4181410895
 10
-0.6566580858
 20
-26.7959913772
 10
1.0469397891
 20
-27.0539613214
 10
2.7313715449
 20
-27.1907657289
 10
4.3882454273
 20
-27.205723047
 10
6.009306974099999
 20
-27.0987587592
 10
7.586480137999999
 20
-26.8704057561
 10
9.111907521799999
 20
-26.5218016808
 10
10.577989523
 20
-26.0546832615
 10
11.9774221947
 20
-25.4713776585
 10
13.3032336339
 20
-24.774790871
 10
14.5488187145
 20
-23.9683932593
 10
15.7079719944
 20
-23.0562022559
 10
16.7749186302
 20
-22.0427623503
 10
17.7443431476
 20
-20.9331224492
 10
18.6114159222
 20
-19.7328107228
 10
19.3718172412
 20
-18.4478070637
 10
20.0217588234
 20
-17.0845132956
 10
20.5580026925
 20
-15.6497212793
 10
20.9778773086
 20
-14.1505790766
 10
21.2792908775
 20
-12.5945553384
 10
21.4607417719
 20
-10.9894020969
 10
21.5213260125
 20
-9.343116144599999
  0
LWPOLYLINE
  5
B5
330
23
100
AcDbEntity
 67
     1
  8
0
  6
Continuous
 62
     7
370
    25
100
AcDbPolyline
 90
       31
 70
   128
 43
0.0
 10
0.0741865619
 20
-33.5150987231
 10
0.0113749237
 20
-32.9188287816
 10
-0.174314821
 20
-32.3144769831
 10
-0.4747671392
 20
-31.728456401
 10
-0.876850823
 20
-31.1863789469
 10
-1.3629928859
 20
-30.7119360067
 10
-1.911946586999999
 20
-30.3258630136
 10
-2.499720015399999
 20
-30.0450332098
 10
-3.1006246518
 20
-29.8817202055
 10
-3.688398080199999
 20
-29.8430615625
 10
-4.2373517813
 20
-29.930746849
 10
-4.7234938442
 20
-30.1409437973
 10
-5.125577527899999
 20
-30.4644657922
 10
-5.426029846199999
 20
-30.8871733699
 10
-5.6117195908
 20
-31.3905921809
 10
-5.674531228999999
 20
-31.9527204077
 10
-5.6117195908
 20
-32.54899034920001
 10
-5.426029846199999
 20
-33.1533421477
 10
-5.125577527899999
 20
-33.7393627298
 10
-4.7234938442
 20
-34.2814401839
 10
-4.2373517813
 20
-34.7558831241
 10
-3.688398080199999
 20
-35.1419561172
 10
-3.1006246518
 20
-35.422785921
 10
-2.499720015399999
 20
-35.5860989253
 10
-1.911946586999999
 20
-35.6247575683
 10
-1.3629928859
 20
-35.5370722818
 10
-0.876850823
 20
-35.3268753335
 10
-0.4747671392
 20
-35.0033533386
 10
-0.174314821
 20
-34.58064576090001
 10
0.0113749237
 20
-34.07722694989999
 10
0.0741865619
 20
-33.5150987231
  0
LWPOLYLINE
  5
B6
330
23
100
AcDbEntity
 67
     1
  8
0
  6
Continuous
 62
     7
370
    25
100
AcDbPolyline
 90
       31
 70
   128
 43
0.0
 10
31.0288208206
 20
-11.9270495125
 10
30.9660091824
 20
-11.330779571
 10
30.7803194377
 20
-10.7264277724
 10
30.4798671195
 20
-10.1404071904
 10
30.0777834357
 20
-9.5983297363
 10
29.5916413729
 20
-9.1238867961
 10
29.0426876718
 20
-8.737813802899999
 10
28.4549142434
 20
-8.4569839992
 10
27.8540096069
 20
-8.293670994799999
 10
27.2662361785
 20
-8.255012351799999
 10
26.7172824774
 20
-8.3426976384
 10
26.2311404145
 20
-8.552894586699999
 10
25.8290567308
 20
-8.876416581499999
 10
25.5286044126
 20
-9.299124159199999
 10
25.3429146679
 20
-9.802542970299999
 10
25.2801030297
 20
-10.364671197
 10
25.3429146679
 20
-10.9609411385
 10
25.5286044126
 20
-11.5652929371
 10
25.8290567308
 20
-12.1513135192
 10
26.2311404145
 20
-12.6933909733
 10
26.7172824774
 20
-13.1678339134
 10
27.2662361785
 20
-13.5539069066
 10
27.8540096069
 20
-13.8347367103
 10
28.4549142434
 20
-13.9980497147
 10
29.0426876718
 20
-14.0367083577
 10
29.5916413729
 20
-13.9490230712
 10
30.0777834357
 20
-13.7388261228
 10
30.4798671195
 20
-13.415304128
 10
30.7803194377
 20
-12.9925965503
 10
30.9660091824
 20
-12.4891777392
 10
31.0288208206
 20
-11.9270495125
  0
LWPOLYLINE
  5
B7
330
23
100
AcDbEntity
 67
     1
  8
0
  6
Continuous
 62
     7
370
    25
100
AcDbPolyline
 90
       31
 70
   128
 43
0.0
 10
0.0741865619
 20
26.486612326
 10
0.0113749237
 20
27.0828822675
 10
-0.174314821
 20
27.6872340661
 10
-0.4747671392
 20
28.2732546482
 10
-0.876850823
 20
28.8153321022
 10
-1.3629928859
 20
29.2897750424
 10
-1.911946586999999
 20
29.6758480356
 10
-2.499720015399999
 20
29.9566778393
 10
-3.1006246518
 20
30.1199908437
 10
-3.688398080199999
 20
30.1586494867
 10
-4.2373517813
 20
30.0709642001
 10
-4.7234938442
 20
29.8607672518
 10
-5.125577527899999
 20
29.537245257
 10
-5.426029846199999
 20
29.1145376793
 10
-5.6117195908
 20
28.6111188682
 10
-5.674531228999999
 20
28.0489906415
 10
-5.6117195908
 20
27.4527207
 10
-5.426029846199999
 20
26.8483689014
 10
-5.125577527899999
 20
26.2623483193
 10
-4.7234938442
 20
25.7202708653
 10
-4.2373517813
 20
25.2458279251
 10
-3.688398080199999
 20
24.8597549319
 10
-3.1006246518
 20
24.5789251282
 10
-2.499720015399999
 20
24.4156121238
 10
-1.911946586999999
 20
24.3769534808
 10
-1.3629928859
 20
24.4646387674
 10
-0.876850823
 20
24.6748357157
 10
-0.4747671392
 20
24.9983577105
 10
-0.174314821
 20
25.4210652882
 10
0.0113749237
 20
25.9244840993
 10
0.0741865619
 20
26.486612326
  0
LWPOLYLINE
  5
B8
330
23
100
AcDbEntity
 67
     1
  8
0
  6
Continuous
 62
     7
370
    25
100
AcDbPolyline
 90
       31
 70
   128
 43
0.0
 10
-30.8804476968
 20
4.8985631154
 10
-30.9432593351
 20
5.494833056900001
 10
-31.1289490797
 20
6.099184855499999
 10
-31.4294013979
 20
6.685205437499999
 10
-31.8314850817
 20
7.227282891599999
 10
-32.3176271446
 20
7.701725831799999
 10
-32.8665808457
 20
8.0877988249
 10
-33.4543542741
 20
8.368628628699999
 10
-34.0552589105
 20
8.531941633099998
 10
-34.6430323389
 20
8.5706002761
 10
-35.19198604
 20
8.482914989500001
 10
-35.6781281029
 20
8.272718041199999
 10
-36.0802117866
 20
7.949196046399999
 10
-36.3806641049
 20
7.5264884686
 10
-36.5663538495
 20
7.023069657599999
 10
-36.6291654877
 20
6.4609414308
 10
-36.5663538495
 20
5.864671489299999
 10
-36.3806641049
 20
5.260319690799999
 10
-36.0802117866
 20
4.674299108699999
 10
-35.6781281029
 20
4.132221654599999
 10
-35.19198604
 20
3.6577787144
 10
-34.6430323389
 20
3.2717057213
 10
-34.0552589105
 20
2.9908759175
 10
-33.4543542741
 20
2.827562913199999
 10
-32.8665808457
 20
2.788904270199999
 10
-32.3176271446
 20
2.8765895567
 10
-31.8314850817
 20
3.086786505
 10
-31.4294013979
 20
3.4103084999
 10
-31.1289490797
 20
3.833016077599999
 10
-30.9432593351
 20
4.3364348887
 10
-30.8804476968
 20
4.8985631154
  0
LWPOLYLINE
  5
BB
330
23
100
AcDbEntity
 67
     1
  8
0
  6
Continuous
 62
     7
370
    25
100
AcDbPolyline
 90
       44
 70
   128
 43
0.0
 10
-20.5234671596
 20
18.2264856243
 10
-20.9911280343
 20
17.6108830288
 10
-21.8053723046
 20
16.3674507552
 10
-22.5109833069
 20
15.0424766652
 10
-23.1044457227
 20
13.6425617131
 10
-23.5828029521
 20
12.1746802048
 10
-23.9436718434
 20
10.6461450522
 10
-24.185254566
 20
9.064571340399998
 10
-24.306347567
 20
7.437838390199999
 10
-24.306347567
 20
5.7740505032
 10
-24.185254566
 20
4.0814965871
 10
-23.9436718434
 20
2.3686088602
 10
-23.5828029521
 20
0.6439208432
 10
-23.1044457227
 20
-1.0839751551
 10
-22.5109833069
 20
-2.8064708436
 10
-21.8053723046
 20
-4.514984835599999
 10
-20.9911280343
 20
-6.201005400299999
 10
-20.07230702
 20
-7.856132867999999
 10
-19.0534867819
 20
-9.472121476899999
 10
-17.939743031
 20
-11.0409204531
 10
-16.7366243827
 20
-12.5547141189
 10
-15.4501247136
 20
-14.0059608305
 10
-14.0866533004
 20
-15.3874305498
 10
-12.653002889
 20
-16.6922408641
 10
-11.1563158537
 20
-17.9138912741
 10
-9.604048613899999
 20
-19.0462955788
 10
-8.0039344871
 20
-20.083812197
 10
-6.3639451613
 20
-21.0212722731
 10
-4.692250980799999
 20
-21.8540054282
 10
-2.997180241899999
 20
-22.5778630275
 10
-1.287177701899999
 20
-23.1892388488
 10
0.4292374928
 20
-23.6850870487
 10
2.1435142478
 20
-24.0629373363
 10
3.8471121227
 20
-24.3209072805
 10
5.531543878499999
 20
-24.457711688
 10
7.1884177609
 20
-24.4726690062
 10
8.8094793076
 20
-24.3657047183
 10
10.3866524716
 20
-24.1373517152
 10
11.9120798554
 20
-23.78874764
 10
13.3781618566
 20
-23.3216292207
 10
14.7775945283
 20
-22.7383236177
 10
16.1034059674
 20
-22.0417368302
 10
17.3489910481
 20
-21.2353392185
 10
17.723294826
 20
-20.9595396651
  0
LINE
  5
C8
330
23
100
AcDbEntity
 67
     1
  8
0
  6
Continuous
 62
     7
370
    25
100
AcDbLine
 10
-51.2269480502
 20
47.81665106939999
 30
0.0
 11
-52.62703421699999
 21
46.450124049
 31
0.0
  0
LINE
  5
C9
330
23
100
AcDbEntity
 67
     1
  8
0
  6
Continuous
 62
     7
370
    25
100
AcDbLine
 10
45.15990799409999
 20
-53.7382681579
 30
0.0
 11
46.5599941609
 21
-52.3717411375
 31
0.0
  0
ARC
  5
CA
330
23
100
AcDbEntity
 67
     1
  8
0
  6
Continuous
 62
     7
370
    25
100
AcDbCircle
 10
-23.5543983964
 20
-22.9898149284
 30
0.0
 40
83.41256979343
100
AcDbArc
 50
15.9224663047
 51
72.6876009333
  0
ARC
  5
CB
330
23
100
AcDbEntity
 67
     1
  8
0
  6
Continuous
 62
     7
370
    25
100
AcDbCircle
 10
37.9710436217
 20
27.0418902822
 30
0.0
 40
8.58976615573815
100
AcDbArc
 50
173.4261285477
 51
275.1839386903
  0
ARC
  5
CC
330
23
100
AcDbEntity
 67
     1
  8
0
  6
Continuous
 62
     7
370
    25
100
AcDbCircle
 10
2.0118056753
 20
51.2507038042
 30
0.0
 40
8.58976615573815
100
AcDbArc
 50
173.4261285477
 51
275.1839386903
  0
ARC
  5
CD
330
23
100
AcDbEntity
 67
     1
  8
0
  6
Continuous
 62
     7
370
    25
100
AcDbCircle
 10
52.8658476717
 20
-11.8574549305
 30
0.0
 40
8.58976615573812
100
AcDbArc
 50
173.4261285477
 51
275.1839386903
  0
ARC
  5
CE
330
23
100
AcDbEntity
 67
     1
  8
0
  6
Continuous
 62
     7
370
    25
100
AcDbCircle
 10
23.0153230418
 20
16.36513160039999
 30
0.0
 40
4.046368658370049
100
AcDbArc
 50
195.0827208818
 51
253.5273463563
  0
ARC
  5
CF
330
23
100
AcDbEntity
 67
     1
  8
0
  6
Continuous
 62
     7
370
    25
100
AcDbCircle
 10
1.127091248299999
 20
31.1009311355
 30
0.0
 40
4.04636865837004
100
AcDbArc
 50
195.0827208818
 51
253.5273463563
  0
ARC
  5
D0
330
23
100
AcDbEntity
 67
     1
  8
0
  6
Continuous
 62
     7
370
    25
100
AcDbCircle
 10
32.081725507
 20
-7.312730702999999
 30
0.0
 40
4.046368658370083
100
AcDbArc
 50
195.0827208818
 51
253.5273463563
  0
ARC
  5
D1
330
23
100
AcDbEntity
 67
     1
  8
0
  6
Continuous
 62
     7
370
    25
100
AcDbCircle
 10
-33.9474322711
 20
46.5877910033
 30
0.0
 40
8.589766155738153
100
AcDbArc
 50
173.4261285477
 51
275.1839386903
  0
ARC
  5
D2
330
23
100
AcDbEntity
 67
     1
  8
0
  6
Continuous
 62
     7
370
    25
100
AcDbCircle
 10
-20.7611405452
 20
28.2626363871
 30
0.0
 40
4.046368658370063
100
AcDbArc
 50
195.0827208818
 51
253.5273463563
  0
ARC
  5
D3
330
23
100
AcDbEntity
 67
     1
  8
0
  6
Continuous
 62
     7
370
    25
100
AcDbCircle
 10
37.9710436217
 20
-42.6606229757
 30
0.0
 40
8.589766155738171
100
AcDbArc
 50
173.4261285477
 51
275.1839386903
  0
ARC
  5
D4
330
23
100
AcDbEntity
 67
     1
  8
0
  6
Continuous
 62
     7
370
    25
100
AcDbCircle
 10
23.0153230418
 20
-26.0624851653
 30
0.0
 40
4.046368658370061
100
AcDbArc
 50
195.0827208818
 51
253.5273463563
  0
ARC
  5
D5
330
23
100
AcDbEntity
 67
     1
  8
0
  6
Continuous
 62
     7
370
    25
100
AcDbCircle
 10
-29.8275430104
 20
9.5128819249
 30
0.0
 40
4.046368658370022
100
AcDbArc
 50
195.0827208818
 51
253.5273463563
  0
ARC
  5
D6
330
23
100
AcDbEntity
 67
     1
  8
0
  6
Continuous
 62
     7
370
    25
100
AcDbCircle
 10
-48.8422363212
 20
15.7846229582
 30
0.0
 40
8.589766155738191
100
AcDbArc
 50
173.4261285477
 51
275.1839386903
  0
ARC
  5
D7
330
23
100
AcDbEntity
 67
     1
  8
0
  6
Continuous
 62
     7
370
    25
100
AcDbCircle
 10
1.127091248299999
 20
-28.9007799136
 30
0.0
 40
4.046368658370011
100
AcDbArc
 50
195.0827208818
 51
253.5273463563
  0
ARC
  5
D8
330
23
100
AcDbEntity
 67
     1
  8
0
  6
Continuous
 62
     7
370
    25
100
AcDbCircle
 10
-20.7611405452
 20
-14.1649803785
 30
0.0
 40
4.046368658370016
100
AcDbArc
 50
195.0827208818
 51
253.5273463563
  0
ARC
  5
D9
330
23
100
AcDbEntity
 67
     1
  8
0
  6
Continuous
 62
     7
370
    25
100
AcDbCircle
 10
2.0118056753
 20
-47.32353577649999
 30
0.0
 40
8.589766155738153
100
AcDbArc
 50
173.4261285477
 51
275.1839386903
  0
ARC
  5
DA
330
23
100
AcDbEntity
 67
     1
  8
0
  6
Continuous
 62
     7
370
    25
100
AcDbCircle
 10
-33.9474322711
 20
-23.1147222545
 30
0.0
 40
8.589766155738157
100
AcDbArc
 50
173.4261285477
 51
275.1839386903
  0
VIEWPORT
  5
DD
330
23
100
AcDbEntity
 67
     1
  8
0
100
AcDbViewport
 10
0.0
 20
0.0
 30
0.0
 40
205.6
 41
156.0
 68
     0
 69
     1
 12
0.0
 22
0.0
 13
0.0
 23
0.0
 14
10.0
 24
10.0
 15
10.0
 25
10.0
 16
0.0
 26
0.0
 36
1.0
 17
0.0
 27
0.0
 37
0.0
 42
50.0
 43
0.0
 44
0.0
 45
142.8
 50
0.0
 51
0.0
 72
   100
 90
   557152
  1

281
     0
 71
     1
 74
     0
110
0.0
120
0.0
130
0.0
111
1.0
121
0.0
131
0.0
112
0.0
122
1.0
132
0.0
 79
     0
146
0.0
170
     0
 61
     5
348
103
292
     1
282
     1
141
0.0
142
0.0
 63
   250
421
  3355443
  0
ENDBLK
  5
25
330
23
100
AcDbEntity
 67
     1
  8
0
100
AcDbBlockEnd
  0
ENDSEC
  0
SECTION
  2
ENTITIES
  0
CIRCLE
  5
73
330
1F
100
AcDbEntity
  8
0
  6
Continuous
 62
     7
370
    25
100
AcDbCircle
 10
-40.6586399182
 20
40.6586399182
 30
0.0
 40
7.499999999999986
  0
CIRCLE
  5
74
330
1F
100
AcDbEntity
  8
0
  6
Continuous
 62
     7
370
    25
100
AcDbCircle
 10
40.6586399182
 20
40.6586399182
 30
0.0
 40
7.500000000000007
  0
CIRCLE
  5
75
330
1F
100
AcDbEntity
  8
0
  6
Continuous
 62
     7
370
    25
100
AcDbCircle
 10
-57.5
 20
0.0
 30
0.0
 40
7.500000000000007
  0
CIRCLE
  5
76
330
1F
100
AcDbEntity
  8
0
  6
Continuous
 62
     7
370
    25
100
AcDbCircle
 10
-40.6586399182
 20
-40.6586399182
 30
0.0
 40
7.499999999999978
  0
CIRCLE
  5
77
330
1F
100
AcDbEntity
  8
0
  6
Continuous
 62
     7
370
    25
100
AcDbCircle
 10
0.0
 20
-57.5
 30
0.0
 40
7.500000000000018
  0
CIRCLE
  5
78
330
1F
100
AcDbEntity
  8
0
  6
Continuous
 62
     7
370
    25
100
AcDbCircle
 10
0.0
 20
0.0
 30
0.0
 40
69.99999999999997
  0
CIRCLE
  5
7A
330
1F
100
AcDbEntity
  8
0
  6
Continuous
 62
     7
370
    25
100
AcDbCircle
 10
40.6586399182
 20
-40.6586399182
 30
0.0
 40
7.499999999999992
  0
CIRCLE
  5
7B
330
1F
100
AcDbEntity
  8
0
  6
Continuous
 62
     7
370
    25
100
AcDbCircle
 10
57.5
 20
0.0
 30
0.0
 40
7.5
  0
CIRCLE
  5
7C
330
1F
100
AcDbEntity
  8
0
  6
Continuous
 62
     7
370
    25
100
AcDbCircle
 10
0.0
 20
57.5
 30
0.0
 40
7.499999999999999
  0
CIRCLE
  5
7D
330
1F
100
AcDbEntity
  8
0
  6
Continuous
 62
     7
370
    25
100
AcDbCircle
 10
-24.7487373415
 20
-24.7487373415
 30
0.0
 40
3.249999999999993
  0
CIRCLE
  5
7E
330
1F
100
AcDbEntity
  8
0
  6
Continuous
 62
     7
370
    25
100
AcDbCircle
 10
-24.7487373415
 20
24.7487373415
 30
0.0
 40
3.250000000000003
  0
CIRCLE
  5
7F
330
1F
100
AcDbEntity
  8
0
  6
Continuous
 62
     7
370
    25
100
AcDbCircle
 10
24.7487373415
 20
24.7487373415
 30
0.0
 40
3.249999999999993
  0
CIRCLE
  5
80
330
1F
100
AcDbEntity
  8
0
  6
Continuous
 62
     7
370
    25
100
AcDbCircle
 10
24.7487373415
 20
-24.7487373415
 30
0.0
 40
3.249999999999993
  0
CIRCLE
  5
81
330
1F
100
AcDbEntity
  8
0
  6
Continuous
 62
     7
370
    25
100
AcDbCircle
 10
0.0
 20
-35.0
 30
0.0
 40
3.250000000000001
  0
CIRCLE
  5
82
330
1F
100
AcDbEntity
  8
0
  6
Continuous
 62
     7
370
    25
100
AcDbCircle
 10
35.0
 20
0.0
 30
0.0
 40
3.250000000000006
  0
CIRCLE
  5
83
330
1F
100
AcDbEntity
  8
0
  6
Continuous
 62
     7
370
    25
100
AcDbCircle
 10
0.0
 20
35.0
 30
0.0
 40
3.250000000000001
  0
CIRCLE
  5
84
330
1F
100
AcDbEntity
  8
0
  6
Continuous
 62
     7
370
    25
100
AcDbCircle
 10
-35.0
 20
0.0
 30
0.0
 40
3.25
  0
CIRCLE
  5
85
330
1F
100
AcDbEntity
  8
0
  6
Continuous
 62
     7
370
    25
100
AcDbCircle
 10
0.0
 20
0.0
 30
0.0
 40
27.5
  0
LINE
  5
94
330
1B
100
AcDbEntity
 67
     1
  8
0
  6
Continuous
 62
     7
370
    25
100
AcDbLine
 10
-5.0
 20
-70.0
 30
0.0
 11
-3.0
 21
-68.0
 31
0.0
  0
LINE
  5
95
330
1B
100
AcDbEntity
 67
     1
  8
0
  6
Continuous
 62
     7
370
    25
100
AcDbLine
 10
-3.0
 20
68.0
 30
0.0
 11
-5.0
 21
70.0
 31
0.0
  0
LINE
  5
96
330
1B
100
AcDbEntity
 67
     1
  8
0
  6
Continuous
 62
     7
370
    25
100
AcDbLine
 10
-5.0
 20
70.0
 30
0.0
 11
-8.0
 21
70.0
 31
0.0
  0
LINE
  5
97
330
1B
100
AcDbEntity
 67
     1
  8
0
  6
Continuous
 62
     7
370
    25
100
AcDbLine
 10
-8.0
 20
-70.0
 30
0.0
 11
-5.0
 21
-70.0
 31
0.0
  0
LINE
  5
98
330
1B
100
AcDbEntity
 67
     1
  8
0
  6
Continuous
 62
     7
370
    25
100
AcDbLine
 10
0.0
 20
66.5
 30
0.0
 11
-3.0
 21
66.5
 31
0.0
  0
LINE
  5
99
330
1B
100
AcDbEntity
 67
     1
  8
0
  6
Continuous
 62
     7
370
    25
100
AcDbLine
 10
-3.0
 20
-66.5
 30
0.0
 11
0.0
 21
-66.5
 31
0.0
  0
LINE
  5
9A
330
1B
100
AcDbEntity
 67
     1
  8
0
  6
Continuous
 62
     7
370
    25
100
AcDbLine
 10
-5.0
 20
-70.0
 30
0.0
 11
-5.0
 21
70.0
 31
0.0
  0
LINE
  5
9B
330
1B
100
AcDbEntity
 67
     1
  8
0
  6
Continuous
 62
     7
370
    25
100
AcDbLine
 10
-3.0
 20
68.0
 30
0.0
 11
-3.0
 21
-68.0
 31
0.0
  0
LINE
  5
9C
330
1B
100
AcDbEntity
 67
     1
  8
0
  6
Continuous
 62
     7
370
    25
100
AcDbLine
 10
-8.0
 20
-70.0
 30
0.0
 11
-8.0
 21
70.0
 31
0.0
  0
LINE
  5
9D
330
1B
100
AcDbEntity
 67
     1
  8
0
  6
Continuous
 62
     7
370
    25
100
AcDbLine
 10
0.0
 20
-66.5
 30
0.0
 11
0.0
 21
66.5
 31
0.0
  0
VIEWPORT
  5
DB
330
1B
100
AcDbEntity
 67
     1
  8
0
100
AcDbViewport
 10
0.0
 20
0.0
 30
0.0
 40
205.6
 41
156.0
 68
     1
 69
     1
 12
0.0
 22
0.0
 13
0.0
 23
0.0
 14
10.0
 24
10.0
 15
10.0
 25
10.0
 16
0.0
 26
0.0
 36
1.0
 17
0.0
 27
0.0
 37
0.0
 42
50.0
 43
0.0
 44
0.0
 45
142.8
 50
0.0
 51
0.0
 72
   100
 90
   557152
  1

281
     0
 71
     1
 74
     0
110
0.0
120
0.0
130
0.0
111
1.0
121
0.0
131
0.0
112
0.0
122
1.0
132
0.0
 79
     0
146
0.0
170
     0
 61
     5
348
103
292
     1
282
     1
141
0.0
142
0.0
 63
   250
421
  3355443
  0
ENDSEC
  0
SECTION
  2
OBJECTS
  0
DICTIONARY
  5
C
330
0
100
AcDbDictionary
281
     1
  3
ACAD_CIP_PREVIOUS_PRODUCT_INFO
350
121
  3
ACAD_COLOR
350
116
  3
ACAD_DETAILVIEWSTYLE
350
11D
  3
ACAD_GROUP
350
D
  3
ACAD_LAYOUT
350
1A
  3
ACAD_MATERIAL
350
E4
  3
ACAD_MLEADERSTYLE
350
119
  3
ACAD_MLINESTYLE
350
17
  3
ACAD_PLOTSETTINGS
350
19
  3
ACAD_PLOTSTYLENAME
350
E
  3
ACAD_RENDER_ACTIVE_RAPIDRT_SETTINGS
350
129
  3
ACAD_RENDER_RAPIDRT_SETTINGS
350
122
  3
ACAD_SCALELIST
350
47
  3
ACAD_SECTIONVIEWSTYLE
350
11B
  3
ACAD_TABLESTYLE
350
117
  3
ACAD_VISUALSTYLE
350
FD
  3
ACDB_RECOMPOSE_DATA
350
139
  3
AcDbVariableDictionary
350
12C
  0
DICTIONARY
  5
12A
330
10
100
AcDbDictionary
280
     1
281
     1
  3
ADSK_XREC_LAYER_RECONCILED
360
12B
  0
XRECORD
  5
121
102
{ACAD_REACTORS
330
C
102
}
330
C
100
AcDbXrecord
280
     1
300
ACD
300
2019
300
ACD_F_S
  0
DICTIONARY
  5
116
102
{ACAD_REACTORS
330
C
102
}
330
C
100
AcDbDictionary
281
     1
  0
DICTIONARY
  5
11D
102
{ACAD_REACTORS
330
C
102
}
330
C
100
AcDbDictionary
281
     1
  3
Metric50
350
11E
  0
DICTIONARY
  5
D
102
{ACAD_REACTORS
330
C
102
}
330
C
100
AcDbDictionary
281
     1
  0
DICTIONARY
  5
1A
102
{ACAD_REACTORS
330
C
102
}
330
C
100
AcDbDictionary
281
     1
  3
_Right
350
1E
  3
_Trimetric
350
26
  3
Model
350
22
  0
DICTIONARY
  5
E4
102
{ACAD_REACTORS
330
C
102
}
330
C
100
AcDbDictionary
281
     1
  3
ByBlock
350
ED
  3
ByLayer
350
E5
  3
Global
350
F5
  0
DICTIONARY
  5
119
102
{ACAD_REACTORS
330
C
102
}
330
C
100
AcDbDictionary
281
     1
  3
Standard
350
11A
  0
DICTIONARY
  5
17
102
{ACAD_REACTORS
330
C
102
}
330
C
100
AcDbDictionary
281
     1
  3
Standard
350
18
  0
DICTIONARY
  5
19
102
{ACAD_REACTORS
330
C
102
}
330
C
100
AcDbDictionary
281
     1
  0
ACDBDICTIONARYWDFLT
  5
E
102
{ACAD_REACTORS
330
C
102
}
330
C
100
AcDbDictionary
281
     1
  3
Normal
350
F
100
AcDbDictionaryWithDefault
340
F
  0
RAPIDRTRENDERSETTINGS
  5
129
102
{ACAD_REACTORS
330
C
102
}
330
C
100
AcDbRenderSettings
 90
        2
  1
Medium
290
     1
290
     0
290
     1
290
     1
  1

  1
Applies 5 rendering levels
 90
        0
100
AcDbRapidRTRenderSettings
 90
        3
 70
     0
 90
        5
 90
        1
 70
     1
 70
     2
 40
3.0
 40
3.0
290
     1
  0
DICTIONARY
  5
122
102
{ACAD_REACTORS
330
C
102
}
330
C
100
AcDbDictionary
281
     1
  3
Coffee-Break Quality
350
126
  3
High
350
125
  3
Low
350
123
  3
Lunch Quality
350
127
  3
Medium
350
124
  3
Overnight Quality
350
128
  0
DICTIONARY
  5
47
102
{ACAD_REACTORS
330
C
102
}
330
C
100
AcDbDictionary
281
     1
  3
A0
350
48
  3
A1
350
49
  3
A2
350
4A
  3
A3
350
4B
  3
A4
350
4C
  3
A5
350
4D
  3
A6
350
4E
  3
A7
350
4F
  3
A8
350
50
  3
A9
350
51
  3
B0
350
52
  3
B1
350
53
  3
B2
350
54
  3
B3
350
55
  3
B4
350
56
  3
B5
350
57
  3
B6
350
58
  3
B7
350
59
  3
B8
350
5A
  3
B9
350
5B
  3
C0
350
5C
  3
C1
350
5D
  3
C2
350
5E
  3
C3
350
5F
  3
C4
350
60
  3
C5
350
61
  3
C6
350
62
  3
C7
350
63
  3
C8
350
64
  3
C9
350
65
  3
D0
350
66
  3
D1
350
67
  3
D2
350
68
  0
DICTIONARY
  5
11B
102
{ACAD_REACTORS
330
C
102
}
330
C
100
AcDbDictionary
281
     1
  3
Metric50
350
11C
  0
DICTIONARY
  5
117
102
{ACAD_REACTORS
330
C
102
}
330
C
100
AcDbDictionary
281
     1
  3
Standard
350
118
  0
DICTIONARY
  5
FD
102
{ACAD_REACTORS
330
C
102
}
330
C
100
AcDbDictionary
281
     1
  3
2dWireframe
350
103
  3
Basic
350
102
  3
Brighten
350
109
  3
ColorChange
350
10D
  3
Conceptual
350
106
  3
Dim
350
108
  3
EdgeColorOff
350
115
  3
Facepattern
350
10C
  3
Flat
350
FE
  3
FlatWithEdges
350
FF
  3
Gouraud
350
100
  3
GouraudWithEdges
350
101
  3
Hidden
350
105
  3
JitterOff
350
113
  3
Linepattern
350
10B
  3
OverhangOff
350
114
  3
Realistic
350
107
  3
Shaded
350
112
  3
Shaded with edges
350
111
  3
Shades of Gray
350
10E
  3
Sketchy
350
10F
  3
Thicken
350
10A
  3
Wireframe
350
104
  3
X-Ray
350
110
  0
XRECORD
  5
139
102
{ACAD_REACTORS
330
C
102
}
330
C
100
AcDbXrecord
280
     1
 90
        1
330
118
  0
DICTIONARY
  5
12C
102
{ACAD_REACTORS
330
C
102
}
330
C
100
AcDbDictionary
281
     1
  3
CANNOSCALE
350
132
  3
CMLEADERSTYLE
350
12E
  3
CTABLESTYLE
350
12D
  3
CVIEWDETAILSTYLE
350
12F
  3
CVIEWSECTIONSTYLE
350
130
  3
LAYEREVAL
350
134
  3
LAYERNOTIFY
350
135
  3
LIGHTINGUNITS
350
133
  3
MSLTSCALE
350
131
  0
XRECORD
  5
12B
102
{ACAD_REACTORS
330
12A
102
}
330
12A
100
AcDbXrecord
280
     1
290
     1
  0
ACDBDETAILVIEWSTYLE
  5
11E
102
{ACAD_REACTORS
330
11D
102
}
330
11D
100
AcDbModelDocViewStyle
 70
     0
  3
Metric50
290
     0
300
Metric50
 90
        0
100
AcDbDetailViewStyle
 70
     0
 71
     0
 90
        3
 71
     1
340
11
 62
   256
 40
5.0
340
0
 62
   256
 40
5.0
300

 40
0.0
280
     1
 71
     2
340
16
 90
       25
 62
   256
 71
     3
340
11
 62
   256
 40
5.0
 90
        0
 40
15.0
 90
        1
300
%<\AcVar ViewDetailId>% (%<\AcVar ViewScale \f "%sn">%)
 71
     4
340
16
 90
       25
 62
   256
340
16
 90
       25
 62
   256
280
     0
  0
LAYOUT
  5
1E
102
{ACAD_REACTORS
330
1A
102
}
330
1A
100
AcDbPlotSettings
  1

  2
none_device
  4
ISO_A4_(210.00_x_297.00_MM)
  6

 40
7.5
 41
20.0
 42
7.5
 43
20.0
 44
210.0
 45
297.0
 46
0.0
 47
0.0
 48
0.0
 49
0.0
140
0.0
141
0.0
142
1.0
143
0.7179487179000001
 70
   688
 72
     1
 73
     1
 74
     1
  7

 75
     0
147
1.392857142899999
 76
     0
 77
     2
 78
   300
148
8.0
149
70.0
100
AcDbLayout
  1
_Right
 70
     1
 71
     1
 10
-22.358974359
 20
-75.38461538459999
 11
190.8717948718
 21
75.38461538459999
 12
0.0
 22
0.0
 32
0.0
 14
-8.0
 24
-70.0
 34
0.0
 15
0.0
 25
70.0
 35
0.0
146
0.0
 13
0.0
 23
0.0
 33
0.0
 16
1.0
 26
0.0
 36
0.0
 17
0.0
 27
1.0
 37
0.0
 76
     0
330
1B
331
DB
  0
LAYOUT
  5
26
102
{ACAD_REACTORS
330
1A
102
}
330
1A
100
AcDbPlotSettings
  1

  2
none_device
  4
ISO_A4_(210.00_x_297.00_MM)
  6

 40
7.5
 41
20.0
 42
7.5
 43
20.0
 44
210.0
 45
297.0
 46
0.0
 47
0.0
 48
0.0
 49
0.0
140
0.0
141
0.0
142
1.0
143
0.7179487179000001
 70
   688
 72
     1
 73
     1
 74
     1
  7

 75
     0
147
1.392857142899999
 76
     0
 77
     2
 78
   300
148
8.0
149
70.0
100
AcDbLayout
  1
_Trimetric
 70
     1
 71
     2
 10
0.0
 20
0.0
 11
0.0
 21
0.0
 12
0.0
 22
0.0
 32
0.0
 14
0.0
 24
0.0
 34
0.0
 15
0.0
 25
0.0
 35
0.0
146
0.0
 13
0.0
 23
0.0
 33
0.0
 16
1.0
 26
0.0
 36
0.0
 17
0.0
 27
1.0
 37
0.0
 76
     0
330
23
331
DD
  0
LAYOUT
  5
22
102
{ACAD_REACTORS
330
1A
102
}
330
1A
100
AcDbPlotSettings
  1

  2
none_device
  4
ANSI_A_(11.00_x_8.50_Inches)
  6

 40
6.349999999999999
 41
19.05
 42
6.350005079999999
 43
19.05000254
 44
279.4
 45
215.9
 46
133.34999746
 47
88.89999872999998
 48
0.0
 49
0.0
140
0.0
141
0.0
142
0.0601071429
143
1.0
 70
  1696
 72
     0
 73
     0
 74
     0
  7

 75
     0
147
0.0179189148
 76
     0
 77
     2
 78
   300
148
-1300.4909072572
149
0.0
100
AcDbLayout
  1
Model
 70
     1
 71
     0
 10
0.0
 20
0.0
 11
420.0
 21
297.0
 12
0.0
 22
0.0
 32
0.0
 14
-70.0
 24
-70.0
 34
0.0
 15
70.0
 25
70.0
 35
0.0
146
0.0
 13
0.0
 23
0.0
 33
0.0
 16
1.0
 26
0.0
 36
0.0
 17
0.0
 27
1.0
 37
0.0
 76
     0
330
1F
331
29
  0
MATERIAL
  5
ED
102
{ACAD_XDICTIONARY
360
EE
102
}
102
{ACAD_REACTORS
330
E4
102
}
330
E4
100
AcDbMaterial
  1
ByBlock
 72
     0
 43
0.0008202099737533
 43
0.0
 43
0.0
 43
0.0
 43
0.0
 43
0.0008202099737533
 43
0.0
 43
0.0
 43
0.0
 43
0.0
 43
1.0
 43
0.0
 43
0.0
 43
0.0
 43
0.0
 43
1.0
 77
     0
 47
0.0008202099737533
 47
0.0
 47
0.0
 47
0.0
 47
0.0
 47
0.0008202099737533
 47
0.0
 47
0.0
 47
0.0
 47
0.0
 47
1.0
 47
0.0
 47
0.0
 47
0.0
 47
0.0
 47
1.0
171
     0
 49
0.0008202099737533
 49
0.0
 49
0.0
 49
0.0
 49
0.0
 49
0.0008202099737533
 49
0.0
 49
0.0
 49
0.0
 49
0.0
 49
1.0
 49
0.0
 49
0.0
 49
0.0
 49
0.0
 49
1.0
175
     0
142
0.0008202099737533
142
0.0
142
0.0
142
0.0
142
0.0
142
0.0008202099737533
142
0.0
142
0.0
142
0.0
142
0.0
142
1.0
142
0.0
142
0.0
142
0.0
142
0.0
142
1.0
179
     0
144
0.0008202099737533
144
0.0
144
0.0
144
0.0
144
0.0
144
0.0008202099737533
144
0.0
144
0.0
144
0.0
144
0.0
144
1.0
144
0.0
144
0.0
144
0.0
144
0.0
144
1.0
147
0.0008202099737533
147
0.0
147
0.0
147
0.0
147
0.0
147
0.0008202099737533
147
0.0
147
0.0
147
0.0
147
0.0
147
1.0
147
0.0
147
0.0
147
0.0
147
0.0
147
1.0
  0
MATERIAL
  5
E5
102
{ACAD_XDICTIONARY
360
E6
102
}
102
{ACAD_REACTORS
330
E4
102
}
330
E4
100
AcDbMaterial
  1
ByLayer
 72
     0
 43
0.0008202099737533
 43
0.0
 43
0.0
 43
0.0
 43
0.0
 43
0.0008202099737533
 43
0.0
 43
0.0
 43
0.0
 43
0.0
 43
1.0
 43
0.0
 43
0.0
 43
0.0
 43
0.0
 43
1.0
 77
     0
 47
0.0008202099737533
 47
0.0
 47
0.0
 47
0.0
 47
0.0
 47
0.0008202099737533
 47
0.0
 47
0.0
 47
0.0
 47
0.0
 47
1.0
 47
0.0
 47
0.0
 47
0.0
 47
0.0
 47
1.0
171
     0
 49
0.0008202099737533
 49
0.0
 49
0.0
 49
0.0
 49
0.0
 49
0.0008202099737533
 49
0.0
 49
0.0
 49
0.0
 49
0.0
 49
1.0
 49
0.0
 49
0.0
 49
0.0
 49
0.0
 49
1.0
175
     0
142
0.0008202099737533
142
0.0
142
0.0
142
0.0
142
0.0
142
0.0008202099737533
142
0.0
142
0.0
142
0.0
142
0.0
142
1.0
142
0.0
142
0.0
142
0.0
142
0.0
142
1.0
179
     0
144
0.0008202099737533
144
0.0
144
0.0
144
0.0
144
0.0
144
0.0008202099737533
144
0.0
144
0.0
144
0.0
144
0.0
144
1.0
144
0.0
144
0.0
144
0.0
144
0.0
144
1.0
147
0.0008202099737533
147
0.0
147
0.0
147
0.0
147
0.0
147
0.0008202099737533
147
0.0
147
0.0
147
0.0
147
0.0
147
1.0
147
0.0
147
0.0
147
0.0
147
0.0
147
1.0
  0
MATERIAL
  5
F5
102
{ACAD_XDICTIONARY
360
F6
102
}
102
{ACAD_REACTORS
330
E4
102
}
330
E4
100
AcDbMaterial
  1
Global
 72
     0
 43
0.0008202099737533
 43
0.0
 43
0.0
 43
0.0
 43
0.0
 43
0.0008202099737533
 43
0.0
 43
0.0
 43
0.0
 43
0.0
 43
1.0
 43
0.0
 43
0.0
 43
0.0
 43
0.0
 43
1.0
 77
     0
 47
0.0008202099737533
 47
0.0
 47
0.0
 47
0.0
 47
0.0
 47
0.0008202099737533
 47
0.0
 47
0.0
 47
0.0
 47
0.0
 47
1.0
 47
0.0
 47
0.0
 47
0.0
 47
0.0
 47
1.0
171
     0
 49
0.0008202099737533
 49
0.0
 49
0.0
 49
0.0
 49
0.0
 49
0.0008202099737533
 49
0.0
 49
0.0
 49
0.0
 49
0.0
 49
1.0
 49
0.0
 49
0.0
 49
0.0
 49
0.0
 49
1.0
175
     0
142
0.0008202099737533
142
0.0
142
0.0
142
0.0
142
0.0
142
0.0008202099737533
142
0.0
142
0.0
142
0.0
142
0.0
142
1.0
142
0.0
142
0.0
142
0.0
142
0.0
142
1.0
179
     0
144
0.0008202099737533
144
0.0
144
0.0
144
0.0
144
0.0
144
0.0008202099737533
144
0.0
144
0.0
144
0.0
144
0.0
144
1.0
144
0.0
144
0.0
144
0.0
144
0.0
144
1.0
147
0.0008202099737533
147
0.0
147
0.0
147
0.0
147
0.0
147
0.0008202099737533
147
0.0
147
0.0
147
0.0
147
0.0
147
1.0
147
0.0
147
0.0
147
0.0
147
0.0
147
1.0
  0
MLEADERSTYLE
  5
11A
102
{ACAD_REACTORS
330
119
102
}
330
119
100
AcDbMLeaderStyle
179
     2
170
     2
171
     1
172
     0
 90
        2
 40
0.0
 41
0.0
173
     1
 91
-1056964608
340
14
 92
       -2
290
     1
 42
2.0
291
     1
 43
0.36
  3
Standard
 44
4.0
300

342
11
174
     1
178
     6
175
     1
176
     0
 93
-1056964608
 45
4.0
292
     0
297
     0
 46
4.0
 94
-1056964608
 47
1.0
 49
1.0
140
1.0
293
     1
141
0.0
294
     1
177
     0
142
1.0
295
     0
296
     0
143
0.125
271
     0
272
     9
273
     9
298
     0
  0
MLINESTYLE
  5
18
102
{ACAD_REACTORS
330
17
102
}
330
17
100
AcDbMlineStyle
  2
STANDARD
 70
     0
  3

 62
   256
 51
90.0
 52
90.0
 71
     2
 49
0.5
 62
   256
  6
BYLAYER
 49
-0.5
 62
   256
  6
BYLAYER
  0
ACDBPLACEHOLDER
  5
F
102
{ACAD_REACTORS
330
E
102
}
330
E
  0
RAPIDRTRENDERSETTINGS
  5
126
102
{ACAD_REACTORS
330
122
102
}
330
122
100
AcDbRenderSettings
 90
        2
  1
Coffee-Break Quality
290
     1
290
     0
290
     1
290
     1
  1

  1
Renders for 10 minutes
 90
        3
100
AcDbRapidRTRenderSettings
 90
        3
 70
     1
 90
        1
 90
       10
 70
     1
 70
     2
 40
3.0
 40
3.0
290
     1
  0
RAPIDRTRENDERSETTINGS
  5
125
102
{ACAD_REACTORS
330
122
102
}
330
122
100
AcDbRenderSettings
 90
        2
  1
High
290
     1
290
     0
290
     1
290
     1
  1

  1
Applies 10 rendering levels
 90
        2
100
AcDbRapidRTRenderSettings
 90
        3
 70
     0
 90
       10
 90
        1
 70
     2
 70
     2
 40
3.0
 40
3.0
290
     1
  0
RAPIDRTRENDERSETTINGS
  5
123
102
{ACAD_REACTORS
330
122
102
}
330
122
100
AcDbRenderSettings
 90
        2
  1
Low
290
     1
290
     0
290
     1
290
     1
  1

  1
Applies 1 rendering level
 90
        0
100
AcDbRapidRTRenderSettings
 90
        3
 70
     0
 90
        1
 90
        1
 70
     0
 70
     2
 40
3.0
 40
3.0
290
     1
  0
RAPIDRTRENDERSETTINGS
  5
127
102
{ACAD_REACTORS
330
122
102
}
330
122
100
AcDbRenderSettings
 90
        2
  1
Lunch Quality
290
     1
290
     0
290
     1
290
     1
  1

  1
Renders for 60 minutes
 90
        4
100
AcDbRapidRTRenderSettings
 90
        3
 70
     1
 90
        1
 90
       60
 70
     2
 70
     2
 40
3.0
 40
3.0
290
     1
  0
RAPIDRTRENDERSETTINGS
  5
124
102
{ACAD_REACTORS
330
122
102
}
330
122
100
AcDbRenderSettings
 90
        2
  1
Medium
290
     1
290
     0
290
     1
290
     1
  1

  1
Applies 5 rendering levels
 90
        1
100
AcDbRapidRTRenderSettings
 90
        3
 70
     0
 90
        5
 90
        1
 70
     1
 70
     2
 40
3.0
 40
3.0
290
     1
  0
RAPIDRTRENDERSETTINGS
  5
128
102
{ACAD_REACTORS
330
122
102
}
330
122
100
AcDbRenderSettings
 90
        2
  1
Overnight Quality
290
     1
290
     0
290
     1
290
     1
  1

  1
Renders for 12 hours
 90
        5
100
AcDbRapidRTRenderSettings
 90
        3
 70
     1
 90
        1
 90
      720
 70
     2
 70
     2
 40
3.0
 40
3.0
290
     1
  0
SCALE
  5
48
102
{ACAD_REACTORS
330
47
102
}
330
47
100
AcDbScale
 70
     0
300
1:1
140
1.0
141
1.0
290
     1
  0
SCALE
  5
49
102
{ACAD_REACTORS
330
47
102
}
330
47
100
AcDbScale
 70
     0
300
1:2
140
1.0
141
2.0
290
     0
  0
SCALE
  5
4A
102
{ACAD_REACTORS
330
47
102
}
330
47
100
AcDbScale
 70
     0
300
1:4
140
1.0
141
4.0
290
     0
  0
SCALE
  5
4B
102
{ACAD_REACTORS
330
47
102
}
330
47
100
AcDbScale
 70
     0
300
1:5
140
1.0
141
5.0
290
     0
  0
SCALE
  5
4C
102
{ACAD_REACTORS
330
47
102
}
330
47
100
AcDbScale
 70
     0
300
1:8
140
1.0
141
8.0
290
     0
  0
SCALE
  5
4D
102
{ACAD_REACTORS
330
47
102
}
330
47
100
AcDbScale
 70
     0
300
1:10
140
1.0
141
10.0
290
     0
  0
SCALE
  5
4E
102
{ACAD_REACTORS
330
47
102
}
330
47
100
AcDbScale
 70
     0
300
1:16
140
1.0
141
16.0
290
     0
  0
SCALE
  5
4F
102
{ACAD_REACTORS
330
47
102
}
330
47
100
AcDbScale
 70
     0
300
1:20
140
1.0
141
20.0
290
     0
  0
SCALE
  5
50
102
{ACAD_REACTORS
330
47
102
}
330
47
100
AcDbScale
 70
     0
300
1:30
140
1.0
141
30.0
290
     0
  0
SCALE
  5
51
102
{ACAD_REACTORS
330
47
102
}
330
47
100
AcDbScale
 70
     0
300
1:40
140
1.0
141
40.0
290
     0
  0
SCALE
  5
52
102
{ACAD_REACTORS
330
47
102
}
330
47
100
AcDbScale
 70
     0
300
1:50
140
1.0
141
50.0
290
     0
  0
SCALE
  5
53
102
{ACAD_REACTORS
330
47
102
}
330
47
100
AcDbScale
 70
     0
300
1:100
140
1.0
141
100.0
290
     0
  0
SCALE
  5
54
102
{ACAD_REACTORS
330
47
102
}
330
47
100
AcDbScale
 70
     0
300
2:1
140
2.0
141
1.0
290
     0
  0
SCALE
  5
55
102
{ACAD_REACTORS
330
47
102
}
330
47
100
AcDbScale
 70
     0
300
4:1
140
4.0
141
1.0
290
     0
  0
SCALE
  5
56
102
{ACAD_REACTORS
330
47
102
}
330
47
100
AcDbScale
 70
     0
300
8:1
140
8.0
141
1.0
290
     0
  0
SCALE
  5
57
102
{ACAD_REACTORS
330
47
102
}
330
47
100
AcDbScale
 70
     0
300
10:1
140
10.0
141
1.0
290
     0
  0
SCALE
  5
58
102
{ACAD_REACTORS
330
47
102
}
330
47
100
AcDbScale
 70
     0
300
100:1
140
100.0
141
1.0
290
     0
  0
SCALE
  5
59
102
{ACAD_REACTORS
330
47
102
}
330
47
100
AcDbScale
 70
     0
300
1/128" = 1'-0"
140
0.0078125
141
12.0
290
     0
  0
SCALE
  5
5A
102
{ACAD_REACTORS
330
47
102
}
330
47
100
AcDbScale
 70
     0
300
1/64" = 1'-0"
140
0.015625
141
12.0
290
     0
  0
SCALE
  5
5B
102
{ACAD_REACTORS
330
47
102
}
330
47
100
AcDbScale
 70
     0
300
1/32" = 1'-0"
140
0.03125
141
12.0
290
     0
  0
SCALE
  5
5C
102
{ACAD_REACTORS
330
47
102
}
330
47
100
AcDbScale
 70
     0
300
1/16" = 1'-0"
140
0.0625
141
12.0
290
     0
  0
SCALE
  5
5D
102
{ACAD_REACTORS
330
47
102
}
330
47
100
AcDbScale
 70
     0
300
3/32" = 1'-0"
140
0.09375
141
12.0
290
     0
  0
SCALE
  5
5E
102
{ACAD_REACTORS
330
47
102
}
330
47
100
AcDbScale
 70
     0
300
1/8" = 1'-0"
140
0.125
141
12.0
290
     0
  0
SCALE
  5
5F
102
{ACAD_REACTORS
330
47
102
}
330
47
100
AcDbScale
 70
     0
300
3/16" = 1'-0"
140
0.1875
141
12.0
290
     0
  0
SCALE
  5
60
102
{ACAD_REACTORS
330
47
102
}
330
47
100
AcDbScale
 70
     0
300
1/4" = 1'-0"
140
0.25
141
12.0
290
     0
  0
SCALE
  5
61
102
{ACAD_REACTORS
330
47
102
}
330
47
100
AcDbScale
 70
     0
300
3/8" = 1'-0"
140
0.375
141
12.0
290
     0
  0
SCALE
  5
62
102
{ACAD_REACTORS
330
47
102
}
330
47
100
AcDbScale
 70
     0
300
1/2" = 1'-0"
140
0.5
141
12.0
290
     0
  0
SCALE
  5
63
102
{ACAD_REACTORS
330
47
102
}
330
47
100
AcDbScale
 70
     0
300
3/4" = 1'-0"
140
0.75
141
12.0
290
     0
  0
SCALE
  5
64
102
{ACAD_REACTORS
330
47
102
}
330
47
100
AcDbScale
 70
     0
300
1" = 1'-0"
140
1.0
141
12.0
290
     0
  0
SCALE
  5
65
102
{ACAD_REACTORS
330
47
102
}
330
47
100
AcDbScale
 70
     0
300
1-1/2" = 1'-0"
140
1.5
141
12.0
290
     0
  0
SCALE
  5
66
102
{ACAD_REACTORS
330
47
102
}
330
47
100
AcDbScale
 70
     0
300
3" = 1'-0"
140
3.0
141
12.0
290
     0
  0
SCALE
  5
67
102
{ACAD_REACTORS
330
47
102
}
330
47
100
AcDbScale
 70
     0
300
6" = 1'-0"
140
6.0
141
12.0
290
     0
  0
SCALE
  5
68
102
{ACAD_REACTORS
330
47
102
}
330
47
100
AcDbScale
 70
     0
300
1'-0" = 1'-0"
140
12.0
141
12.0
290
     0
  0
ACDBSECTIONVIEWSTYLE
  5
11C
102
{ACAD_REACTORS
330
11B
102
}
330
11B
100
AcDbModelDocViewStyle
 70
     0
  3
Metric50
290
     0
300
Metric50
 90
        0
100
AcDbSectionViewStyle
 70
     0
 71
     0
 90
      102
 71
     1
340
11
 62
   256
 40
5.0
340
0
340
0
 62
   256
 40
5.0
300
I, O, Q, S, X, Z
 40
10.0
 90
        0
 40
2.5
 90
        0
 71
     2
340
16
 90
       25
 62
   256
340
16
 90
       50
 62
   256
 40
5.0
 40
2.5
 40
5.0
 71
     3
340
11
 62
   256
 40
5.0
 90
        0
 40
15.0
 90
        1
300
%<\AcVar ViewSectionStartId>%-%<\AcVar ViewSectionEndId>% (%<\AcVar ViewScale \f "%sn">%)
 71
     4
 62
   256
 62
   257
300
ANSI31
 40
1.0
 90
        0
290
     0
290
     0
 90
        6
 40
0.0
 40
1.570796326794896
 40
0.2617993877991494
 40
1.308996938995747
 40
-0.2617993877991494
 40
1.832595714594046
  0
TABLESTYLE
  5
118
102
{ACAD_XDICTIONARY
360
137
102
}
102
{ACAD_REACTORS
330
117
102
}
330
117
100
AcDbTableStyle
280
     0
  3
Standard
 70
     0
 71
     0
 40
1.5
 41
1.5
280
     0
281
     0
  7
Standard
140
4.5
170
     2
 62
     0
 63
     7
283
     0
 90
      512
 91
        0
  1

274
    -2
284
     1
 64
     0
275
    -2
285
     1
 65
     0
276
    -2
286
     1
 66
     0
277
    -2
287
     1
 67
     0
278
    -2
288
     1
 68
     0
279
    -2
289
     1
 69
     0
  7
Standard
140
6.0
170
     5
 62
     0
 63
     7
283
     0
 90
      512
 91
        0
  1

274
    -2
284
     1
 64
     0
275
    -2
285
     1
 65
     0
276
    -2
286
     1
 66
     0
277
    -2
287
     1
 67
     0
278
    -2
288
     1
 68
     0
279
    -2
289
     1
 69
     0
  7
Standard
140
4.5
170
     5
 62
     0
 63
     7
283
     0
 90
      512
 91
        0
  1

274
    -2
284
     1
 64
     0
275
    -2
285
     1
 65
     0
276
    -2
286
     1
 66
     0
277
    -2
287
     1
 67
     0
278
    -2
288
     1
 68
     0
279
    -2
289
     1
 69
     0
  0
VISUALSTYLE
  5
103
102
{ACAD_REACTORS
330
FD
102
}
330
FD
100
AcDbVisualStyle
  2
2dWireframe
 70
     4
177
     3
291
     0
 70
    58
 90
        0
176
     1
 90
        2
176
     1
 90
        0
176
     1
 90
        0
176
     1
 40
0.6
176
     1
 40
30.0
176
     1
 62
     7
420
 16777215
176
     1
 90
        1
176
     1
 90
        4
176
     1
 62
     7
176
     1
 62
   257
176
     1
 90
        1
176
     1
 90
        1
176
     1
 40
1.0
176
     1
 90
        0
176
     1
 62
   257
176
     1
 40
1.0
176
     1
 90
        1
176
     1
 90
        6
176
     1
 90
        2
176
     1
 62
     7
176
     1
 90
        5
176
     1
 90
        0
176
     1
 90
        0
176
     1
290
     0
176
     1
 90
        1
176
     1
 40
0.0
176
     1
 90
        0
176
     1
290
     1
176
     1
290
     1
176
     1
290
     0
176
     1
290
     0
176
     1
290
     0
176
     1
290
     0
176
     1
290
     0
176
     1
290
     0
176
     1
290
     0
176
     1
 90
       50
176
     1
 40
0.0
176
     1
 40
1.0
176
     1
 90
        0
176
     1
 62
    18
420
        0
176
     1
 90
       50
176
     1
 90
        3
176
     1
 62
     5
420
      255
176
     1
290
     0
176
     1
 90
       50
176
     1
 90
       50
176
     1
 90
       50
176
     1
290
     0
176
     1
 90
       50
176
     1
 62
   256
176
     0
 40
1.0
176
     0
 90
        2
176
     1
  1
strokes_ogs.tif
176
     1
290
     0
176
     1
 40
1.0
176
     1
 40
1.0
176
     1
  0
VISUALSTYLE
  5
102
102
{ACAD_REACTORS
330
FD
102
}
330
FD
100
AcDbVisualStyle
  2
Basic
 70
     7
177
     3
291
     1
 70
    58
 90
        1
176
     1
 90
        0
176
     1
 90
        1
176
     1
 90
        0
176
     1
 40
0.6
176
     1
 40
30.0
176
     1
 62
     7
420
 16777215
176
     1
 90
        0
176
     1
 90
        4
176
     1
 62
     7
176
     1
 62
   257
176
     1
 90
        1
176
     1
 90
        1
176
     1
 40
1.0
176
     1
 90
        8
176
     1
 62
     7
176
     1
 40
1.0
176
     1
 90
        1
176
     1
 90
        6
176
     1
 90
        2
176
     1
 62
     7
176
     1
 90
        5
176
     1
 90
        0
176
     1
 90
        0
176
     1
290
     0
176
     1
 90
        1
176
     1
 40
0.0
176
     1
 90
        0
176
     1
290
     0
176
     1
290
     1
176
     1
290
     1
176
     1
290
     0
176
     1
290
     0
176
     1
290
     0
176
     1
290
     0
176
     1
290
     0
176
     1
290
     0
176
     1
 90
       50
176
     1
 40
0.0
176
     1
 40
1.0
176
     1
 90
        0
176
     1
 62
    18
420
        0
176
     1
 90
       50
176
     1
 90
        3
176
     1
 62
     5
420
      255
176
     1
290
     0
176
     1
 90
       50
176
     1
 90
       50
176
     1
 90
       50
176
     1
290
     0
176
     1
 90
       50
176
     1
 62
   256
176
     0
 40
1.0
176
     0
 90
        2
176
     1
  1
strokes_ogs.tif
176
     1
290
     0
176
     1
 40
1.0
176
     1
 40
1.0
176
     1
  0
VISUALSTYLE
  5
109
102
{ACAD_REACTORS
330
FD
102
}
330
FD
100
AcDbVisualStyle
  2
Brighten
 70
    12
177
     3
291
     1
 70
    58
 90
        2
176
     1
 90
        2
176
     1
 90
        0
176
     1
 90
        0
176
     1
 40
0.6
176
     1
 40
30.0
176
     1
 62
     7
420
 16777215
176
     1
 90
        1
176
     1
 90
        4
176
     1
 62
     7
176
     1
 62
   257
176
     1
 90
        1
176
     1
 90
        1
176
     1
 40
1.0
176
     1
 90
        8
176
     1
 62
     7
176
     1
 40
1.0
176
     1
 90
        1
176
     1
 90
        6
176
     1
 90
        2
176
     1
 62
     7
176
     1
 90
        5
176
     1
 90
        0
176
     1
 90
        0
176
     1
290
     0
176
     1
 90
        1
176
     1
 40
50.0
176
     1
 90
        0
176
     1
290
     0
176
     1
290
     1
176
     1
290
     1
176
     1
290
     0
176
     1
290
     0
176
     1
290
     0
176
     1
290
     0
176
     1
290
     0
176
     1
290
     0
176
     1
 90
       50
176
     1
 40
0.0
176
     1
 40
1.0
176
     1
 90
        0
176
     1
 62
    18
420
        0
176
     1
 90
       50
176
     1
 90
        3
176
     1
 62
     5
420
      255
176
     1
290
     0
176
     1
 90
       50
176
     1
 90
       50
176
     1
 90
       50
176
     1
290
     0
176
     1
 90
       50
176
     1
 62
   256
176
     0
 40
1.0
176
     0
 90
        2
176
     1
  1
strokes_ogs.tif
176
     1
290
     0
176
     1
 40
1.0
176
     1
 40
1.0
176
     1
  0
VISUALSTYLE
  5
10D
102
{ACAD_REACTORS
330
FD
102
}
330
FD
100
AcDbVisualStyle
  2
ColorChange
 70
    16
177
     3
291
     1
 70
    58
 90
        2
176
     1
 90
        2
176
     1
 90
        3
176
     1
 90
        0
176
     1
 40
0.6
176
     1
 40
30.0
176
     1
 62
     8
420
  8421504
176
     1
 90
        1
176
     1
 90
        4
176
     1
 62
     7
176
     1
 62
   257
176
     1
 90
        1
176
     1
 90
        1
176
     1
 40
1.0
176
     1
 90
        8
176
     1
 62
     8
420
  8421504
176
     1
 40
1.0
176
     1
 90
        1
176
     1
 90
        6
176
     1
 90
        2
176
     1
 62
     7
176
     1
 90
        5
176
     1
 90
        0
176
     1
 90
        0
176
     1
290
     0
176
     1
 90
        1
176
     1
 40
0.0
176
     1
 90
        0
176
     1
290
     0
176
     1
290
     1
176
     1
290
     1
176
     1
290
     0
176
     1
290
     0
176
     1
290
     0
176
     1
290
     0
176
     1
290
     0
176
     1
290
     0
176
     1
 90
       50
176
     1
 40
0.0
176
     1
 40
1.0
176
     1
 90
        0
176
     1
 62
    18
420
        0
176
     1
 90
       50
176
     1
 90
        3
176
     1
 62
     5
420
      255
176
     1
290
     0
176
     1
 90
       50
176
     1
 90
       50
176
     1
 90
       50
176
     1
290
     0
176
     1
 90
       50
176
     1
 62
   256
176
     0
 40
1.0
176
     0
 90
        2
176
     1
  1
strokes_ogs.tif
176
     1
290
     0
176
     1
 40
1.0
176
     1
 40
1.0
176
     1
  0
VISUALSTYLE
  5
106
102
{ACAD_REACTORS
330
FD
102
}
330
FD
100
AcDbVisualStyle
  2
Conceptual
 70
     9
177
     3
291
     0
 70
    58
 90
        3
176
     1
 90
        2
176
     1
 90
        0
176
     1
 90
        0
176
     1
 40
0.6
176
     1
 40
30.0
176
     1
 62
     7
420
 16777215
176
     1
 90
        2
176
     1
 90
        2
176
     1
 62
     7
176
     1
 62
   257
176
     1
 90
        1
176
     1
 90
        1
176
     1
 40
179.0
176
     1
 90
        8
176
     1
 62
     7
176
     1
 40
1.0
176
     1
 90
        1
176
     1
 90
        6
176
     1
 90
        2
176
     1
 62
     7
176
     1
 90
        3
176
     1
 90
        0
176
     1
 90
        0
176
     1
290
     0
176
     1
 90
        1
176
     1
 40
0.0
176
     1
 90
        0
176
     1
290
     0
176
     1
290
     1
176
     1
290
     1
176
     1
290
     0
176
     1
290
     0
176
     1
290
     0
176
     1
290
     0
176
     1
290
     0
176
     1
290
     0
176
     1
 90
       50
176
     1
 40
0.0
176
     1
 40
1.0
176
     1
 90
        0
176
     1
 62
    18
420
        0
176
     1
 90
       50
176
     1
 90
        3
176
     1
 62
     5
420
      255
176
     1
290
     0
176
     1
 90
       50
176
     1
 90
       50
176
     1
 90
       50
176
     1
290
     0
176
     1
 90
       50
176
     1
 62
   256
176
     0
 40
1.0
176
     0
 90
        2
176
     1
  1
strokes_ogs.tif
176
     1
290
     0
176
     1
 40
1.0
176
     1
 40
1.0
176
     1
  0
VISUALSTYLE
  5
108
102
{ACAD_REACTORS
330
FD
102
}
330
FD
100
AcDbVisualStyle
  2
Dim
 70
    11
177
     3
291
     1
 70
    58
 90
        2
176
     1
 90
        2
176
     1
 90
        0
176
     1
 90
        0
176
     1
 40
0.6
176
     1
 40
30.0
176
     1
 62
     7
420
 16777215
176
     1
 90
        1
176
     1
 90
        4
176
     1
 62
     7
176
     1
 62
   257
176
     1
 90
        1
176
     1
 90
        1
176
     1
 40
1.0
176
     1
 90
        8
176
     1
 62
     7
176
     1
 40
1.0
176
     1
 90
        1
176
     1
 90
        6
176
     1
 90
        2
176
     1
 62
     7
176
     1
 90
        5
176
     1
 90
        0
176
     1
 90
        0
176
     1
290
     0
176
     1
 90
        1
176
     1
 40
-50.0
176
     1
 90
        0
176
     1
290
     0
176
     1
290
     1
176
     1
290
     1
176
     1
290
     0
176
     1
290
     0
176
     1
290
     0
176
     1
290
     0
176
     1
290
     0
176
     1
290
     0
176
     1
 90
       50
176
     1
 40
0.0
176
     1
 40
1.0
176
     1
 90
        0
176
     1
 62
    18
420
        0
176
     1
 90
       50
176
     1
 90
        3
176
     1
 62
     5
420
      255
176
     1
290
     0
176
     1
 90
       50
176
     1
 90
       50
176
     1
 90
       50
176
     1
290
     0
176
     1
 90
       50
176
     1
 62
   256
176
     0
 40
1.0
176
     0
 90
        2
176
     1
  1
strokes_ogs.tif
176
     1
290
     0
176
     1
 40
1.0
176
     1
 40
1.0
176
     1
  0
VISUALSTYLE
  5
115
102
{ACAD_REACTORS
330
FD
102
}
330
FD
100
AcDbVisualStyle
  2
EdgeColorOff
 70
    22
177
     3
291
     1
 70
    58
 90
        2
176
     0
 90
        2
176
     0
 90
        0
176
     0
 90
        0
176
     0
 40
0.6
176
     0
 40
30.0
176
     0
 62
     7
420
 16777215
176
     0
 90
        1
176
     0
 90
        4
176
     0
 62
     7
176
     0
 62
   257
176
     0
 90
        1
176
     0
 90
        1
176
     0
 40
1.0
176
     0
 90
        8
176
     2
 62
     7
176
     0
 40
1.0
176
     0
 90
        1
176
     0
 90
        6
176
     0
 90
        2
176
     0
 62
     7
176
     0
 90
        5
176
     0
 90
        0
176
     0
 90
        0
176
     0
290
     0
176
     0
 90
        1
176
     0
 40
0.0
176
     0
 90
        0
176
     0
290
     0
176
     1
290
     1
176
     1
290
     1
176
     1
290
     0
176
     1
290
     0
176
     1
290
     0
176
     1
290
     0
176
     1
290
     0
176
     1
290
     0
176
     1
 90
       50
176
     0
 40
0.0
176
     0
 40
1.0
176
     0
 90
        0
176
     0
 62
    18
420
        0
176
     0
 90
       50
176
     0
 90
        3
176
     0
 62
     5
420
      255
176
     0
290
     0
176
     1
 90
       50
176
     0
 90
       50
176
     0
 90
       50
176
     0
290
     0
176
     1
 90
       50
176
     0
 62
   256
176
     0
 40
1.0
176
     0
 90
        2
176
     0
  1
strokes_ogs.tif
176
     0
290
     0
176
     1
 40
1.0
176
     0
 40
1.0
176
     0
  0
VISUALSTYLE
  5
10C
102
{ACAD_REACTORS
330
FD
102
}
330
FD
100
AcDbVisualStyle
  2
Facepattern
 70
    15
177
     3
291
     1
 70
    58
 90
        2
176
     1
 90
        2
176
     1
 90
        0
176
     1
 90
        0
176
     1
 40
0.6
176
     1
 40
30.0
176
     1
 62
     7
420
 16777215
176
     1
 90
        1
176
     1
 90
        4
176
     1
 62
     7
176
     1
 62
   257
176
     1
 90
        1
176
     1
 90
        1
176
     1
 40
1.0
176
     1
 90
        8
176
     1
 62
     7
176
     1
 40
1.0
176
     1
 90
        1
176
     1
 90
        6
176
     1
 90
        2
176
     1
 62
     7
176
     1
 90
        5
176
     1
 90
        0
176
     1
 90
        0
176
     1
290
     0
176
     1
 90
        1
176
     1
 40
0.0
176
     1
 90
        0
176
     1
290
     0
176
     1
290
     1
176
     1
290
     1
176
     1
290
     0
176
     1
290
     0
176
     1
290
     0
176
     1
290
     0
176
     1
290
     0
176
     1
290
     0
176
     1
 90
       50
176
     1
 40
0.0
176
     1
 40
1.0
176
     1
 90
        0
176
     1
 62
    18
420
        0
176
     1
 90
       50
176
     1
 90
        3
176
     1
 62
     5
420
      255
176
     1
290
     0
176
     1
 90
       50
176
     1
 90
       50
176
     1
 90
       50
176
     1
290
     0
176
     1
 90
       50
176
     1
 62
   256
176
     0
 40
1.0
176
     0
 90
        2
176
     1
  1
strokes_ogs.tif
176
     1
290
     0
176
     1
 40
1.0
176
     1
 40
1.0
176
     1
  0
VISUALSTYLE
  5
FE
102
{ACAD_REACTORS
330
FD
102
}
330
FD
100
AcDbVisualStyle
  2
Flat
 70
     0
177
     3
291
     1
 70
    58
 90
        2
176
     1
 90
        1
176
     1
 90
        1
176
     1
 90
        2
176
     1
 40
0.6
176
     1
 40
30.0
176
     1
 62
     7
420
 16777215
176
     1
 90
        0
176
     1
 90
        0
176
     1
 62
     7
176
     1
 62
   257
176
     1
 90
        1
176
     1
 90
        1
176
     1
 40
1.0
176
     1
 90
        8
176
     1
 62
     7
176
     1
 40
1.0
176
     1
 90
        1
176
     1
 90
        6
176
     1
 90
        2
176
     1
 62
     7
176
     1
 90
        5
176
     1
 90
        0
176
     1
 90
        0
176
     1
290
     0
176
     1
 90
       13
176
     1
 40
0.0
176
     1
 90
        0
176
     1
290
     0
176
     1
290
     1
176
     1
290
     1
176
     1
290
     0
176
     1
290
     0
176
     1
290
     0
176
     1
290
     0
176
     1
290
     0
176
     1
290
     0
176
     1
 90
       50
176
     1
 40
0.0
176
     1
 40
1.0
176
     1
 90
        0
176
     1
 62
    18
420
        0
176
     1
 90
       50
176
     1
 90
        3
176
     1
 62
     5
420
      255
176
     1
290
     0
176
     1
 90
       50
176
     1
 90
       50
176
     1
 90
       50
176
     1
290
     0
176
     1
 90
       50
176
     1
 62
   256
176
     0
 40
1.0
176
     0
 90
        2
176
     1
  1
strokes_ogs.tif
176
     1
290
     0
176
     1
 40
1.0
176
     1
 40
1.0
176
     1
  0
VISUALSTYLE
  5
FF
102
{ACAD_REACTORS
330
FD
102
}
330
FD
100
AcDbVisualStyle
  2
FlatWithEdges
 70
     1
177
     3
291
     1
 70
    58
 90
        2
176
     1
 90
        1
176
     1
 90
        1
176
     1
 90
        2
176
     1
 40
0.6
176
     1
 40
30.0
176
     1
 62
     7
420
 16777215
176
     1
 90
        1
176
     1
 90
        0
176
     1
 62
     7
176
     1
 62
   257
176
     1
 90
        1
176
     1
 90
        1
176
     1
 40
1.0
176
     1
 90
        0
176
     1
 62
   257
176
     1
 40
1.0
176
     1
 90
        1
176
     1
 90
        6
176
     1
 90
        2
176
     1
 62
     7
176
     1
 90
        5
176
     1
 90
        0
176
     1
 90
        0
176
     1
290
     0
176
     1
 90
       13
176
     1
 40
0.0
176
     1
 90
        0
176
     1
290
     0
176
     1
290
     1
176
     1
290
     1
176
     1
290
     0
176
     1
290
     0
176
     1
290
     0
176
     1
290
     0
176
     1
290
     0
176
     1
290
     0
176
     1
 90
       50
176
     1
 40
0.0
176
     1
 40
1.0
176
     1
 90
        0
176
     1
 62
    18
420
        0
176
     1
 90
       50
176
     1
 90
        3
176
     1
 62
     5
420
      255
176
     1
290
     0
176
     1
 90
       50
176
     1
 90
       50
176
     1
 90
       50
176
     1
290
     0
176
     1
 90
       50
176
     1
 62
   256
176
     0
 40
1.0
176
     0
 90
        2
176
     1
  1
strokes_ogs.tif
176
     1
290
     0
176
     1
 40
1.0
176
     1
 40
1.0
176
     1
  0
VISUALSTYLE
  5
100
102
{ACAD_REACTORS
330
FD
102
}
330
FD
100
AcDbVisualStyle
  2
Gouraud
 70
     2
177
     3
291
     1
 70
    58
 90
        2
176
     1
 90
        2
176
     1
 90
        1
176
     1
 90
        2
176
     1
 40
0.6
176
     1
 40
30.0
176
     1
 62
     7
420
 16777215
176
     1
 90
        0
176
     1
 90
        0
176
     1
 62
     7
176
     1
 62
   257
176
     1
 90
        1
176
     1
 90
        1
176
     1
 40
1.0
176
     1
 90
        0
176
     1
 62
     7
176
     1
 40
1.0
176
     1
 90
        1
176
     1
 90
        6
176
     1
 90
        2
176
     1
 62
     7
176
     1
 90
        5
176
     1
 90
        0
176
     1
 90
        0
176
     1
290
     0
176
     1
 90
       13
176
     1
 40
0.0
176
     1
 90
        0
176
     1
290
     0
176
     1
290
     1
176
     1
290
     1
176
     1
290
     0
176
     1
290
     0
176
     1
290
     0
176
     1
290
     0
176
     1
290
     0
176
     1
290
     0
176
     1
 90
       50
176
     1
 40
0.0
176
     1
 40
1.0
176
     1
 90
        0
176
     1
 62
    18
420
        0
176
     1
 90
       50
176
     1
 90
        3
176
     1
 62
     5
420
      255
176
     1
290
     0
176
     1
 90
       50
176
     1
 90
       50
176
     1
 90
       50
176
     1
290
     0
176
     1
 90
       50
176
     1
 62
   256
176
     0
 40
1.0
176
     0
 90
        2
176
     1
  1
strokes_ogs.tif
176
     1
290
     0
176
     1
 40
1.0
176
     1
 40
1.0
176
     1
  0
VISUALSTYLE
  5
101
102
{ACAD_REACTORS
330
FD
102
}
330
FD
100
AcDbVisualStyle
  2
GouraudWithEdges
 70
     3
177
     3
291
     1
 70
    58
 90
        2
176
     1
 90
        2
176
     1
 90
        1
176
     1
 90
        2
176
     1
 40
0.6
176
     1
 40
30.0
176
     1
 62
     7
420
 16777215
176
     1
 90
        1
176
     1
 90
        0
176
     1
 62
     7
176
     1
 62
   257
176
     1
 90
        1
176
     1
 90
        1
176
     1
 40
1.0
176
     1
 90
        0
176
     1
 62
   257
176
     1
 40
1.0
176
     1
 90
        1
176
     1
 90
        6
176
     1
 90
        2
176
     1
 62
     7
176
     1
 90
        5
176
     1
 90
        0
176
     1
 90
        0
176
     1
290
     0
176
     1
 90
       13
176
     1
 40
0.0
176
     1
 90
        0
176
     1
290
     0
176
     1
290
     1
176
     1
290
     1
176
     1
290
     0
176
     1
290
     0
176
     1
290
     0
176
     1
290
     0
176
     1
290
     0
176
     1
290
     0
176
     1
 90
       50
176
     1
 40
0.0
176
     1
 40
1.0
176
     1
 90
        0
176
     1
 62
    18
420
        0
176
     1
 90
       50
176
     1
 90
        3
176
     1
 62
     5
420
      255
176
     1
290
     0
176
     1
 90
       50
176
     1
 90
       50
176
     1
 90
       50
176
     1
290
     0
176
     1
 90
       50
176
     1
 62
   256
176
     0
 40
1.0
176
     0
 90
        2
176
     1
  1
strokes_ogs.tif
176
     1
290
     0
176
     1
 40
1.0
176
     1
 40
1.0
176
     1
  0
VISUALSTYLE
  5
105
102
{ACAD_REACTORS
330
FD
102
}
330
FD
100
AcDbVisualStyle
  2
Hidden
 70
     6
177
     3
291
     0
 70
    58
 90
        1
176
     1
 90
        2
176
     1
 90
        2
176
     1
 90
        0
176
     1
 40
0.6
176
     1
 40
30.0
176
     1
 62
     7
420
 16777215
176
     1
 90
        2
176
     1
 90
        2
176
     1
 62
     7
176
     1
 62
   257
176
     1
 90
        2
176
     1
 90
        1
176
     1
 40
40.0
176
     1
 90
        0
176
     1
 62
   257
176
     1
 40
1.0
176
     1
 90
        1
176
     1
 90
        6
176
     1
 90
        2
176
     1
 62
     7
176
     1
 90
        3
176
     1
 90
        0
176
     1
 90
        0
176
     1
290
     0
176
     1
 90
        1
176
     1
 40
0.0
176
     1
 90
        0
176
     1
290
     0
176
     1
290
     1
176
     1
290
     1
176
     1
290
     0
176
     1
290
     0
176
     1
290
     0
176
     1
290
     0
176
     1
290
     0
176
     1
290
     0
176
     1
 90
       50
176
     1
 40
0.0
176
     1
 40
1.0
176
     1
 90
        0
176
     1
 62
    18
420
        0
176
     1
 90
       50
176
     1
 90
        3
176
     1
 62
     5
420
      255
176
     1
290
     0
176
     1
 90
       50
176
     1
 90
       50
176
     1
 90
       50
176
     1
290
     0
176
     1
 90
       50
176
     1
 62
   256
176
     0
 40
1.0
176
     0
 90
        2
176
     1
  1
strokes_ogs.tif
176
     1
290
     0
176
     1
 40
1.0
176
     1
 40
1.0
176
     1
  0
VISUALSTYLE
  5
113
102
{ACAD_REACTORS
330
FD
102
}
330
FD
100
AcDbVisualStyle
  2
JitterOff
 70
    20
177
     3
291
     1
 70
    58
 90
        2
176
     0
 90
        2
176
     0
 90
        0
176
     0
 90
        0
176
     0
 40
0.6
176
     0
 40
30.0
176
     0
 62
     7
420
 16777215
176
     0
 90
        1
176
     0
 90
        4
176
     0
 62
     7
176
     0
 62
   257
176
     0
 90
        1
176
     0
 90
        1
176
     0
 40
1.0
176
     0
 90
       10
176
     2
 62
     7
176
     0
 40
1.0
176
     0
 90
        1
176
     0
 90
        6
176
     0
 90
        2
176
     0
 62
     7
176
     0
 90
        5
176
     0
 90
        0
176
     0
 90
        0
176
     0
290
     0
176
     0
 90
        1
176
     0
 40
0.0
176
     0
 90
        0
176
     0
290
     0
176
     1
290
     1
176
     1
290
     1
176
     1
290
     0
176
     1
290
     0
176
     1
290
     0
176
     1
290
     0
176
     1
290
     0
176
     1
290
     0
176
     1
 90
       50
176
     0
 40
0.0
176
     0
 40
1.0
176
     0
 90
        0
176
     0
 62
    18
420
        0
176
     0
 90
       50
176
     0
 90
        3
176
     0
 62
     5
420
      255
176
     0
290
     0
176
     1
 90
       50
176
     0
 90
       50
176
     0
 90
       50
176
     0
290
     0
176
     1
 90
       50
176
     0
 62
   256
176
     0
 40
1.0
176
     0
 90
        2
176
     0
  1
strokes_ogs.tif
176
     0
290
     0
176
     1
 40
1.0
176
     0
 40
1.0
176
     0
  0
VISUALSTYLE
  5
10B
102
{ACAD_REACTORS
330
FD
102
}
330
FD
100
AcDbVisualStyle
  2
Linepattern
 70
    14
177
     3
291
     1
 70
    58
 90
        2
176
     1
 90
        2
176
     1
 90
        0
176
     1
 90
        0
176
     1
 40
0.6
176
     1
 40
30.0
176
     1
 62
     7
420
 16777215
176
     1
 90
        1
176
     1
 90
        4
176
     1
 62
     7
176
     1
 62
   257
176
     1
 90
        7
176
     1
 90
        7
176
     1
 40
1.0
176
     1
 90
        8
176
     1
 62
     7
176
     1
 40
1.0
176
     1
 90
        1
176
     1
 90
        6
176
     1
 90
        2
176
     1
 62
     7
176
     1
 90
        5
176
     1
 90
        0
176
     1
 90
        0
176
     1
290
     0
176
     1
 90
        1
176
     1
 40
0.0
176
     1
 90
        0
176
     1
290
     0
176
     1
290
     1
176
     1
290
     1
176
     1
290
     0
176
     1
290
     0
176
     1
290
     0
176
     1
290
     0
176
     1
290
     0
176
     1
290
     0
176
     1
 90
       50
176
     1
 40
0.0
176
     1
 40
1.0
176
     1
 90
        0
176
     1
 62
    18
420
        0
176
     1
 90
       50
176
     1
 90
        3
176
     1
 62
     5
420
      255
176
     1
290
     0
176
     1
 90
       50
176
     1
 90
       50
176
     1
 90
       50
176
     1
290
     0
176
     1
 90
       50
176
     1
 62
   256
176
     0
 40
1.0
176
     0
 90
        2
176
     1
  1
strokes_ogs.tif
176
     1
290
     0
176
     1
 40
1.0
176
     1
 40
1.0
176
     1
  0
VISUALSTYLE
  5
114
102
{ACAD_REACTORS
330
FD
102
}
330
FD
100
AcDbVisualStyle
  2
OverhangOff
 70
    21
177
     3
291
     1
 70
    58
 90
        2
176
     0
 90
        2
176
     0
 90
        0
176
     0
 90
        0
176
     0
 40
0.6
176
     0
 40
30.0
176
     0
 62
     7
420
 16777215
176
     0
 90
        1
176
     0
 90
        4
176
     0
 62
     7
176
     0
 62
   257
176
     0
 90
        1
176
     0
 90
        1
176
     0
 40
1.0
176
     0
 90
        9
176
     2
 62
     7
176
     0
 40
1.0
176
     0
 90
        1
176
     0
 90
        6
176
     0
 90
        2
176
     0
 62
     7
176
     0
 90
        5
176
     0
 90
        0
176
     0
 90
        0
176
     0
290
     0
176
     0
 90
        1
176
     0
 40
0.0
176
     0
 90
        0
176
     0
290
     0
176
     1
290
     1
176
     1
290
     1
176
     1
290
     0
176
     1
290
     0
176
     1
290
     0
176
     1
290
     0
176
     1
290
     0
176
     1
290
     0
176
     1
 90
       50
176
     0
 40
0.0
176
     0
 40
1.0
176
     0
 90
        0
176
     0
 62
    18
420
        0
176
     0
 90
       50
176
     0
 90
        3
176
     0
 62
     5
420
      255
176
     0
290
     0
176
     1
 90
       50
176
     0
 90
       50
176
     0
 90
       50
176
     0
290
     0
176
     1
 90
       50
176
     0
 62
   256
176
     0
 40
1.0
176
     0
 90
        2
176
     0
  1
strokes_ogs.tif
176
     0
290
     0
176
     1
 40
1.0
176
     0
 40
1.0
176
     0
  0
VISUALSTYLE
  5
107
102
{ACAD_REACTORS
330
FD
102
}
330
FD
100
AcDbVisualStyle
  2
Realistic
 70
     8
177
     3
291
     0
 70
    58
 90
        2
176
     1
 90
        3
176
     1
 90
        0
176
     1
 90
        2
176
     1
 40
0.6
176
     1
 40
30.0
176
     1
 62
     7
420
 16777215
176
     1
 90
        0
176
     1
 90
        0
176
     1
 62
     7
176
     1
 62
   257
176
     1
 90
        1
176
     1
 90
        1
176
     1
 40
1.0
176
     1
 90
        8
176
     1
 62
   257
176
     1
 40
1.0
176
     1
 90
        1
176
     1
 90
        6
176
     1
 90
        2
176
     1
 62
     7
176
     1
 90
        3
176
     1
 90
        0
176
     1
 90
        0
176
     1
290
     0
176
     1
 90
       13
176
     1
 40
0.0
176
     1
 90
        0
176
     1
290
     0
176
     1
290
     1
176
     1
290
     1
176
     1
290
     0
176
     1
290
     0
176
     1
290
     0
176
     1
290
     0
176
     1
290
     0
176
     1
290
     0
176
     1
 90
       50
176
     1
 40
0.0
176
     1
 40
1.0
176
     1
 90
        0
176
     1
 62
    18
420
        0
176
     1
 90
       50
176
     1
 90
        3
176
     1
 62
     5
420
      255
176
     1
290
     0
176
     1
 90
       50
176
     1
 90
       50
176
     1
 90
       50
176
     1
290
     0
176
     1
 90
       50
176
     1
 62
   256
176
     0
 40
1.0
176
     0
 90
        2
176
     1
  1
strokes_ogs.tif
176
     1
290
     0
176
     1
 40
1.0
176
     1
 40
1.0
176
     1
  0
VISUALSTYLE
  5
112
102
{ACAD_REACTORS
330
FD
102
}
330
FD
100
AcDbVisualStyle
  2
Shaded
 70
    27
177
     3
291
     0
 70
    58
 90
        2
176
     1
 90
        2
176
     1
 90
        1
176
     1
 90
        2
176
     1
 40
0.6
176
     1
 40
30.0
176
     1
 62
     7
420
 16777215
176
     1
 90
        0
176
     1
 90
        4
176
     1
 62
     7
176
     1
 62
   257
176
     1
 90
        1
176
     1
 90
        1
176
     1
 40
1.0
176
     1
 90
        8
176
     1
 62
   257
176
     1
 40
1.0
176
     1
 90
        1
176
     1
 90
        6
176
     1
 90
        2
176
     1
 62
     8
420
  7895160
176
     1
 90
        3
176
     1
 90
        0
176
     1
 90
        0
176
     1
290
     0
176
     1
 90
        5
176
     1
 40
0.0
176
     1
 90
        0
176
     1
290
     0
176
     1
290
     1
176
     1
290
     1
176
     1
290
     0
176
     1
290
     0
176
     1
290
     0
176
     1
290
     0
176
     1
290
     0
176
     1
290
     0
176
     1
 90
       50
176
     1
 40
0.0
176
     1
 40
1.0
176
     1
 90
        0
176
     1
 62
    18
420
        0
176
     1
 90
       50
176
     1
 90
        3
176
     1
 62
     5
420
      255
176
     1
290
     0
176
     1
 90
       50
176
     1
 90
       50
176
     1
 90
       50
176
     1
290
     0
176
     1
 90
       50
176
     1
 62
   256
176
     0
 40
1.0
176
     0
 90
        2
176
     1
  1
strokes_ogs.tif
176
     1
290
     0
176
     1
 40
1.0
176
     1
 40
1.0
176
     1
  0
VISUALSTYLE
  5
111
102
{ACAD_REACTORS
330
FD
102
}
330
FD
100
AcDbVisualStyle
  2
Shaded with edges
 70
    26
177
     3
291
     0
 70
    58
 90
        2
176
     1
 90
        2
176
     1
 90
        1
176
     1
 90
        2
176
     1
 40
0.6
176
     1
 40
30.0
176
     1
 62
     7
420
 16777215
176
     1
 90
        1
176
     1
 90
        2
176
     1
 62
     7
176
     1
 62
   257
176
     1
 90
        2
176
     1
 90
        1
176
     1
 40
1.0
176
     1
 90
        8
176
     1
 62
   257
176
     1
 40
1.0
176
     1
 90
        1
176
     1
 90
        6
176
     1
 90
        2
176
     1
 62
     7
176
     1
 90
        3
176
     1
 90
        0
176
     1
 90
        0
176
     1
290
     0
176
     1
 90
        5
176
     1
 40
0.0
176
     1
 90
        0
176
     1
290
     0
176
     1
290
     1
176
     1
290
     1
176
     1
290
     0
176
     1
290
     0
176
     1
290
     0
176
     1
290
     0
176
     1
290
     0
176
     1
290
     0
176
     1
 90
       50
176
     1
 40
0.0
176
     1
 40
1.0
176
     1
 90
        0
176
     1
 62
    18
420
        0
176
     1
 90
       50
176
     1
 90
        3
176
     1
 62
     5
420
      255
176
     1
290
     0
176
     1
 90
       50
176
     1
 90
       50
176
     1
 90
       50
176
     1
290
     0
176
     1
 90
       50
176
     1
 62
   256
176
     0
 40
1.0
176
     0
 90
        2
176
     1
  1
strokes_ogs.tif
176
     1
290
     0
176
     1
 40
1.0
176
     1
 40
1.0
176
     1
  0
VISUALSTYLE
  5
10E
102
{ACAD_REACTORS
330
FD
102
}
330
FD
100
AcDbVisualStyle
  2
Shades of Gray
 70
    23
177
     3
291
     0
 70
    58
 90
        2
176
     1
 90
        2
176
     1
 90
        3
176
     1
 90
        0
176
     1
 40
0.6
176
     1
 40
30.0
176
     1
 62
     7
420
 16777215
176
     1
 90
        2
176
     1
 90
        2
176
     1
 62
     7
176
     1
 62
     7
176
     1
 90
        1
176
     1
 90
        1
176
     1
 40
40.0
176
     1
 90
        8
176
     1
 62
     7
176
     1
 40
1.0
176
     1
 90
        1
176
     1
 90
        6
176
     1
 90
        2
176
     1
 62
     7
176
     1
 90
        3
176
     1
 90
        0
176
     1
 90
        0
176
     1
290
     0
176
     1
 90
        1
176
     1
 40
0.0
176
     1
 90
        0
176
     1
290
     0
176
     1
290
     1
176
     1
290
     1
176
     1
290
     0
176
     1
290
     0
176
     1
290
     0
176
     1
290
     0
176
     1
290
     0
176
     1
290
     0
176
     1
 90
       50
176
     1
 40
0.0
176
     1
 40
1.0
176
     1
 90
        0
176
     1
 62
    18
420
        0
176
     1
 90
       50
176
     1
 90
        3
176
     1
 62
     5
420
      255
176
     1
290
     0
176
     1
 90
       50
176
     1
 90
       50
176
     1
 90
       50
176
     1
290
     0
176
     1
 90
       50
176
     1
 62
   256
176
     0
 40
1.0
176
     0
 90
        2
176
     1
  1
strokes_ogs.tif
176
     1
290
     0
176
     1
 40
1.0
176
     1
 40
1.0
176
     1
  0
VISUALSTYLE
  5
10F
102
{ACAD_REACTORS
330
FD
102
}
330
FD
100
AcDbVisualStyle
  2
Sketchy
 70
    24
177
     3
291
     0
 70
    58
 90
        1
176
     1
 90
        2
176
     1
 90
        2
176
     1
 90
        0
176
     1
 40
0.6
176
     1
 40
30.0
176
     1
 62
     7
420
 16777215
176
     1
 90
        2
176
     1
 90
        2
176
     1
 62
     7
176
     1
 62
     7
176
     1
 90
        1
176
     1
 90
        1
176
     1
 40
40.0
176
     1
 90
       11
176
     1
 62
     7
176
     1
 40
1.0
176
     1
 90
        1
176
     1
 90
        6
176
     1
 90
        2
176
     1
 62
     7
176
     1
 90
        6
176
     1
 90
        0
176
     1
 90
        0
176
     1
290
     0
176
     1
 90
        1
176
     1
 40
0.0
176
     1
 90
        0
176
     1
290
     0
176
     1
290
     1
176
     1
290
     1
176
     1
290
     0
176
     1
290
     0
176
     1
290
     0
176
     1
290
     0
176
     1
290
     0
176
     1
290
     0
176
     1
 90
       50
176
     1
 40
0.0
176
     1
 40
1.0
176
     1
 90
        0
176
     1
 62
    18
420
        0
176
     1
 90
       50
176
     1
 90
        3
176
     1
 62
     5
420
      255
176
     1
290
     0
176
     1
 90
       50
176
     1
 90
       50
176
     1
 90
       50
176
     1
290
     0
176
     1
 90
       50
176
     1
 62
   256
176
     0
 40
1.0
176
     0
 90
        2
176
     1
  1
strokes_ogs.tif
176
     1
290
     0
176
     1
 40
1.0
176
     1
 40
1.0
176
     1
  0
VISUALSTYLE
  5
10A
102
{ACAD_REACTORS
330
FD
102
}
330
FD
100
AcDbVisualStyle
  2
Thicken
 70
    13
177
     3
291
     1
 70
    58
 90
        2
176
     1
 90
        2
176
     1
 90
        0
176
     1
 90
        0
176
     1
 40
0.6
176
     1
 40
30.0
176
     1
 62
     7
420
 16777215
176
     1
 90
        1
176
     1
 90
        4
176
     1
 62
     7
176
     1
 62
   257
176
     1
 90
        1
176
     1
 90
        1
176
     1
 40
1.0
176
     1
 90
       12
176
     1
 62
     7
176
     1
 40
1.0
176
     1
 90
        1
176
     1
 90
        6
176
     1
 90
        2
176
     1
 62
     7
176
     1
 90
        5
176
     1
 90
        0
176
     1
 90
        0
176
     1
290
     0
176
     1
 90
        1
176
     1
 40
0.0
176
     1
 90
        0
176
     1
290
     0
176
     1
290
     1
176
     1
290
     1
176
     1
290
     0
176
     1
290
     0
176
     1
290
     0
176
     1
290
     0
176
     1
290
     0
176
     1
290
     0
176
     1
 90
       50
176
     1
 40
0.0
176
     1
 40
1.0
176
     1
 90
        0
176
     1
 62
    18
420
        0
176
     1
 90
       50
176
     1
 90
        3
176
     1
 62
     5
420
      255
176
     1
290
     0
176
     1
 90
       50
176
     1
 90
       50
176
     1
 90
       50
176
     1
290
     0
176
     1
 90
       50
176
     1
 62
   256
176
     0
 40
1.0
176
     0
 90
        2
176
     1
  1
strokes_ogs.tif
176
     1
290
     0
176
     1
 40
1.0
176
     1
 40
1.0
176
     1
  0
VISUALSTYLE
  5
104
102
{ACAD_REACTORS
330
FD
102
}
330
FD
100
AcDbVisualStyle
  2
Wireframe
 70
     5
177
     3
291
     0
 70
    58
 90
        0
176
     1
 90
        2
176
     1
 90
        0
176
     1
 90
        0
176
     1
 40
0.6
176
     1
 40
30.0
176
     1
 62
     7
420
 16777215
176
     1
 90
        1
176
     1
 90
        4
176
     1
 62
     7
176
     1
 62
   257
176
     1
 90
        1
176
     1
 90
        1
176
     1
 40
1.0
176
     1
 90
        0
176
     1
 62
   257
176
     1
 40
1.0
176
     1
 90
        1
176
     1
 90
        6
176
     1
 90
        2
176
     1
 62
     7
176
     1
 90
        3
176
     1
 90
        0
176
     1
 90
        0
176
     1
290
     0
176
     1
 90
        1
176
     1
 40
0.0
176
     1
 90
        0
176
     1
290
     0
176
     1
290
     1
176
     1
290
     1
176
     1
290
     0
176
     1
290
     0
176
     1
290
     0
176
     1
290
     0
176
     1
290
     0
176
     1
290
     0
176
     1
 90
       50
176
     1
 40
0.0
176
     1
 40
1.0
176
     1
 90
        0
176
     1
 62
    18
420
        0
176
     1
 90
       50
176
     1
 90
        3
176
     1
 62
     5
420
      255
176
     1
290
     0
176
     1
 90
       50
176
     1
 90
       50
176
     1
 90
       50
176
     1
290
     0
176
     1
 90
       50
176
     1
 62
   256
176
     0
 40
1.0
176
     0
 90
        2
176
     1
  1
strokes_ogs.tif
176
     1
290
     0
176
     1
 40
1.0
176
     1
 40
1.0
176
     1
  0
VISUALSTYLE
  5
110
102
{ACAD_REACTORS
330
FD
102
}
330
FD
100
AcDbVisualStyle
  2
X-Ray
 70
    25
177
     3
291
     0
 70
    58
 90
        2
176
     1
 90
        2
176
     1
 90
        1
176
     1
 90
        1
176
     1
 40
0.5
176
     1
 40
30.0
176
     1
 62
     7
420
 16777215
176
     1
 90
        1
176
     1
 90
        0
176
     1
 62
     7
176
     1
 62
   257
176
     1
 90
        1
176
     1
 90
        1
176
     1
 40
1.0
176
     1
 90
        8
176
     1
 62
     7
176
     1
 40
1.0
176
     1
 90
        1
176
     1
 90
        6
176
     1
 90
        2
176
     1
 62
     7
176
     1
 90
        3
176
     1
 90
        0
176
     1
 90
        0
176
     1
290
     0
176
     1
 90
       13
176
     1
 40
0.0
176
     1
 90
        0
176
     1
290
     0
176
     1
290
     1
176
     1
290
     1
176
     1
290
     0
176
     1
290
     0
176
     1
290
     0
176
     1
290
     0
176
     1
290
     0
176
     1
290
     0
176
     1
 90
       50
176
     1
 40
0.0
176
     1
 40
1.0
176
     1
 90
        0
176
     1
 62
    18
420
        0
176
     1
 90
       50
176
     1
 90
        3
176
     1
 62
     5
420
      255
176
     1
290
     0
176
     1
 90
       50
176
     1
 90
       50
176
     1
 90
       50
176
     1
290
     0
176
     1
 90
       50
176
     1
 62
   256
176
     0
 40
1.0
176
     0
 90
        2
176
     1
  1
strokes_ogs.tif
176
     1
290
     0
176
     1
 40
1.0
176
     1
 40
1.0
176
     1
  0
DICTIONARYVAR
  5
132
102
{ACAD_REACTORS
330
12C
102
}
330
12C
100
DictionaryVariables
280
     0
  1
1:1
  0
DICTIONARYVAR
  5
12E
102
{ACAD_REACTORS
330
12C
102
}
330
12C
100
DictionaryVariables
280
     0
  1
STANDARD
  0
DICTIONARYVAR
  5
12D
102
{ACAD_REACTORS
330
12C
102
}
330
12C
100
DictionaryVariables
280
     0
  1
STANDARD
  0
DICTIONARYVAR
  5
12F
102
{ACAD_REACTORS
330
12C
102
}
330
12C
100
DictionaryVariables
280
     0
  1
Metric50
  0
DICTIONARYVAR
  5
130
102
{ACAD_REACTORS
330
12C
102
}
330
12C
100
DictionaryVariables
280
     0
  1
Metric50
  0
DICTIONARYVAR
  5
134
102
{ACAD_REACTORS
330
12C
102
}
330
12C
100
DictionaryVariables
280
     0
  1
1
  0
DICTIONARYVAR
  5
135
102
{ACAD_REACTORS
330
12C
102
}
330
12C
100
DictionaryVariables
280
     0
  1
15
  0
DICTIONARYVAR
  5
133
102
{ACAD_REACTORS
330
12C
102
}
330
12C
100
DictionaryVariables
280
     0
  1
0
  0
DICTIONARYVAR
  5
131
102
{ACAD_REACTORS
330
12C
102
}
330
12C
100
DictionaryVariables
280
     0
  1
0
  0
DICTIONARY
  5
EE
330
ED
100
AcDbDictionary
280
     1
281
     1
  3
BUMPTILE
360
F0
  3
DIFFUSETILE
360
EF
  3
OPACITYTILE
360
F3
  3
REFLECTIONTILE
360
F2
  3
REFRACTIONTILE
360
F4
  3
SPECULARTILE
360
F1
  0
DICTIONARY
  5
E6
330
E5
100
AcDbDictionary
280
     1
281
     1
  3
BUMPTILE
360
E8
  3
DIFFUSETILE
360
E7
  3
OPACITYTILE
360
EB
  3
REFLECTIONTILE
360
EA
  3
REFRACTIONTILE
360
EC
  3
SPECULARTILE
360
E9
  0
DICTIONARY
  5
F6
330
F5
100
AcDbDictionary
280
     1
281
     1
  3
BUMPTILE
360
F8
  3
DIFFUSETILE
360
F7
  3
OPACITYTILE
360
FB
  3
REFLECTIONTILE
360
FA
  3
REFRACTIONTILE
360
FC
  3
SPECULARTILE
360
F9
  0
DICTIONARY
  5
137
330
118
100
AcDbDictionary
280
     1
281
     1
  3
ACAD_ROUNDTRIP_2008_TABLESTYLE_CELLSTYLEMAP
360
138
  0
XRECORD
  5
F0
102
{ACAD_REACTORS
330
EE
102
}
330
EE
100
AcDbXrecord
280
     1
270
     1
271
     1
  0
XRECORD
  5
EF
102
{ACAD_REACTORS
330
EE
102
}
330
EE
100
AcDbXrecord
280
     1
270
     1
271
     1
  0
XRECORD
  5
F3
102
{ACAD_REACTORS
330
EE
102
}
330
EE
100
AcDbXrecord
280
     1
270
     1
271
     1
  0
XRECORD
  5
F2
102
{ACAD_REACTORS
330
EE
102
}
330
EE
100
AcDbXrecord
280
     1
270
     1
271
     1
  0
XRECORD
  5
F4
102
{ACAD_REACTORS
330
EE
102
}
330
EE
100
AcDbXrecord
280
     1
270
     1
271
     1
  0
XRECORD
  5
F1
102
{ACAD_REACTORS
330
EE
102
}
330
EE
100
AcDbXrecord
280
     1
270
     1
271
     1
  0
XRECORD
  5
E8
102
{ACAD_REACTORS
330
E6
102
}
330
E6
100
AcDbXrecord
280
     1
270
     1
271
     1
  0
XRECORD
  5
E7
102
{ACAD_REACTORS
330
E6
102
}
330
E6
100
AcDbXrecord
280
     1
270
     1
271
     1
  0
XRECORD
  5
EB
102
{ACAD_REACTORS
330
E6
102
}
330
E6
100
AcDbXrecord
280
     1
270
     1
271
     1
  0
XRECORD
  5
EA
102
{ACAD_REACTORS
330
E6
102
}
330
E6
100
AcDbXrecord
280
     1
270
     1
271
     1
  0
XRECORD
  5
EC
102
{ACAD_REACTORS
330
E6
102
}
330
E6
100
AcDbXrecord
280
     1
270
     1
271
     1
  0
XRECORD
  5
E9
102
{ACAD_REACTORS
330
E6
102
}
330
E6
100
AcDbXrecord
280
     1
270
     1
271
     1
  0
XRECORD
  5
F8
102
{ACAD_REACTORS
330
F6
102
}
330
F6
100
AcDbXrecord
280
     1
270
     1
271
     1
  0
XRECORD
  5
F7
102
{ACAD_REACTORS
330
F6
102
}
330
F6
100
AcDbXrecord
280
     1
270
     1
271
     1
  0
XRECORD
  5
FB
102
{ACAD_REACTORS
330
F6
102
}
330
F6
100
AcDbXrecord
280
     1
270
     1
271
     1
  0
XRECORD
  5
FA
102
{ACAD_REACTORS
330
F6
102
}
330
F6
100
AcDbXrecord
280
     1
270
     1
271
     1
  0
XRECORD
  5
FC
102
{ACAD_REACTORS
330
F6
102
}
330
F6
100
AcDbXrecord
280
     1
270
     1
271
     1
  0
XRECORD
  5
F9
102
{ACAD_REACTORS
330
F6
102
}
330
F6
100
AcDbXrecord
280
     1
270
     1
271
     1
  0
CELLSTYLEMAP
  5
138
102
{ACAD_REACTORS
330
137
102
}
330
137
100
AcDbCellStyleMap
 90
        3
300
CELLSTYLE
  1
TABLEFORMAT_BEGIN
 90
        5
170
     1
 91
        0
 92
    32768
 62
   257
 93
        1
300
CONTENTFORMAT
  1
CONTENTFORMAT_BEGIN
 90
        0
 91
        0
 92
      512
 93
        0
300

 40
0.0
140
1.0
 94
        5
 62
     0
340
11
144
6.0
309
CONTENTFORMAT_END
171
     1
301
MARGIN
  1
CELLMARGIN_BEGIN
 40
1.5
 40
1.5
 40
1.5
 40
1.5
 40
4.5
 40
4.5
309
CELLMARGIN_END
 94
        6
 95
        1
302
GRIDFORMAT
  1
GRIDFORMAT_BEGIN
 90
        0
 91
        1
 62
     0
 92
       -2
340
0
 93
        0
 40
1.125
309
GRIDFORMAT_END
 95
        2
302
GRIDFORMAT
  1
GRIDFORMAT_BEGIN
 90
        0
 91
        1
 62
     0
 92
       -2
340
0
 93
        0
 40
1.125
309
GRIDFORMAT_END
 95
        4
302
GRIDFORMAT
  1
GRIDFORMAT_BEGIN
 90
        0
 91
        1
 62
     0
 92
       -2
340
0
 93
        0
 40
1.125
309
GRIDFORMAT_END
 95
        8
302
GRIDFORMAT
  1
GRIDFORMAT_BEGIN
 90
        0
 91
        1
 62
     0
 92
       -2
340
0
 93
        0
 40
1.125
309
GRIDFORMAT_END
 95
       16
302
GRIDFORMAT
  1
GRIDFORMAT_BEGIN
 90
        0
 91
        1
 62
     0
 92
       -2
340
0
 93
        0
 40
1.125
309
GRIDFORMAT_END
 95
       32
302
GRIDFORMAT
  1
GRIDFORMAT_BEGIN
 90
        0
 91
        1
 62
     0
 92
       -2
340
0
 93
        0
 40
1.125
309
GRIDFORMAT_END
309
TABLEFORMAT_END
  1
CELLSTYLE_BEGIN
 90
        1
 91
        1
300
_TITLE
309
CELLSTYLE_END
300
CELLSTYLE
  1
TABLEFORMAT_BEGIN
 90
        5
170
     1
 91
        0
 92
        0
 62
   257
 93
        1
300
CONTENTFORMAT
  1
CONTENTFORMAT_BEGIN
 90
        0
 91
        0
 92
      512
 93
        0
300

 40
0.0
140
1.0
 94
        5
 62
     0
340
11
144
4.5
309
CONTENTFORMAT_END
171
     1
301
MARGIN
  1
CELLMARGIN_BEGIN
 40
1.5
 40
1.5
 40
1.5
 40
1.5
 40
4.5
 40
4.5
309
CELLMARGIN_END
 94
        6
 95
        1
302
GRIDFORMAT
  1
GRIDFORMAT_BEGIN
 90
        0
 91
        1
 62
     0
 92
       -2
340
0
 93
        0
 40
1.125
309
GRIDFORMAT_END
 95
        2
302
GRIDFORMAT
  1
GRIDFORMAT_BEGIN
 90
        0
 91
        1
 62
     0
 92
       -2
340
0
 93
        0
 40
1.125
309
GRIDFORMAT_END
 95
        4
302
GRIDFORMAT
  1
GRIDFORMAT_BEGIN
 90
        0
 91
        1
 62
     0
 92
       -2
340
0
 93
        0
 40
1.125
309
GRIDFORMAT_END
 95
        8
302
GRIDFORMAT
  1
GRIDFORMAT_BEGIN
 90
        0
 91
        1
 62
     0
 92
       -2
340
0
 93
        0
 40
1.125
309
GRIDFORMAT_END
 95
       16
302
GRIDFORMAT
  1
GRIDFORMAT_BEGIN
 90
        0
 91
        1
 62
     0
 92
       -2
340
0
 93
        0
 40
1.125
309
GRIDFORMAT_END
 95
       32
302
GRIDFORMAT
  1
GRIDFORMAT_BEGIN
 90
        0
 91
        1
 62
     0
 92
       -2
340
0
 93
        0
 40
1.125
309
GRIDFORMAT_END
309
TABLEFORMAT_END
  1
CELLSTYLE_BEGIN
 90
        2
 91
        1
300
_HEADER
309
CELLSTYLE_END
300
CELLSTYLE
  1
TABLEFORMAT_BEGIN
 90
        5
170
     1
 91
        0
 92
        0
 62
   257
 93
        1
300
CONTENTFORMAT
  1
CONTENTFORMAT_BEGIN
 90
        0
 91
        0
 92
      512
 93
        0
300

 40
0.0
140
1.0
 94
        2
 62
     0
340
11
144
4.5
309
CONTENTFORMAT_END
171
     1
301
MARGIN
  1
CELLMARGIN_BEGIN
 40
1.5
 40
1.5
 40
1.5
 40
1.5
 40
4.5
 40
4.5
309
CELLMARGIN_END
 94
        6
 95
        1
302
GRIDFORMAT
  1
GRIDFORMAT_BEGIN
 90
        0
 91
        1
 62
     0
 92
       -2
340
0
 93
        0
 40
1.125
309
GRIDFORMAT_END
 95
        2
302
GRIDFORMAT
  1
GRIDFORMAT_BEGIN
 90
        0
 91
        1
 62
     0
 92
       -2
340
0
 93
        0
 40
1.125
309
GRIDFORMAT_END
 95
        4
302
GRIDFORMAT
  1
GRIDFORMAT_BEGIN
 90
        0
 91
        1
 62
     0
 92
       -2
340
0
 93
        0
 40
1.125
309
GRIDFORMAT_END
 95
        8
302
GRIDFORMAT
  1
GRIDFORMAT_BEGIN
 90
        0
 91
        1
 62
     0
 92
       -2
340
0
 93
        0
 40
1.125
309
GRIDFORMAT_END
 95
       16
302
GRIDFORMAT
  1
GRIDFORMAT_BEGIN
 90
        0
 91
        1
 62
     0
 92
       -2
340
0
 93
        0
 40
1.125
309
GRIDFORMAT_END
 95
       32
302
GRIDFORMAT
  1
GRIDFORMAT_BEGIN
 90
        0
 91
        1
 62
     0
 92
       -2
340
0
 93
        0
 40
1.125
309
GRIDFORMAT_END
309
TABLEFORMAT_END
  1
CELLSTYLE_BEGIN
 90
        3
 91
        2
300
_DATA
309
CELLSTYLE_END
  0
ENDSEC
  0
EOF
