  0
SECTION
  2
HEADER
  9
$ACADVER
  1
AC1015
  9
$ACADMAINTVER
 70
     6
  9
$DWGCODEPAGE
  3
ANSI_1252
  9
$INSBASE
 10
0.0
 20
0.0
 30
0.0
  9
$EXTMIN
 10
-70.0
 20
-70.0
 30
0.0
  9
$EXTMAX
 10
70.0
 20
70.0
 30
0.0
  9
$LIMMIN
 10
0.0
 20
0.0
  9
$LIMMAX
 10
420.0
 20
297.0
  9
$ORTHOMODE
 70
     0
  9
$REGENMODE
 70
     1
  9
$FILLMODE
 70
     1
  9
$QTEXTMODE
 70
     0
  9
$MIRRTEXT
 70
     1
  9
$LTSCALE
 40
1.0
  9
$ATTMODE
 70
     1
  9
$TEXTSIZE
 40
3.5
  9
$TRACEWID
 40
1.0
  9
$TEXTSTYLE
  7
Standard
  9
$CLAYER
  8
0
  9
$CELTYPE
  6
ByLayer
  9
$CECOLOR
 62
   256
  9
$CELTSCALE
 40
1.0
  9
$DISPSILH
 70
     0
  9
$DIMSCALE
 40
1.0
  9
$DIMASZ
 40
3.302
  9
$DIMEXO
 40
0.0
  9
$DIMDLI
 40
3.75
  9
$DIMRND
 40
0.0
  9
$DIMDLE
 40
0.0
  9
$DIMEXE
 40
3.175
  9
$DIMTP
 40
0.0
  9
$DIMTM
 40
0.0
  9
$DIMTXT
 40
3.5
  9
$DIMCEN
 40
2.5
  9
$DIMTSZ
 40
0.0
  9
$DIMTOL
 70
     0
  9
$DIMLIM
 70
     0
  9
$DIMTIH
 70
     1
  9
$DIMTOH
 70
     1
  9
$DIMSE1
 70
     0
  9
$DIMSE2
 70
     0
  9
$DIMTAD
 70
     1
  9
$DIMZIN
 70
     1
  9
$DIMBLK
  1

  9
$DIMASO
 70
     1
  9
$DIMSHO
 70
     1
  9
$DIMPOST
  1

  9
$DIMAPOST
  1

  9
$DIMALT
 70
     0
  9
$DIMALTD
 70
     3
  9
$DIMALTF
 40
0.0393700787
  9
$DIMLFAC
 40
1.0
  9
$DIMTOFL
 70
     1
  9
$DIMTVP
 40
0.0
  9
$DIMTIX
 70
     0
  9
$DIMSOXD
 70
     0
  9
$DIMSAH
 70
     0
  9
$DIMBLK1
  1

  9
$DIMBLK2
  1

  9
$DIMSTYLE
  2
ISO-25
  9
$DIMCLRD
 70
     0
  9
$DIMCLRE
 70
     0
  9
$DIMCLRT
 70
     0
  9
$DIMTFAC
 40
1.0
  9
$DIMGAP
 40
1.524
  9
$DIMJUST
 70
     0
  9
$DIMSD1
 70
     0
  9
$DIMSD2
 70
     0
  9
$DIMTOLJ
 70
     0
  9
$DIMTZIN
 70
     1
  9
$DIMALTZ
 70
     0
  9
$DIMALTTZ
 70
     0
  9
$DIMUPT
 70
     0
  9
$DIMDEC
 70
     2
  9
$DIMTDEC
 70
     2
  9
$DIMALTU
 70
     2
  9
$DIMALTTD
 70
     3
  9
$DIMTXSTY
  7
Standard
  9
$DIMAUNIT
 70
     0
  9
$DIMADEC
 70
     2
  9
$DIMALTRND
 40
0.0
  9
$DIMAZIN
 70
     0
  9
$DIMDSEP
 70
    44
  9
$DIMATFIT
 70
     3
  9
$DIMFRAC
 70
     0
  9
$DIMLDRBLK
  1

  9
$DIMLUNIT
 70
     2
  9
$DIMLWD
 70
    -2
  9
$DIMLWE
 70
    -2
  9
$DIMTMOVE
 70
     0
  9
$LUNITS
 70
     2
  9
$LUPREC
 70
     2
  9
$SKETCHINC
 40
1.0
  9
$FILLETRAD
 40
10.0
  9
$AUNITS
 70
     0
  9
$AUPREC
 70
     2
  9
$MENU
  1
.
  9
$ELEVATION
 40
0.0
  9
$PELEVATION
 40
0.0
  9
$THICKNESS
 40
0.0
  9
$LIMCHECK
 70
     0
  9
$CHAMFERA
 40
0.0
  9
$CHAMFERB
 40
0.0
  9
$CHAMFERC
 40
0.0
  9
$CHAMFERD
 40
0.0
  9
$SKPOLY
 70
     0
  9
$TDCREATE
 40
2459359.476506435
  9
$TDUCREATE
 40
2459359.247339768
  9
$TDUPDATE
 40
2459359.476606898
  9
$TDUUPDATE
 40
2459359.247440231
  9
$TDINDWG
 40
0.0000000116
  9
$TDUSRTIMER
 40
0.0000000116
  9
$USRTIMER
 70
     1
  9
$ANGBASE
 50
0.0
  9
$ANGDIR
 70
     0
  9
$PDMODE
 70
     0
  9
$PDSIZE
 40
-1.0
  9
$PLINEWID
 40
0.0
  9
$SPLFRAME
 70
     0
  9
$SPLINETYPE
 70
     6
  9
$SPLINESEGS
 70
     8
  9
$HANDSEED
  5
A4
  9
$SURFTAB1
 70
     6
  9
$SURFTAB2
 70
     6
  9
$SURFTYPE
 70
     6
  9
$SURFU
 70
     6
  9
$SURFV
 70
     6
  9
$UCSBASE
  2

  9
$UCSNAME
  2

  9
$UCSORG
 10
0.0
 20
0.0
 30
0.0
  9
$UCSXDIR
 10
1.0
 20
0.0
 30
0.0
  9
$UCSYDIR
 10
0.0
 20
1.0
 30
0.0
  9
$UCSORTHOREF
  2

  9
$UCSORTHOVIEW
 70
     0
  9
$UCSORGTOP
 10
0.0
 20
0.0
 30
0.0
  9
$UCSORGBOTTOM
 10
0.0
 20
0.0
 30
0.0
  9
$UCSORGLEFT
 10
0.0
 20
0.0
 30
0.0
  9
$UCSORGRIGHT
 10
0.0
 20
0.0
 30
0.0
  9
$UCSORGFRONT
 10
0.0
 20
0.0
 30
0.0
  9
$UCSORGBACK
 10
0.0
 20
0.0
 30
0.0
  9
$PUCSBASE
  2

  9
$PUCSNAME
  2

  9
$PUCSORG
 10
0.0
 20
0.0
 30
0.0
  9
$PUCSXDIR
 10
1.0
 20
0.0
 30
0.0
  9
$PUCSYDIR
 10
0.0
 20
1.0
 30
0.0
  9
$PUCSORTHOREF
  2

  9
$PUCSORTHOVIEW
 70
     0
  9
$PUCSORGTOP
 10
0.0
 20
0.0
 30
0.0
  9
$PUCSORGBOTTOM
 10
0.0
 20
0.0
 30
0.0
  9
$PUCSORGLEFT
 10
0.0
 20
0.0
 30
0.0
  9
$PUCSORGRIGHT
 10
0.0
 20
0.0
 30
0.0
  9
$PUCSORGFRONT
 10
0.0
 20
0.0
 30
0.0
  9
$PUCSORGBACK
 10
0.0
 20
0.0
 30
0.0
  9
$USERI1
 70
     0
  9
$USERI2
 70
     0
  9
$USERI3
 70
     0
  9
$USERI4
 70
     0
  9
$USERI5
 70
     0
  9
$USERR1
 40
0.0
  9
$USERR2
 40
0.0
  9
$USERR3
 40
0.0
  9
$USERR4
 40
0.0
  9
$USERR5
 40
0.0
  9
$WORLDVIEW
 70
     1
  9
$SHADEDGE
 70
     3
  9
$SHADEDIF
 70
    70
  9
$TILEMODE
 70
     1
  9
$MAXACTVP
 70
    64
  9
$PINSBASE
 10
0.0
 20
0.0
 30
0.0
  9
$PLIMCHECK
 70
     0
  9
$PEXTMIN
 10
-70.0
 20
-70.0
 30
0.0
  9
$PEXTMAX
 10
70.0
 20
70.0
 30
0.0
  9
$PLIMMIN
 10
-84.358974359
 20
-75.3846153846
  9
$PLIMMAX
 10
128.8717948718
 20
75.3846153846
  9
$UNITMODE
 70
     0
  9
$VISRETAIN
 70
     1
  9
$PLINEGEN
 70
     0
  9
$PSLTSCALE
 70
     1
  9
$TREEDEPTH
 70
  3020
  9
$CMLSTYLE
  2
Standard
  9
$CMLJUST
 70
     0
  9
$CMLSCALE
 40
20.0
  9
$PROXYGRAPHICS
 70
     1
  9
$MEASUREMENT
 70
     1
  9
$CELWEIGHT
370
    -1
  9
$ENDCAPS
280
     0
  9
$JOINSTYLE
280
     0
  9
$LWDISPLAY
290
     1
  9
$INSUNITS
 70
     4
  9
$HYPERLINKBASE
  1

  9
$STYLESHEET
  1

  9
$XEDIT
290
     1
  9
$CEPSNTYPE
380
     0
  9
$PSTYLEMODE
290
     1
  9
$FINGERPRINTGUID
  2
{b701c69f-ac47-458b-a2c4-de398395de54}
  9
$VERSIONGUID
  2
{FAEB1C32-E019-11D5-929B-00C0DF256EC4}
  9
$EXTNAMES
290
     1
  9
$PSVPSCALE
 40
0.0
  9
$OLESTARTUP
290
     0
  0
ENDSEC
  0
SECTION
  2
CLASSES
  0
CLASS
  1
ACDBDICTIONARYWDFLT
  2
AcDbDictionaryWithDefault
  3
ObjectDBX Classes
 90
        0
280
     0
281
     0
  0
CLASS
  1
VISUALSTYLE
  2
AcDbVisualStyle
  3
ObjectDBX Classes
 90
     4095
280
     0
281
     0
  0
CLASS
  1
MATERIAL
  2
AcDbMaterial
  3
ObjectDBX Classes
 90
     1153
280
     0
281
     0
  0
CLASS
  1
SCALE
  2
AcDbScale
  3
ObjectDBX Classes
 90
     1153
280
     0
281
     0
  0
CLASS
  1
TABLESTYLE
  2
AcDbTableStyle
  3
ObjectDBX Classes
 90
     4095
280
     0
281
     0
  0
CLASS
  1
MLEADERSTYLE
  2
AcDbMLeaderStyle
  3
ACDB_MLEADERSTYLE_CLASS
 90
     4095
280
     0
281
     0
  0
CLASS
  1
SUN
  2
AcDbSun
  3
SCENEOE
 90
     1153
280
     0
281
     0
  0
CLASS
  1
ACDBPLACEHOLDER
  2
AcDbPlaceHolder
  3
ObjectDBX Classes
 90
        0
280
     0
281
     0
  0
CLASS
  1
LAYOUT
  2
AcDbLayout
  3
ObjectDBX Classes
 90
        0
280
     0
281
     0
  0
ENDSEC
  0
SECTION
  2
TABLES
  0
TABLE
  2
VPORT
  5
8
330
0
100
AcDbSymbolTable
 70
     1
  0
VPORT
  5
29
330
8
100
AcDbSymbolTableRecord
100
AcDbViewportTableRecord
  2
*Active
 70
     0
 10
0.0
 20
0.0
 11
1.0
 21
1.0
 12
0.0
 22
0.0
 13
0.0
 23
0.0
 14
10.0
 24
10.0
 15
10.0
 25
10.0
 16
0.0
 26
0.0
 36
1.0
 17
0.0
 27
0.0
 37
0.0
 40
142.8
 41
1.0
 42
50.0
 43
0.0
 44
0.0
 50
0.0
 51
0.0
 71
     0
 72
   100
 73
     1
 74
     3
 75
     0
 76
     0
 77
     0
 78
     0
281
     0
 65
     1
110
0.0
120
0.0
130
0.0
111
1.0
121
0.0
131
0.0
112
0.0
122
1.0
132
0.0
 79
     0
146
0.0
  0
ENDTAB
  0
TABLE
  2
LTYPE
  5
5
330
0
100
AcDbSymbolTable
 70
     6
  0
LTYPE
  5
14
330
5
100
AcDbSymbolTableRecord
100
AcDbLinetypeTableRecord
  2
ByBlock
 70
     0
  3

 72
    65
 73
     0
 40
0.0
  0
LTYPE
  5
15
330
5
100
AcDbSymbolTableRecord
100
AcDbLinetypeTableRecord
  2
ByLayer
 70
     0
  3

 72
    65
 73
     0
 40
0.0
  0
LTYPE
  5
16
330
5
100
AcDbSymbolTableRecord
100
AcDbLinetypeTableRecord
  2
Continuous
 70
     0
  3
Solid line
 72
    65
 73
     0
 40
0.0
  0
LTYPE
  5
6E
330
5
100
AcDbSymbolTableRecord
100
AcDbLinetypeTableRecord
  2
HIDDEN
 70
     0
  3
Hidden __ __ __ __ __ __ __ __ __ __ __ __ __ __
 72
    65
 73
     2
 40
1.905
 49
1.27
 74
     0
 49
-0.635
 74
     0
  0
LTYPE
  5
6F
330
5
100
AcDbSymbolTableRecord
100
AcDbLinetypeTableRecord
  2
PHANTOM
 70
     0
  3
Phantom ______  __  __  ______  __  __  ______
 72
    65
 73
     6
 40
12.7
 49
6.35
 74
     0
 49
-1.27
 74
     0
 49
1.27
 74
     0
 49
-1.27
 74
     0
 49
1.27
 74
     0
 49
-1.27
 74
     0
  0
LTYPE
  5
70
330
5
100
AcDbSymbolTableRecord
100
AcDbLinetypeTableRecord
  2
CENTER
 70
     0
  3
Center ____ _ ____ _ ____ _ ____ _ ____ _ ____
 72
    65
 73
     4
 40
10.16
 49
6.35
 74
     0
 49
-1.27
 74
     0
 49
1.27
 74
     0
 49
-1.27
 74
     0
  0
LTYPE
  5
71
330
5
100
AcDbSymbolTableRecord
100
AcDbLinetypeTableRecord
  2
CENTERX2
 70
     0
  3
Center (2x) ________  __  ________  __  _____
 72
    65
 73
     4
 40
20.32
 49
12.7
 74
     0
 49
-2.54
 74
     0
 49
2.54
 74
     0
 49
-2.54
 74
     0
  0
LTYPE
  5
72
330
5
100
AcDbSymbolTableRecord
100
AcDbLinetypeTableRecord
  2
DOT2
 70
     0
  3
Dot (.5x) ........................................
 72
    65
 73
     2
 40
0.635
 49
0.0
 74
     0
 49
-0.635
 74
     0
  0
ENDTAB
  0
TABLE
  2
LAYER
  5
2
330
0
100
AcDbSymbolTable
 70
     1
  0
LAYER
  5
10
330
2
100
AcDbSymbolTableRecord
100
AcDbLayerTableRecord
  2
0
 70
     0
 62
     7
  6
Continuous
370
    -3
390
F
  0
ENDTAB
  0
TABLE
  2
STYLE
  5
3
330
0
100
AcDbSymbolTable
 70
     1
  0
STYLE
  5
11
330
3
100
AcDbSymbolTableRecord
100
AcDbTextStyleTableRecord
  2
Standard
 70
     0
 40
0.0
 41
1.0
 50
0.0
 71
     0
 42
3.5
  3
txt
  4

  0
ENDTAB
  0
TABLE
  2
VIEW
  5
6
330
0
100
AcDbSymbolTable
 70
     0
  0
ENDTAB
  0
TABLE
  2
UCS
  5
7
330
0
100
AcDbSymbolTable
 70
     0
  0
ENDTAB
  0
TABLE
  2
APPID
  5
9
330
0
100
AcDbSymbolTable
 70
     1
  0
APPID
  5
12
330
9
100
AcDbSymbolTableRecord
100
AcDbRegAppTableRecord
  2
ACAD
 70
     0
  0
ENDTAB
  0
TABLE
  2
DIMSTYLE
  5
A
330
0
100
AcDbSymbolTable
 70
     1
100
AcDbDimStyleTable
  0
DIMSTYLE
105
27
330
A
100
AcDbSymbolTableRecord
100
AcDbDimStyleTableRecord
  2
ISO-25
 70
     0
 41
2.5
 42
0.625
 43
3.75
 44
1.25
 73
     0
 74
     0
 77
     1
 78
     8
140
2.5
141
2.5
143
0.0393700787
147
0.625
171
     3
172
     1
178
     0
271
     2
272
     2
274
     3
278
    44
283
     0
284
     8
340
11
  0
ENDTAB
  0
TABLE
  2
BLOCK_RECORD
  5
1
330
0
100
AcDbSymbolTable
 70
     1
  0
BLOCK_RECORD
  5
1F
330
1
100
AcDbSymbolTableRecord
100
AcDbBlockTableRecord
  2
*Model_Space
340
22
  0
BLOCK_RECORD
  5
1B
330
1
100
AcDbSymbolTableRecord
100
AcDbBlockTableRecord
  2
*Paper_Space
340
1E
  0
BLOCK_RECORD
  5
23
330
1
100
AcDbSymbolTableRecord
100
AcDbBlockTableRecord
  2
*Paper_Space0
340
26
  0
ENDTAB
  0
ENDSEC
  0
SECTION
  2
BLOCKS
  0
BLOCK
  5
20
330
1F
100
AcDbEntity
  8
0
100
AcDbBlockBegin
  2
*Model_Space
 70
     0
 10
0.0
 20
0.0
 30
0.0
  3
*Model_Space
  1

  0
ENDBLK
  5
21
330
1F
100
AcDbEntity
  8
0
100
AcDbBlockEnd
  0
BLOCK
  5
1C
330
1B
100
AcDbEntity
 67
     1
  8
0
100
AcDbBlockBegin
  2
*Paper_Space
 70
     0
 10
0.0
 20
0.0
 30
0.0
  3
*Paper_Space
  1

  0
ENDBLK
  5
1D
330
1B
100
AcDbEntity
 67
     1
  8
0
100
AcDbBlockEnd
  0
BLOCK
  5
24
330
23
100
AcDbEntity
  8
0
100
AcDbBlockBegin
  2
*Paper_Space0
 70
     0
 10
0.0
 20
0.0
 30
0.0
  3
*Paper_Space0
  1

  0
LWPOLYLINE
  5
8D
330
23
100
AcDbEntity
  8
0
  6
Continuous
 62
     7
370
    25
100
AcDbPolyline
 90
      143
 70
   128
 43
0.0
 10
-49.4974746831
 20
-22.0419574187
 10
-47.2595889078
 20
-23.2779258752
 10
-44.929190268
 20
-24.4555393628
 10
-42.5108406283
 20
-25.5724926477
 10
-40.0092740218
 20
-26.6265992416
 10
-37.4293873826
 20
-27.6157956812
 10
-34.7762309599
 20
-28.538145568
 10
-32.0549984319
 20
-29.3918433588
 10
-29.2710167393
 20
-30.1752179002
 10
-26.4297356568
 20
-30.8867356996
 10
-23.5367171256
 20
-31.5250039276
 10
-20.5976243654
 20
-32.0887731441
 10
-17.6182107882
 20
-32.5769397444
 10
-14.604308736
 20
-32.9885481194
 10
-11.5618180636
 20
-33.3227925265
 10
-8.4966945895
 20
-33.5790186665
 10
-5.4149384367
 20
-33.7567249648
 10
-2.3225822876
 20
-33.8555635528
 10
0.7743204254
 20
-33.8753409494
 10
3.8697073698
 20
-33.8160184395
 10
6.9575191803
 20
-33.6777121496
 10
10.0317113202
 20
-33.4606928208
 10
13.0862659142
 20
-33.1653852786
 10
16.1152035281
 20
-32.7923676014
 10
19.1125948743
 20
-32.3423699888
 10
22.0725724186
 20
-31.8162733323
 10
24.9893418658
 20
-31.2151074908
 10
27.8571935028
 20
-30.5400492746
 10
30.6705133753
 20
-29.7924201419
 10
33.4237942776
 20
-28.9736836119
 10
36.1116465331
 20
-28.0854423997
 10
38.7288085446
 20
-27.1294352793
 10
41.2701570947
 20
-26.1075336794
 10
43.7307173743
 20
-25.0217380205
 10
46.105672721
 20
-23.8741737985
 10
48.3903740482
 20
-22.6670874243
 10
50.5803489458
 20
-21.4028418262
 10
52.6713104351
 20
-20.0839118242
 10
54.6591653607
 20
-18.7128792858
 10
56.5400224034
 20
-17.2924280715
 10
58.3101996971
 20
-15.8253387814
 10
59.9662320366
 20
-14.3144833116
 10
61.5048776609
 20
-12.7628192327
 10
62.9231245989
 20
-11.1733839998
 10
64.2181965657
 20
-9.5492890073
 10
65.387558397
 20
-7.8937134971
 10
66.4289210121
 20
-6.2098983363
 10
67.3402458948
 20
-4.5011396719
 10
68.1197490839
 20
-2.7707824794
 10
68.7659046652
 20
-1.0222140143
 10
69.2774477589
 20
0.7411428187
 10
69.6533769954
 20
2.5158361657
 10
69.8929564754
 20
4.2983919812
 10
69.995717211
 20
6.0853208283
 10
69.9614580431
 20
7.87312471
 10
69.7902460357
 20
9.6583039163
 10
69.4824163444
 20
11.4373638749
 10
69.0385715601
 20
13.2068219926
 10
68.45958053
 20
14.9632144719
 10
67.7465766561
 20
16.703103092
 10
66.9009556771
 20
18.4230819394
 10
65.9243729356
 20
20.1197840745
 10
64.8187401383
 20
21.7898881234
 10
63.5862216132
 20
23.4301247789
 10
62.2292300734
 20
25.0372832008
 10
60.7504218934
 20
26.6082173009
 10
59.1526919097
 20
28.1398519019
 10
57.4391677538
 20
29.6291887573
 10
55.6132037296
 20
31.0733124202
 10
53.6783742476
 20
32.4693959507
 10
51.6384668272
 20
33.8147064498
 10
49.4974746831
 20
35.1066104089
 10
47.2595889078
 20
36.3425788654
 10
44.929190268
 20
37.5201923529
 10
42.5108406283
 20
38.6371456379
 10
40.0092740218
 20
39.6912522318
 10
37.4293873826
 20
40.6804486713
 10
34.7762309599
 20
41.6027985582
 10
32.0549984319
 20
42.456496349
 10
29.2710167393
 20
43.2398708904
 10
26.4297356568
 20
43.9513886898
 10
23.5367171256
 20
44.5896569177
 10
20.5976243654
 20
45.1534261342
 10
17.6182107882
 20
45.6415927345
 10
14.604308736
 20
46.0532011096
 10
11.5618180636
 20
46.3874455167
 10
8.4966945895
 20
46.6436716567
 10
5.4149384367
 20
46.8213779549
 10
2.3225822876
 20
46.920216543
 10
-0.7743204254
 20
46.9399939396
 10
-3.8697073698
 20
46.8806714297
 10
-6.9575191803
 20
46.7423651398
 10
-10.0317113202
 20
46.5253458109
 10
-13.0862659142
 20
46.2300382688
 10
-16.1152035281
 20
45.8570205915
 10
-19.1125948743
 20
45.407022979
 10
-22.0725724186
 20
44.8809263225
 10
-24.9893418658
 20
44.2797604809
 10
-27.8571935028
 20
43.6047022648
 10
-30.6705133753
 20
42.8570731321
 10
-33.4237942776
 20
42.0383366021
 10
-36.1116465331
 20
41.1500953899
 10
-38.7288085446
 20
40.1940882695
 10
-41.2701570947
 20
39.1721866696
 10
-43.7307173743
 20
38.0863910107
 10
-46.105672721
 20
36.9388267887
 10
-48.3903740482
 20
35.7317404145
 10
-50.5803489458
 20
34.4674948163
 10
-52.6713104351
 20
33.1485648143
 10
-54.6591653607
 20
31.7775322759
 10
-56.5400224034
 20
30.3570810617
 10
-58.3101996971
 20
28.8899917716
 10
-59.9662320366
 20
27.3791363018
 10
-61.5048776609
 20
25.8274722228
 10
-62.9231245989
 20
24.23803699
 10
-64.2181965657
 20
22.6139419974
 10
-65.387558397
 20
20.9583664873
 10
-66.4289210121
 20
19.2745513264
 10
-67.3402458948
 20
17.5657926621
 10
-68.1197490839
 20
15.8354354696
 10
-68.7659046652
 20
14.0868670044
 10
-69.2774477589
 20
12.3235101714
 10
-69.6533769954
 20
10.5488168244
 10
-69.8929564754
 20
8.766261009
 10
-69.995717211
 20
6.9793321619
 10
-69.9614580431
 20
5.1915282801
 10
-69.7902460357
 20
3.4063490739
 10
-69.4824163444
 20
1.6272891152
 10
-69.0385715601
 20
-0.1421690024
 10
-68.45958053
 20
-1.8985614817
 10
-67.7465766561
 20
-3.6384501019
 10
-66.9009556771
 20
-5.3584289492
 10
-65.9243729356
 20
-7.0551310844
 10
-64.8187401383
 20
-8.7252351332
 10
-63.5862216132
 20
-10.3654717888
 10
-62.2292300734
 20
-11.9726302106
 10
-60.7504218934
 20
-13.5435643107
 10
-59.1526919097
 20
-15.0751989118
 10
-57.4391677538
 20
-16.5645357672
 10
-55.6132037296
 20
-18.0086594301
 10
-53.6783742476
 20
-19.4047429606
 10
-51.6384668272
 20
-20.7500534596
 10
-49.4974746831
 20
-22.0419574187
  0
LWPOLYLINE
  5
8E
330
23
100
AcDbEntity
  8
0
  6
Continuous
 62
     7
370
    25
100
AcDbPolyline
 90
       73
 70
   128
 43
0.0
 10
-70.0
 20
4.0827040594
 10
-69.9614580431
 20
2.7419058445
 10
-69.7902460357
 20
0.9567266382
 10
-69.4824163444
 20
-0.8223333204
 10
-69.0385715601
 20
-2.5917914381
 10
-68.45958053
 20
-4.3481839174
 10
-67.7465766561
 20
-6.0880725375
 10
-66.9009556771
 20
-7.8080513849
 10
-65.9243729356
 20
-9.50475352
 10
-64.8187401383
 20
-11.1748575689
 10
-63.5862216132
 20
-12.8150942244
 10
-62.2292300734
 20
-14.4222526463
 10
-60.7504218934
 20
-15.9931867463
 10
-59.1526919097
 20
-17.5248213474
 10
-57.4391677538
 20
-19.0141582028
 10
-55.6132037296
 20
-20.4582818657
 10
-53.6783742476
 20
-21.8543653962
 10
-51.6384668272
 20
-23.1996758953
 10
-49.4974746831
 20
-24.4915798544
 10
-47.2595889078
 20
-25.7275483108
 10
-44.929190268
 20
-26.9051617984
 10
-42.5108406283
 20
-28.0221150834
 10
-40.0092740218
 20
-29.0762216772
 10
-37.4293873826
 20
-30.0654181168
 10
-34.7762309599
 20
-30.9877680036
 10
-32.0549984319
 20
-31.8414657945
 10
-29.2710167393
 20
-32.6248403358
 10
-26.4297356568
 20
-33.3363581353
 10
-23.5367171256
 20
-33.9746263632
 10
-20.5976243654
 20
-34.5383955797
 10
-17.6182107882
 20
-35.02656218
 10
-14.604308736
 20
-35.4381705551
 10
-11.5618180636
 20
-35.7724149622
 10
-8.4966945895
 20
-36.0286411022
 10
-5.4149384367
 20
-36.2063474004
 10
-2.3225822876
 20
-36.3051859884
 10
0.7743204254
 20
-36.3249633851
 10
3.8697073698
 20
-36.2656408752
 10
6.9575191803
 20
-36.1273345852
 10
10.0317113202
 20
-35.9103152564
 10
13.0862659142
 20
-35.6150077142
 10
16.1152035281
 20
-35.241990037
 10
19.1125948743
 20
-34.7919924244
 10
22.0725724186
 20
-34.2658957679
 10
24.9893418658
 20
-33.6647299264
 10
27.8571935028
 20
-32.9896717102
 10
30.6705133753
 20
-32.2420425776
 10
33.4237942776
 20
-31.4233060476
 10
36.1116465331
 20
-30.5350648354
 10
38.7288085446
 20
-29.579057715
 10
41.2701570947
 20
-28.5571561151
 10
43.7307173743
 20
-27.4713604562
 10
46.105672721
 20
-26.3237962342
 10
48.3903740482
 20
-25.11670986
 10
50.5803489458
 20
-23.8524642618
 10
52.6713104351
 20
-22.5335342598
 10
54.6591653607
 20
-21.1625017214
 10
56.5400224034
 20
-19.7420505072
 10
58.3101996971
 20
-18.2749612171
 10
59.9662320366
 20
-16.7641057473
 10
61.5048776609
 20
-15.2124416683
 10
62.9231245989
 20
-13.6230064355
 10
64.2181965657
 20
-11.9989114429
 10
65.387558397
 20
-10.3433359328
 10
66.4289210121
 20
-8.6595207719
 10
67.3402458948
 20
-6.9507621076
 10
68.1197490839
 20
-5.2204049151
 10
68.7659046652
 20
-3.4718364499
 10
69.2774477589
 20
-1.7084796169
 10
69.6533769954
 20
0.0662137301
 10
69.8929564754
 20
1.8487695455
 10
69.995717211
 20
3.6356983926
 10
70.0
 20
4.0827040594
  0
LWPOLYLINE
  5
8F
330
23
100
AcDbEntity
  8
0
  6
Continuous
 62
     7
370
    25
100
AcDbPolyline
 90
       35
 70
   128
 43
0.0
 10
-2.8284271247
 20
38.0935537164
 10
-2.2605456577
 20
37.8213263217
 10
-1.6156840195
 20
37.6139729025
 10
-0.9158021998
 20
37.478554631
 10
-0.1847338346
 20
37.4196830138
 10
0.5526254198
 20
37.4393628533
 10
1.2711656783
 20
37.5369239763
 10
1.9464179143
 20
37.7090440555
 10
2.5553872226
 20
37.9498617482
 10
3.0773358839
 20
38.2511762968
 10
3.4944895626
 20
38.6027267955
 10
3.7926425904
 20
38.9925416139
 10
3.9616417235
 20
39.4073460758
 10
3.9957318992
 20
39.8330145127
 10
3.8937522174
 20
40.2550512966
 10
3.659175474
 20
40.6590844711
 10
3.2999898984
 20
41.0313551708
 10
2.8284271247
 20
41.3591861636
 10
2.2605456577
 20
41.6314135584
 10
1.6156840195
 20
41.8387669775
 10
0.9158021998
 20
41.974185249
 10
0.1847338346
 20
42.0330568662
 10
-0.5526254198
 20
42.0133770267
 10
-1.2711656783
 20
41.9158159038
 10
-1.9464179143
 20
41.7436958245
 10
-2.5553872226
 20
41.5028781318
 10
-3.0773358839
 20
41.2015635832
 10
-3.4944895626
 20
40.8500130845
 10
-3.7926425904
 20
40.4601982661
 10
-3.9616417235
 20
40.0453938042
 10
-3.9957318992
 20
39.6197253673
 10
-3.8937522174
 20
39.1976885834
 10
-3.659175474
 20
38.7936554089
 10
-3.2999898984
 20
38.4213847092
 10
-2.8284271247
 20
38.0935537164
  0
LWPOLYLINE
  5
90
330
23
100
AcDbEntity
  8
0
  6
Continuous
 62
     7
370
    25
100
AcDbPolyline
 90
       35
 70
   128
 43
0.0
 10
-60.3284271247
 20
4.8995102714
 10
-59.7605456577
 20
4.6272828767
 10
-59.1156840195
 20
4.4199294576
 10
-58.4158021998
 20
4.284511186
 10
-57.6847338346
 20
4.2256395689
 10
-56.9473745802
 20
4.2453194084
 10
-56.2288343217
 20
4.3428805313
 10
-55.5535820857
 20
4.5150006106
 10
-54.9446127774
 20
4.7558183033
 10
-54.4226641161
 20
5.0571328518
 10
-54.0055104374
 20
5.4086833506
 10
-53.7073574096
 20
5.798498169
 10
-53.5383582765
 20
6.2133026308
 10
-53.5042681008
 20
6.6389710678
 10
-53.6062477826
 20
7.0610078517
 10
-53.840824526
 20
7.4650410261
 10
-54.2000101016
 20
7.8373117259
 10
-54.6715728752
 20
8.1651427187
 10
-55.2394543423
 20
8.4373701134
 10
-55.8843159805
 20
8.6447235326
 10
-56.5841978002
 20
8.7801418041
 10
-57.3152661654
 20
8.8390134213
 10
-58.0526254198
 20
8.8193335817
 10
-58.7711656783
 20
8.7217724588
 10
-59.4464179143
 20
8.5496523796
 10
-60.0553872226
 20
8.3088346868
 10
-60.5773358839
 20
8.0075201383
 10
-60.9944895626
 20
7.6559696396
 10
-61.2926425904
 20
7.2661548212
 10
-61.4616417235
 20
6.8513503593
 10
-61.4957318992
 20
6.4256819224
 10
-61.3937522174
 20
6.0036451384
 10
-61.159175474
 20
5.599611964
 10
-60.7999898984
 20
5.2273412643
 10
-60.3284271247
 20
4.8995102714
  0
LWPOLYLINE
  5
91
330
23
100
AcDbEntity
  8
0
  6
Continuous
 62
     7
370
    25
100
AcDbPolyline
 90
       35
 70
   128
 43
0.0
 10
-2.8284271247
 20
-28.2945331735
 10
-2.2605456577
 20
-28.5667605682
 10
-1.6156840195
 20
-28.7741139873
 10
-0.9158021998
 20
-28.9095322589
 10
-0.1847338346
 20
-28.968403876
 10
0.5526254198
 20
-28.9487240365
 10
1.2711656783
 20
-28.8511629136
 10
1.9464179143
 20
-28.6790428343
 10
2.5553872226
 20
-28.4382251416
 10
3.0773358839
 20
-28.1369105931
 10
3.4944895626
 20
-27.7853600943
 10
3.7926425904
 20
-27.395545276
 10
3.9616417235
 20
-26.9807408141
 10
3.9957318992
 20
-26.5550723771
 10
3.8937522175
 20
-26.1330355932
 10
3.659175474
 20
-25.7290024188
 10
3.2999898984
 20
-25.356731719
 10
2.8284271248
 20
-25.0289007262
 10
2.2605456577
 20
-24.7566733315
 10
1.6156840195
 20
-24.5493199124
 10
0.9158021998
 20
-24.4139016408
 10
0.1847338346
 20
-24.3550300236
 10
-0.5526254198
 20
-24.3747098632
 10
-1.2711656783
 20
-24.4722709861
 10
-1.9464179143
 20
-24.6443910653
 10
-2.5553872226
 20
-24.8852087581
 10
-3.0773358839
 20
-25.1865233066
 10
-3.4944895626
 20
-25.5380738053
 10
-3.7926425904
 20
-25.9278886237
 10
-3.9616417235
 20
-26.3426930856
 10
-3.9957318992
 20
-26.7683615225
 10
-3.8937522174
 20
-27.1903983065
 10
-3.659175474
 20
-27.5944314809
 10
-3.2999898984
 20
-27.9667021806
 10
-2.8284271247
 20
-28.2945331735
  0
LWPOLYLINE
  5
92
330
23
100
AcDbEntity
  8
0
  6
Continuous
 62
     7
370
    25
100
AcDbPolyline
 90
       35
 70
   128
 43
0.0
 10
54.6715728753
 20
4.8995102714
 10
55.2394543423
 20
4.6272828767
 10
55.8843159805
 20
4.4199294576
 10
56.5841978002
 20
4.2845111861
 10
57.3152661654
 20
4.2256395689
 10
58.0526254198
 20
4.2453194084
 10
58.7711656783
 20
4.3428805313
 10
59.4464179143
 20
4.5150006106
 10
60.0553872226
 20
4.7558183033
 10
60.5773358839
 20
5.0571328519
 10
60.9944895626
 20
5.4086833506
 10
61.2926425904
 20
5.798498169
 10
61.4616417235
 20
6.2133026308
 10
61.4957318992
 20
6.6389710678
 10
61.3937522174
 20
7.0610078517
 10
61.159175474
 20
7.4650410261
 10
60.7999898984
 20
7.8373117259
 10
60.3284271247
 20
8.1651427187
 10
59.7605456577
 20
8.4373701134
 10
59.1156840195
 20
8.6447235326
 10
58.4158021998
 20
8.7801418041
 10
57.6847338346
 20
8.8390134213
 10
56.9473745802
 20
8.8193335817
 10
56.2288343217
 20
8.7217724588
 10
55.5535820857
 20
8.5496523796
 10
54.9446127774
 20
8.3088346868
 10
54.4226641161
 20
8.0075201383
 10
54.0055104374
 20
7.6559696396
 10
53.7073574096
 20
7.2661548212
 10
53.5383582765
 20
6.8513503593
 10
53.5042681008
 20
6.4256819224
 10
53.6062477826
 20
6.0036451384
 10
53.840824526
 20
5.599611964
 10
54.2000101016
 20
5.2273412643
 10
54.6715728753
 20
4.8995102714
  0
LWPOLYLINE
  5
93
330
23
100
AcDbEntity
  8
0
  6
Continuous
 62
     7
370
    25
100
AcDbPolyline
 90
      118
 70
   128
 43
0.0
 10
-33.5875721064
 20
-12.8573661607
 10
-31.7362836032
 20
-13.8701867618
 10
-29.7934911787
 20
-14.8241816355
 10
-27.7647964065
 20
-15.7166001676
 10
-25.6560485387
 20
-16.5448692846
 10
-23.4733276413
 20
-17.3066008721
 10
-21.2229270638
 20
-17.9995986608
 10
-18.9113352936
 20
-18.6218645587
 10
-16.5452172481
 20
-19.171604412
 10
-14.1313950581
 20
-19.6472331785
 10
-11.676828398
 20
-20.0473794973
 10
-9.1885944188
 20
-20.370889643
 10
-6.6738673433
 20
-20.6168308521
 10
-4.1398977805
 20
-20.7844940124
 10
-1.5939918207
 20
-20.8733957077
 10
0.9565100301
 20
-20.8832796112
 10
3.5042540149
 20
-20.8141172253
 10
6.0418943283
 20
-20.6661079628
 10
8.5621142962
 20
-20.439678573
 10
11.0576474721
 20
-20.1354819102
 10
13.5212985878
 20
-19.7543950522
 10
15.9459642994
 20
-19.2975167712
 10
18.324653668
 20
-18.7661643654
 10
20.6505083163
 20
-18.1618698613
 10
22.9168222033
 20
-17.4863755966
 10
25.1170609594
 20
-16.7416291959
 10
27.2448807267
 20
-15.9297779561
 10
29.2941464499
 20
-15.0531626542
 10
31.2589495654
 20
-14.1143107994
 10
33.1336250373
 20
-13.1159293443
 10
34.9127676908
 20
-12.0608968813
 10
36.5912477972
 20
-10.952255342
 10
38.1642258637
 20
-9.7932012271
 10
39.6271665874
 20
-8.5870763895
 10
40.9758519315
 20
-7.3373583993
 10
42.206393287
 20
-6.0476505172
 10
43.3152426846
 20
-4.7216713048
 10
44.2992030245
 20
-3.3632439033
 10
45.1554372942
 20
-1.9762850107
 10
45.8814767487
 20
-0.5647935885
 10
46.4752280284
 20
0.8671606681
 10
46.9349791945
 20
2.3154490644
 10
47.2594046655
 20
3.77589581
 10
47.4475690387
 20
5.2442900587
 10
47.4989297875
 20
6.71639805
 10
47.4133388256
 20
8.1879753153
 10
47.1910429339
 20
9.6547789165
 10
46.832683049
 20
11.112579679
 10
46.3392924152
 20
12.5571743859
 10
45.7122936055
 20
13.9843978966
 10
44.9534944197
 20
15.3901351564
 10
44.0650826722
 20
16.7703330608
 10
43.0496198842
 20
18.1210121419
 10
41.9100338978
 20
19.4382780423
 10
40.6496104343
 20
20.7183327434
 10
39.2719836209
 20
21.9574855161
 10
37.7811255123
 20
23.1521635623
 10
36.1813346384
 20
24.2989223157
 10
34.4772236104
 20
25.3944553742
 10
32.6737058216
 20
26.4356040322
 10
30.7759812806
 20
27.4193663887
 10
28.7895216185
 20
28.3429060021
 10
26.7200543128
 20
29.2035600687
 10
24.5735461734
 20
29.9988470999
 10
22.3561861391
 20
30.7264740774
 10
20.0743674327
 20
31.3843430642
 10
17.7346691283
 20
31.9705572538
 10
15.3438371818
 20
32.4834264389
 10
12.9087649806
 20
32.9214718848
 10
10.4364734683
 20
33.2834305931
 10
7.9340909013
 20
33.5682589433
 10
5.4088322963
 20
33.7751357013
 10
2.8679786276
 20
33.9034643881
 10
0.318855834
 20
33.9528749986
 10
-2.2311863034
 20
33.9232250694
 10
-4.7747953532
 20
33.8146000889
 10
-7.3046374319
 20
33.6273132511
 10
-9.8134183499
 20
33.3619045522
 10
-12.2939046424
 20
33.0191392345
 10
-14.7389444252
 20
32.6000055789
 10
-17.1414880158
 20
32.1057120563
 10
-19.494608259
 20
31.5376838429
 10
-21.7915205
 20
30.8975587111
 10
-24.0256021461
 20
30.1871823074
 10
-26.1904117618
 20
29.4086028308
 10
-28.2797076403
 20
28.5640651275
 10
-30.287465801
 20
27.6560042183
 10
-32.2078973571
 20
26.6870382779
 10
-34.0354652075
 20
25.659961086
 10
-35.7649000008
 20
24.5777339719
 10
-37.3912153289
 20
23.4434772766
 10
-38.9097221037
 20
22.2604613558
 10
-40.3160420771
 20
21.0320971507
 10
-41.6061204644
 20
19.7619263531
 10
-42.7762376358
 20
18.4536111944
 10
-43.8230198406
 20
17.1109238858
 10
-44.7434489346
 20
15.7377357425
 10
-45.5348710825
 20
14.3380060213
 10
-46.1950044094
 20
12.9157705053
 10
-46.72194558
 20
11.4751298677
 10
-47.1141752865
 20
10.0202378485
 10
-47.3705626291
 20
8.5552892779
 10
-47.4903683768
 20
7.084507982
 10
-47.4732470985
 20
5.6121346038
 10
-47.3192481594
 20
4.1424143771
 10
-47.0288155782
 20
2.6795848857
 10
-46.6027867472
 20
1.2278638457
 10
-46.0423900179
 20
-0.2085630552
 10
-45.3492411592
 20
-1.6255542266
 10
-44.5253386985
 20
-3.019024116
 10
-43.57305816
 20
-4.384954989
 10
-42.495145215
 20
-5.7194085133
 10
-41.2947077655
 20
-7.018537114
 10
-39.9752069836
 20
-8.278595067
 10
-38.5404473314
 20
-9.4959492989
 10
-36.9945655926
 20
-10.6670898625
 10
-35.3420189443
 20
-11.7886400563
 10
-33.5875721064
 20
-12.8573661607
  0
LWPOLYLINE
  5
94
330
23
100
AcDbEntity
  8
0
  6
Continuous
 62
     7
370
    25
100
AcDbPolyline
 90
       35
 70
   128
 43
0.0
 10
37.8302127935
 20
28.3712434863
 10
38.3980942605
 20
28.0990160916
 10
39.0429558987
 20
27.8916626725
 10
39.7428377184
 20
27.756244401
 10
40.4739060836
 20
27.6973727838
 10
41.211265338
 20
27.7170526233
 10
41.9298055966
 20
27.8146137462
 10
42.6050578325
 20
27.9867338255
 10
43.2140271408
 20
28.2275515182
 10
43.7359758022
 20
28.5288660668
 10
44.1531294808
 20
28.8804165655
 10
44.4512825086
 20
29.2702313839
 10
44.6202816417
 20
29.6850358457
 10
44.6543718174
 20
30.1107042827
 10
44.5523921357
 20
30.5327410666
 10
44.3178153922
 20
30.9367742411
 10
43.9586298166
 20
31.3090449408
 10
43.487067043
 20
31.6368759336
 10
42.9191855759
 20
31.9091033283
 10
42.2743239377
 20
32.1164567475
 10
41.574442118
 20
32.251875019
 10
40.8433737528
 20
32.3107466362
 10
40.1060144984
 20
32.2910667967
 10
39.3874742399
 20
32.1935056737
 10
38.712222004
 20
32.0213855945
 10
38.1032526956
 20
31.7805679017
 10
37.5813040343
 20
31.4792533532
 10
37.1641503556
 20
31.1277028545
 10
36.8659973279
 20
30.7378880361
 10
36.6969981947
 20
30.3230835742
 10
36.662908019
 20
29.8974151373
 10
36.7648877008
 20
29.4753783533
 10
36.9994644443
 20
29.0713451789
 10
37.3586500198
 20
28.6990744792
 10
37.8302127935
 20
28.3712434863
  0
LWPOLYLINE
  5
95
330
23
100
AcDbEntity
  8
0
  6
Continuous
 62
     7
370
    25
100
AcDbPolyline
 90
       35
 70
   128
 43
0.0
 10
37.8302127935
 20
-18.5722229435
 10
38.3980942605
 20
-18.8444503382
 10
39.0429558987
 20
-19.0518037573
 10
39.7428377184
 20
-19.1872220289
 10
40.4739060836
 20
-19.246093646
 10
41.211265338
 20
-19.2264138065
 10
41.9298055966
 20
-19.1288526836
 10
42.6050578325
 20
-18.9567326043
 10
43.2140271408
 20
-18.7159149116
 10
43.7359758022
 20
-18.414600363
 10
44.1531294808
 20
-18.0630498643
 10
44.4512825086
 20
-17.6732350459
 10
44.6202816417
 20
-17.2584305841
 10
44.6543718174
 20
-16.8327621471
 10
44.5523921357
 20
-16.4107253632
 10
44.3178153922
 20
-16.0066921888
 10
43.9586298166
 20
-15.634421489
 10
43.487067043
 20
-15.3065904962
 10
42.9191855759
 20
-15.0343631015
 10
42.2743239377
 20
-14.8270096823
 10
41.574442118
 20
-14.6915914108
 10
40.8433737528
 20
-14.6327197936
 10
40.1060144984
 20
-14.6523996332
 10
39.3874742399
 20
-14.7499607561
 10
38.712222004
 20
-14.9220808353
 10
38.1032526956
 20
-15.1628985281
 10
37.5813040343
 20
-15.4642130766
 10
37.1641503556
 20
-15.8157635753
 10
36.8659973279
 20
-16.2055783937
 10
36.6969981947
 20
-16.6203828556
 10
36.662908019
 20
-17.0460512925
 10
36.7648877008
 20
-17.4680880765
 10
36.9994644443
 20
-17.8721212509
 10
37.3586500198
 20
-18.2443919506
 10
37.8302127935
 20
-18.5722229435
  0
LWPOLYLINE
  5
96
330
23
100
AcDbEntity
  8
0
  6
Continuous
 62
     7
370
    25
100
AcDbPolyline
 90
       35
 70
   128
 43
0.0
 10
-43.487067043
 20
-18.5722229435
 10
-42.9191855759
 20
-18.8444503382
 10
-42.2743239377
 20
-19.0518037573
 10
-41.574442118
 20
-19.1872220289
 10
-40.8433737528
 20
-19.246093646
 10
-40.1060144984
 20
-19.2264138065
 10
-39.3874742399
 20
-19.1288526836
 10
-38.712222004
 20
-18.9567326043
 10
-38.1032526956
 20
-18.7159149116
 10
-37.5813040343
 20
-18.4146003631
 10
-37.1641503556
 20
-18.0630498643
 10
-36.8659973279
 20
-17.6732350459
 10
-36.6969981947
 20
-17.2584305841
 10
-36.662908019
 20
-16.8327621471
 10
-36.7648877008
 20
-16.4107253632
 10
-36.9994644443
 20
-16.0066921888
 10
-37.3586500198
 20
-15.634421489
 10
-37.8302127935
 20
-15.3065904962
 10
-38.3980942605
 20
-15.0343631015
 10
-39.0429558987
 20
-14.8270096823
 10
-39.7428377184
 20
-14.6915914108
 10
-40.4739060836
 20
-14.6327197936
 10
-41.211265338
 20
-14.6523996332
 10
-41.9298055966
 20
-14.7499607561
 10
-42.6050578325
 20
-14.9220808353
 10
-43.2140271408
 20
-15.1628985281
 10
-43.7359758022
 20
-15.4642130766
 10
-44.1531294808
 20
-15.8157635753
 10
-44.4512825086
 20
-16.2055783937
 10
-44.6202816417
 20
-16.6203828556
 10
-44.6543718174
 20
-17.0460512925
 10
-44.5523921357
 20
-17.4680880765
 10
-44.3178153922
 20
-17.8721212509
 10
-43.9586298166
 20
-18.2443919506
 10
-43.487067043
 20
-18.5722229435
  0
LWPOLYLINE
  5
97
330
23
100
AcDbEntity
  8
0
  6
Continuous
 62
     7
370
    25
100
AcDbPolyline
 90
       35
 70
   128
 43
0.0
 10
-43.487067043
 20
28.3712434863
 10
-42.9191855759
 20
28.0990160916
 10
-42.2743239377
 20
27.8916626725
 10
-41.574442118
 20
27.7562444009
 10
-40.8433737528
 20
27.6973727838
 10
-40.1060144984
 20
27.7170526233
 10
-39.3874742399
 20
27.8146137462
 10
-38.712222004
 20
27.9867338255
 10
-38.1032526956
 20
28.2275515182
 10
-37.5813040343
 20
28.5288660668
 10
-37.1641503556
 20
28.8804165655
 10
-36.8659973279
 20
29.2702313839
 10
-36.6969981947
 20
29.6850358457
 10
-36.662908019
 20
30.1107042827
 10
-36.7648877008
 20
30.5327410666
 10
-36.9994644443
 20
30.9367742411
 10
-37.3586500198
 20
31.3090449408
 10
-37.8302127935
 20
31.6368759336
 10
-38.3980942605
 20
31.9091033283
 10
-39.0429558987
 20
32.1164567475
 10
-39.7428377184
 20
32.251875019
 10
-40.4739060836
 20
32.3107466362
 10
-41.211265338
 20
32.2910667967
 10
-41.9298055966
 20
32.1935056737
 10
-42.6050578325
 20
32.0213855945
 10
-43.2140271408
 20
31.7805679017
 10
-43.7359758022
 20
31.4792533532
 10
-44.1531294808
 20
31.1277028545
 10
-44.4512825086
 20
30.7378880361
 10
-44.6202816417
 20
30.3230835742
 10
-44.6543718174
 20
29.8974151373
 10
-44.5523921357
 20
29.4753783533
 10
-44.3178153922
 20
29.0713451789
 10
-43.9586298166
 20
28.6990744792
 10
-43.487067043
 20
28.3712434863
  0
LWPOLYLINE
  5
98
330
23
100
AcDbEntity
  8
0
  6
Continuous
 62
     7
370
    25
100
AcDbPolyline
 90
       38
 70
   128
 43
0.0
 10
48.0910740982
 20
-25.3037422974
 10
48.0832611207
 20
-25.3082533663
 10
45.8775971234
 20
-26.5256554212
 10
43.579541751
 20
-27.6847051225
 10
41.1937229812
 20
-28.7830682986
 10
38.7249455355
 20
-29.818532992
 10
36.178181203
 20
-30.7890139147
 10
33.5585588284
 20
-31.6925566472
 10
30.8713539823
 20
-32.5273415749
 10
28.1219783377
 20
-33.2916875518
 10
25.3159687713
 20
-33.984055287
 10
22.458976213
 20
-34.6030504439
 10
19.5567542654
 20
-35.1474264488
 10
16.6151476174
 20
-35.6160870007
 10
13.6400802733
 20
-36.0080882796
 10
10.6375436227
 20
-36.3226408473
 10
7.613584375
 20
-36.5591112366
 10
4.5742923816
 20
-36.7170232276
 10
1.5257883721
 20
-36.7960588067
 10
-1.5257883721
 20
-36.7960588067
 10
-4.5742923816
 20
-36.7170232276
 10
-7.613584375
 20
-36.5591112366
 10
-10.6375436227
 20
-36.3226408473
 10
-13.6400802733
 20
-36.0080882796
 10
-16.6151476174
 20
-35.6160870007
 10
-19.5567542654
 20
-35.1474264488
 10
-22.458976213
 20
-34.6030504439
 10
-25.3159687713
 20
-33.984055287
 10
-28.1219783377
 20
-33.2916875518
 10
-30.8713539823
 20
-32.5273415749
 10
-33.5585588284
 20
-31.6925566472
 10
-36.178181203
 20
-30.7890139147
 10
-38.7249455355
 20
-29.818532992
 10
-41.1937229812
 20
-28.7830682986
 10
-43.579541751
 20
-27.6847051225
 10
-45.8775971234
 20
-26.5256554212
 10
-48.0832611207
 20
-25.3082533663
 10
-48.0910740982
 20
-25.3037422974
  0
LWPOLYLINE
  5
99
330
23
100
AcDbEntity
  8
0
  6
Continuous
 62
     7
370
    25
100
AcDbPolyline
 90
       51
 70
   128
 43
0.0
 10
60.0928159399
 20
-16.6422743293
 10
59.1096084247
 20
-17.7770564446
 10
57.6577248886
 20
-19.3008379773
 10
56.0880499244
 20
-20.7851890038
 10
54.403790288
 20
-22.2270770802
 10
52.6083868254
 20
-23.6235565118
 10
50.705507443
 20
-24.971774371
 10
48.6990396143
 20
-26.2689763261
 10
46.5930824381
 20
-27.5125122678
 10
44.3919382643
 20
-28.6998417234
 10
42.1001039043
 20
-29.8285390468
 10
39.7222614444
 20
-30.8962983741
 10
37.2632686804
 20
-31.9009383342
 10
34.7281491937
 20
-32.8404065053
 10
32.1220820881
 20
-33.7127836075
 10
29.4503914094
 20
-34.5162874247
 10
26.7185352685
 20
-35.2492764444
 10
23.9320946911
 20
-35.9102532121
 10
21.0967622155
 20
-36.4978673901
 10
18.2183302636
 20
-37.0109185165
 10
15.3026793068
 20
-37.448358457
 10
12.3557658531
 20
-37.8092935469
 10
9.3836102777
 20
-38.0929864167
 10
6.3922845242
 20
-38.2988574979
 10
3.3878996997
 20
-38.4264862078
 10
0.3765935903
 20
-38.4756118081
 10
-2.6354818783
 20
-38.4461339383
 10
-5.6421732084
 20
-38.3381128197
 10
-8.637337902
 20
-38.1517691335
 10
-11.6148570091
 20
-37.8874835689
 10
-14.5686476289
 20
-37.5457960465
 10
-17.4926753364
 20
-37.127404614
 10
-20.3809665105
 20
-36.6331640214
 10
-23.2276205378
 20
-36.0640839737
 10
-26.0268218674
 20
-35.421327069
 10
-28.7728518912
 20
-34.7062064227
 10
-31.4601006272
 20
-33.9201829853
 10
-34.0830781804
 20
-33.0648625577
 10
-36.6364259578
 20
-32.1419925106
 10
-39.1149276162
 20
-31.1534582145
 10
-41.5135197188
 20
-30.1012791883
 10
-43.8273020794
 20
-28.9876049736
 10
-46.0515477731
 20
-27.8147107429
 10
-48.1817127934
 20
-26.5849926519
 10
-50.2134453353
 20
-25.3009629443
 10
-52.1425946857
 20
-23.9652448191
 10
-53.9652197029
 20
-22.580567072
 10
-55.6775968684
 20
-21.1497585202
 10
-57.2762278939
 20
-19.6757422236
 10
-58.7578468677
 20
-18.1615295131
 10
-60.0928159399
 20
-16.6422743293
  0
LWPOLYLINE
  5
9A
330
23
100
AcDbEntity
  8
0
  6
Continuous
 62
     7
370
    25
100
AcDbPolyline
 90
       56
 70
   128
 43
0.0
 10
47.1618447106
 20
3.2661632475
 10
46.832683049
 20
4.5802531839
 10
46.3392924152
 20
6.0248478908
 10
45.7122936055
 20
7.4520714015
 10
44.9534944197
 20
8.8578086613
 10
44.0650826722
 20
10.2380065657
 10
43.0496198842
 20
11.5886856468
 10
41.9100338978
 20
12.9059515472
 10
40.6496104343
 20
14.1860062483
 10
39.2719836209
 20
15.425159021
 10
37.7811255123
 20
16.6198370672
 10
36.1813346384
 20
17.7665958207
 10
34.4772236104
 20
18.8621288791
 10
32.6737058216
 20
19.9032775371
 10
30.7759812806
 20
20.8870398936
 10
28.7895216185
 20
21.810579507
 10
26.7200543128
 20
22.6712335736
 10
24.5735461734
 20
23.4665206048
 10
22.3561861391
 20
24.1941475823
 10
20.0743674327
 20
24.8520165691
 10
17.7346691283
 20
25.4382307587
 10
15.3438371818
 20
25.9510999438
 10
12.9087649806
 20
26.3891453897
 10
10.4364734683
 20
26.7511040981
 10
7.9340909013
 20
27.0359324482
 10
5.4088322963
 20
27.2428092063
 10
2.8679786276
 20
27.371137893
 10
0.318855834
 20
27.4205485035
 10
-2.2311863034
 20
27.3908985744
 10
-4.7747953532
 20
27.2822735939
 10
-7.3046374319
 20
27.094986756
 10
-9.8134183499
 20
26.8295780572
 10
-12.2939046424
 20
26.4868127394
 10
-14.7389444252
 20
26.0676790838
 10
-17.1414880158
 20
25.5733855612
 10
-19.494608259
 20
25.0053573478
 10
-21.7915205
 20
24.365232216
 10
-24.0256021461
 20
23.6548558123
 10
-26.1904117618
 20
22.8762763357
 10
-28.2797076403
 20
22.0317386324
 10
-30.287465801
 20
21.1236777232
 10
-32.2078973571
 20
20.1547117828
 10
-34.0354652075
 20
19.1276345909
 10
-35.7649000008
 20
18.0454074768
 10
-37.3912153289
 20
16.9111507815
 10
-38.9097221037
 20
15.7281348607
 10
-40.3160420771
 20
14.4997706556
 10
-41.6061204644
 20
13.229599858
 10
-42.7762376358
 20
11.9212846993
 10
-43.8230198406
 20
10.5785973908
 10
-44.7434489346
 20
9.2054092474
 10
-45.5348710825
 20
7.8056795262
 10
-46.1950044094
 20
6.3834440102
 10
-46.72194558
 20
4.9428033726
 10
-47.1141752865
 20
3.4879113534
 10
-47.1618447106
 20
3.2661632475
  0
LINE
  5
9B
330
23
100
AcDbEntity
  8
0
  6
Continuous
 62
     7
370
    25
100
AcDbLine
 10
70.0
 20
4.0827040594
 30
0.0
 11
70.0
 21
6.5323264951
 31
0.0
  0
LINE
  5
9C
330
23
100
AcDbEntity
  8
0
  6
Continuous
 62
     7
370
    25
100
AcDbLine
 10
-70.0
 20
6.5323264951
 30
0.0
 11
-70.0
 21
4.0827040594
 31
0.0
  0
LINE
  5
9D
330
23
100
AcDbEntity
  8
0
  6
Continuous
 62
     7
370
    25
100
AcDbLine
 10
-49.505517454
 20
-24.486936107
 30
0.0
 11
-48.0910740982
 21
-25.3037422974
 31
0.0
  0
LINE
  5
9E
330
23
100
AcDbEntity
  8
0
  6
Continuous
 62
     7
370
    25
100
AcDbLine
 10
48.0910740982
 20
-25.3037422974
 30
0.0
 11
49.505517454
 21
-24.486936107
 31
0.0
  0
VIEWPORT
  5
A1
330
23
100
AcDbEntity
  8
0
100
AcDbViewport
 10
0.0
 20
0.0
 30
0.0
 40
205.6
 41
156.0
 68
     1
 69
     1
 12
0.0
 22
0.0
 13
0.0
 23
0.0
 14
10.0
 24
10.0
 15
10.0
 25
10.0
 16
0.0
 26
0.0
 36
1.0
 17
0.0
 27
0.0
 37
0.0
 42
50.0
 43
0.0
 44
0.0
 45
142.8
 50
0.0
 51
0.0
 72
   100
 90
   557152
  1

281
     0
 71
     1
 74
     0
110
0.0
120
0.0
130
0.0
111
1.0
121
0.0
131
0.0
112
0.0
122
1.0
132
0.0
 79
     0
146
0.0
  0
ENDBLK
  5
25
330
23
100
AcDbEntity
  8
0
100
AcDbBlockEnd
  0
ENDSEC
  0
SECTION
  2
ENTITIES
  0
CIRCLE
  5
73
330
1F
100
AcDbEntity
  8
0
  6
Continuous
 62
     7
370
    25
100
AcDbCircle
 10
-40.6586399182
 20
40.6586399182
 30
0.0
 40
4.000000000001862
  0
CIRCLE
  5
74
330
1F
100
AcDbEntity
  8
0
  6
Continuous
 62
     7
370
    25
100
AcDbCircle
 10
-40.6586399182
 20
-40.6586399182
 30
0.0
 40
4.000000000004995
  0
CIRCLE
  5
75
330
1F
100
AcDbEntity
  8
0
  6
Continuous
 62
     7
370
    25
100
AcDbCircle
 10
40.6586399182
 20
40.6586399182
 30
0.0
 40
4.000000000000291
  0
CIRCLE
  5
76
330
1F
100
AcDbEntity
  8
0
  6
Continuous
 62
     7
370
    25
100
AcDbCircle
 10
0.0
 20
0.0
 30
0.0
 40
47.50000000000001
  0
CIRCLE
  5
77
330
1F
100
AcDbEntity
  8
0
  6
Continuous
 62
     7
370
    25
100
AcDbCircle
 10
0.0
 20
57.5
 30
0.0
 40
4.0
  0
CIRCLE
  5
78
330
1F
100
AcDbEntity
  8
0
  6
Continuous
 62
     7
370
    25
100
AcDbCircle
 10
57.5
 20
0.0
 30
0.0
 40
4.000000000001832
  0
CIRCLE
  5
79
330
1F
100
AcDbEntity
  8
0
  6
Continuous
 62
     7
370
    25
100
AcDbCircle
 10
0.0
 20
-57.5
 30
0.0
 40
4.000000000005052
  0
CIRCLE
  5
7A
330
1F
100
AcDbEntity
  8
0
  6
Continuous
 62
     7
370
    25
100
AcDbCircle
 10
-57.5
 20
0.0
 30
0.0
 40
4.000000000003641
  0
CIRCLE
  5
7B
330
1F
100
AcDbEntity
  8
0
  6
Continuous
 62
     7
370
    25
100
AcDbCircle
 10
0.0
 20
0.0
 30
0.0
 40
69.99999999999997
  0
CIRCLE
  5
7C
330
1F
100
AcDbEntity
  8
0
  6
Continuous
 62
     7
370
    25
100
AcDbCircle
 10
40.6586399182
 20
-40.6586399182
 30
0.0
 40
4.000000000003801
  0
CIRCLE
  5
7D
330
1B
100
AcDbEntity
 67
     1
  8
0
  6
Continuous
 62
     7
370
    25
100
AcDbCircle
 10
0.0
 20
0.0
 30
0.0
 40
66.65000000000005
  0
CIRCLE
  5
7E
330
1B
100
AcDbEntity
 67
     1
  8
0
  6
Continuous
 62
     7
370
    25
100
AcDbCircle
 10
0.0
 20
0.0
 30
0.0
 40
47.50000000000001
  0
CIRCLE
  5
7F
330
1B
100
AcDbEntity
 67
     1
  8
0
  6
Continuous
 62
     7
370
    25
100
AcDbCircle
 10
0.0
 20
-57.5
 30
0.0
 40
3.999999999999993
  0
CIRCLE
  5
80
330
1B
100
AcDbEntity
 67
     1
  8
0
  6
Continuous
 62
     7
370
    25
100
AcDbCircle
 10
40.6586399182
 20
-40.6586399182
 30
0.0
 40
4.000000000000291
  0
CIRCLE
  5
81
330
1B
100
AcDbEntity
 67
     1
  8
0
  6
Continuous
 62
     7
370
    25
100
AcDbCircle
 10
57.5
 20
0.0
 30
0.0
 40
4.000000000001834
  0
CIRCLE
  5
82
330
1B
100
AcDbEntity
 67
     1
  8
0
  6
Continuous
 62
     7
370
    25
100
AcDbCircle
 10
40.6586399182
 20
40.6586399182
 30
0.0
 40
4.000000000003809
  0
CIRCLE
  5
83
330
1B
100
AcDbEntity
 67
     1
  8
0
  6
Continuous
 62
     7
370
    25
100
AcDbCircle
 10
0.0
 20
57.5
 30
0.0
 40
4.000000000005052
  0
CIRCLE
  5
84
330
1B
100
AcDbEntity
 67
     1
  8
0
  6
Continuous
 62
     7
370
    25
100
AcDbCircle
 10
-40.6586399182
 20
40.6586399182
 30
0.0
 40
4.000000000005002
  0
CIRCLE
  5
85
330
1B
100
AcDbEntity
 67
     1
  8
0
  6
Continuous
 62
     7
370
    25
100
AcDbCircle
 10
-57.5
 20
0.0
 30
0.0
 40
4.000000000003642
  0
CIRCLE
  5
86
330
1B
100
AcDbEntity
 67
     1
  8
0
  6
Continuous
 62
     7
370
    25
100
AcDbCircle
 10
-40.6586399182
 20
-40.6586399182
 30
0.0
 40
4.000000000001862
  0
CIRCLE
  5
87
330
1B
100
AcDbEntity
 67
     1
  8
0
  6
Continuous
 62
     7
370
    25
100
AcDbCircle
 10
0.0
 20
0.0
 30
0.0
 40
67.99999999999994
  0
CIRCLE
  5
88
330
1B
100
AcDbEntity
 67
     1
  8
0
  6
Continuous
 62
     7
370
    25
100
AcDbCircle
 10
0.0
 20
0.0
 30
0.0
 40
69.99999999999997
  0
VIEWPORT
  5
9F
330
1B
100
AcDbEntity
 67
     1
  8
0
100
AcDbViewport
 10
0.0
 20
0.0
 30
0.0
 40
205.6
 41
156.0
 68
     1
 69
     1
 12
0.0
 22
0.0
 13
0.0
 23
0.0
 14
10.0
 24
10.0
 15
10.0
 25
10.0
 16
0.0
 26
0.0
 36
1.0
 17
0.0
 27
0.0
 37
0.0
 42
50.0
 43
0.0
 44
0.0
 45
142.8
 50
0.0
 51
0.0
 72
   100
 90
   557152
  1

281
     0
 71
     1
 74
     0
110
0.0
120
0.0
130
0.0
111
1.0
121
0.0
131
0.0
112
0.0
122
1.0
132
0.0
 79
     0
146
0.0
  0
ENDSEC
  0
SECTION
  2
OBJECTS
  0
DICTIONARY
  5
C
330
0
100
AcDbDictionary
281
     1
  3
ACAD_GROUP
350
D
  3
ACAD_LAYOUT
350
1A
  3
ACAD_MLINESTYLE
350
17
  3
ACAD_PLOTSETTINGS
350
19
  3
ACAD_PLOTSTYLENAME
350
E
  3
ACAD_SCALELIST
350
47
  3
DWGPROPS
350
A3
  0
DICTIONARY
  5
D
102
{ACAD_REACTORS
330
C
102
}
330
C
100
AcDbDictionary
281
     1
  0
DICTIONARY
  5
1A
102
{ACAD_REACTORS
330
C
102
}
330
C
100
AcDbDictionary
281
     1
  3
_Bottom
350
1E
  3
_Isometric
350
26
  3
Model
350
22
  0
DICTIONARY
  5
17
102
{ACAD_REACTORS
330
C
102
}
330
C
100
AcDbDictionary
281
     1
  3
Standard
350
18
  0
DICTIONARY
  5
19
102
{ACAD_REACTORS
330
C
102
}
330
C
100
AcDbDictionary
281
     1
  0
ACDBDICTIONARYWDFLT
  5
E
102
{ACAD_REACTORS
330
C
102
}
330
C
100
AcDbDictionary
281
     1
  3
Normal
350
F
100
AcDbDictionaryWithDefault
340
F
  0
DICTIONARY
  5
47
102
{ACAD_REACTORS
330
C
102
}
330
C
100
AcDbDictionary
281
     1
  3
A0
350
48
  3
A1
350
49
  3
A2
350
4A
  3
A3
350
4B
  3
A4
350
4C
  3
A5
350
4D
  3
A6
350
4E
  3
A7
350
4F
  3
A8
350
50
  3
A9
350
51
  3
B0
350
52
  3
B1
350
53
  3
B2
350
54
  3
B3
350
55
  3
B4
350
56
  3
B5
350
57
  3
B6
350
58
  3
B7
350
59
  3
B8
350
5A
  3
B9
350
5B
  3
C0
350
5C
  3
C1
350
5D
  3
C2
350
5E
  3
C3
350
5F
  3
C4
350
60
  3
C5
350
61
  3
C6
350
62
  3
C7
350
63
  3
C8
350
64
  3
C9
350
65
  3
D0
350
66
  3
D1
350
67
  3
D2
350
68
  0
XRECORD
  5
A3
102
{ACAD_REACTORS
330
C
102
}
330
C
100
AcDbXrecord
280
     1
  1
DWGPROPS COOKIE
  2

  3

  4

  6

  7

  8
Dev Soni
  9

300
=
301
=
302
=
303
=
304
=
305
=
306
=
307
=
308
=
309
=
 40
0.0
 41
2459359.247339768
 42
2459359.247440231
  1

 90
        0
  0
LAYOUT
  5
1E
102
{ACAD_REACTORS
330
1A
102
}
330
1A
100
AcDbPlotSettings
  1

  2
none_device
  4
ISO_A4_(210.00_x_297.00_MM)
  6

 40
7.5
 41
20.0
 42
7.5
 43
20.0
 44
210.0
 45
297.0
 46
0.0
 47
0.0
 48
0.0
 49
0.0
140
0.0
141
0.0
142
1.0
143
0.7179487179
 70
   688
 72
     1
 73
     1
 74
     1
  7

 75
     0
147
1.3928571429
148
70.0
149
70.0
100
AcDbLayout
  1
_Bottom
 70
     1
 71
     1
 10
-84.358974359
 20
-75.3846153846
 11
128.8717948718
 21
75.3846153846
 12
0.0
 22
0.0
 32
0.0
 14
-70.0
 24
-70.0
 34
0.0
 15
70.0
 25
70.0
 35
0.0
146
0.0
 13
0.0
 23
0.0
 33
0.0
 16
1.0
 26
0.0
 36
0.0
 17
0.0
 27
1.0
 37
0.0
 76
     0
330
1B
331
9F
  0
LAYOUT
  5
26
102
{ACAD_REACTORS
330
1A
102
}
330
1A
100
AcDbPlotSettings
  1

  2
none_device
  4
ISO_A4_(210.00_x_297.00_MM)
  6

 40
7.5
 41
20.0
 42
7.5
 43
20.0
 44
210.0
 45
297.0
 46
0.0
 47
0.0
 48
0.0
 49
0.0
140
0.0
141
0.0
142
1.0
143
0.7179487179
 70
   688
 72
     1
 73
     1
 74
     1
  7

 75
     0
147
1.3928571429
148
70.0
149
70.0
100
AcDbLayout
  1
_Isometric
 70
     1
 71
     2
 10
0.0
 20
0.0
 11
0.0
 21
0.0
 12
0.0
 22
0.0
 32
0.0
 14
0.0
 24
0.0
 34
0.0
 15
0.0
 25
0.0
 35
0.0
146
0.0
 13
0.0
 23
0.0
 33
0.0
 16
1.0
 26
0.0
 36
0.0
 17
0.0
 27
1.0
 37
0.0
 76
     0
330
23
331
A1
  0
LAYOUT
  5
22
102
{ACAD_REACTORS
330
1A
102
}
330
1A
100
AcDbPlotSettings
  1

  2
none_device
  4
ANSI_A_(11.00_x_8.50_Inches)
  6

 40
6.35
 41
19.05
 42
6.35000508
 43
19.05000254
 44
279.4
 45
215.9
 46
133.34999746
 47
88.89999873
 48
0.0
 49
0.0
140
0.0
141
0.0
142
0.0601071429
143
1.0
 70
  1696
 72
     0
 73
     0
 74
     0
  7

 75
     0
147
0.0179189148
148
-1300.4909072572
149
0.0
100
AcDbLayout
  1
Model
 70
     1
 71
     0
 10
0.0
 20
0.0
 11
420.0
 21
297.0
 12
0.0
 22
0.0
 32
0.0
 14
-70.0
 24
-70.0
 34
0.0
 15
70.0
 25
70.0
 35
0.0
146
0.0
 13
0.0
 23
0.0
 33
0.0
 16
1.0
 26
0.0
 36
0.0
 17
0.0
 27
1.0
 37
0.0
 76
     0
330
1F
331
29
  0
MLINESTYLE
  5
18
102
{ACAD_REACTORS
330
17
102
}
330
17
100
AcDbMlineStyle
  2
Standard
 70
     0
  3

 62
   256
 51
90.0
 52
90.0
 71
     2
 49
0.5
 62
   256
  6
BYLAYER
 49
-0.5
 62
   256
  6
BYLAYER
  0
ACDBPLACEHOLDER
  5
F
102
{ACAD_REACTORS
330
E
102
}
330
E
  0
SCALE
  5
48
102
{ACAD_REACTORS
330
47
102
}
330
47
100
AcDbScale
 70
     0
300
1:1
140
1.0
141
1.0
290
     1
  0
SCALE
  5
49
102
{ACAD_REACTORS
330
47
102
}
330
47
100
AcDbScale
 70
     0
300
1:2
140
1.0
141
2.0
290
     0
  0
SCALE
  5
4A
102
{ACAD_REACTORS
330
47
102
}
330
47
100
AcDbScale
 70
     0
300
1:4
140
1.0
141
4.0
290
     0
  0
SCALE
  5
4B
102
{ACAD_REACTORS
330
47
102
}
330
47
100
AcDbScale
 70
     0
300
1:5
140
1.0
141
5.0
290
     0
  0
SCALE
  5
4C
102
{ACAD_REACTORS
330
47
102
}
330
47
100
AcDbScale
 70
     0
300
1:8
140
1.0
141
8.0
290
     0
  0
SCALE
  5
4D
102
{ACAD_REACTORS
330
47
102
}
330
47
100
AcDbScale
 70
     0
300
1:10
140
1.0
141
10.0
290
     0
  0
SCALE
  5
4E
102
{ACAD_REACTORS
330
47
102
}
330
47
100
AcDbScale
 70
     0
300
1:16
140
1.0
141
16.0
290
     0
  0
SCALE
  5
4F
102
{ACAD_REACTORS
330
47
102
}
330
47
100
AcDbScale
 70
     0
300
1:20
140
1.0
141
20.0
290
     0
  0
SCALE
  5
50
102
{ACAD_REACTORS
330
47
102
}
330
47
100
AcDbScale
 70
     0
300
1:30
140
1.0
141
30.0
290
     0
  0
SCALE
  5
51
102
{ACAD_REACTORS
330
47
102
}
330
47
100
AcDbScale
 70
     0
300
1:40
140
1.0
141
40.0
290
     0
  0
SCALE
  5
52
102
{ACAD_REACTORS
330
47
102
}
330
47
100
AcDbScale
 70
     0
300
1:50
140
1.0
141
50.0
290
     0
  0
SCALE
  5
53
102
{ACAD_REACTORS
330
47
102
}
330
47
100
AcDbScale
 70
     0
300
1:100
140
1.0
141
100.0
290
     0
  0
SCALE
  5
54
102
{ACAD_REACTORS
330
47
102
}
330
47
100
AcDbScale
 70
     0
300
2:1
140
2.0
141
1.0
290
     0
  0
SCALE
  5
55
102
{ACAD_REACTORS
330
47
102
}
330
47
100
AcDbScale
 70
     0
300
4:1
140
4.0
141
1.0
290
     0
  0
SCALE
  5
56
102
{ACAD_REACTORS
330
47
102
}
330
47
100
AcDbScale
 70
     0
300
8:1
140
8.0
141
1.0
290
     0
  0
SCALE
  5
57
102
{ACAD_REACTORS
330
47
102
}
330
47
100
AcDbScale
 70
     0
300
10:1
140
10.0
141
1.0
290
     0
  0
SCALE
  5
58
102
{ACAD_REACTORS
330
47
102
}
330
47
100
AcDbScale
 70
     0
300
100:1
140
100.0
141
1.0
290
     0
  0
SCALE
  5
59
102
{ACAD_REACTORS
330
47
102
}
330
47
100
AcDbScale
 70
     0
300
1/128" = 1'-0"
140
0.0078125
141
12.0
290
     0
  0
SCALE
  5
5A
102
{ACAD_REACTORS
330
47
102
}
330
47
100
AcDbScale
 70
     0
300
1/64" = 1'-0"
140
0.015625
141
12.0
290
     0
  0
SCALE
  5
5B
102
{ACAD_REACTORS
330
47
102
}
330
47
100
AcDbScale
 70
     0
300
1/32" = 1'-0"
140
0.03125
141
12.0
290
     0
  0
SCALE
  5
5C
102
{ACAD_REACTORS
330
47
102
}
330
47
100
AcDbScale
 70
     0
300
1/16" = 1'-0"
140
0.0625
141
12.0
290
     0
  0
SCALE
  5
5D
102
{ACAD_REACTORS
330
47
102
}
330
47
100
AcDbScale
 70
     0
300
3/32" = 1'-0"
140
0.09375
141
12.0
290
     0
  0
SCALE
  5
5E
102
{ACAD_REACTORS
330
47
102
}
330
47
100
AcDbScale
 70
     0
300
1/8" = 1'-0"
140
0.125
141
12.0
290
     0
  0
SCALE
  5
5F
102
{ACAD_REACTORS
330
47
102
}
330
47
100
AcDbScale
 70
     0
300
3/16" = 1'-0"
140
0.1875
141
12.0
290
     0
  0
SCALE
  5
60
102
{ACAD_REACTORS
330
47
102
}
330
47
100
AcDbScale
 70
     0
300
1/4" = 1'-0"
140
0.25
141
12.0
290
     0
  0
SCALE
  5
61
102
{ACAD_REACTORS
330
47
102
}
330
47
100
AcDbScale
 70
     0
300
3/8" = 1'-0"
140
0.375
141
12.0
290
     0
  0
SCALE
  5
62
102
{ACAD_REACTORS
330
47
102
}
330
47
100
AcDbScale
 70
     0
300
1/2" = 1'-0"
140
0.5
141
12.0
290
     0
  0
SCALE
  5
63
102
{ACAD_REACTORS
330
47
102
}
330
47
100
AcDbScale
 70
     0
300
3/4" = 1'-0"
140
0.75
141
12.0
290
     0
  0
SCALE
  5
64
102
{ACAD_REACTORS
330
47
102
}
330
47
100
AcDbScale
 70
     0
300
1" = 1'-0"
140
1.0
141
12.0
290
     0
  0
SCALE
  5
65
102
{ACAD_REACTORS
330
47
102
}
330
47
100
AcDbScale
 70
     0
300
1-1/2" = 1'-0"
140
1.5
141
12.0
290
     0
  0
SCALE
  5
66
102
{ACAD_REACTORS
330
47
102
}
330
47
100
AcDbScale
 70
     0
300
3" = 1'-0"
140
3.0
141
12.0
290
     0
  0
SCALE
  5
67
102
{ACAD_REACTORS
330
47
102
}
330
47
100
AcDbScale
 70
     0
300
6" = 1'-0"
140
6.0
141
12.0
290
     0
  0
SCALE
  5
68
102
{ACAD_REACTORS
330
47
102
}
330
47
100
AcDbScale
 70
     0
300
1'-0" = 1'-0"
140
12.0
141
12.0
290
     0
  0
ENDSEC
  0
EOF
